%TF.GenerationSoftware,KiCad,Pcbnew,5.99.0+really5.1.10+dfsg1-1*%
%TF.CreationDate,2021-11-26T09:44:29+01:00*%
%TF.ProjectId,stromcek-led,7374726f-6d63-4656-9b2d-6c65642e6b69,rev?*%
%TF.SameCoordinates,Original*%
%TF.FileFunction,Profile,NP*%
%FSLAX46Y46*%
G04 Gerber Fmt 4.6, Leading zero omitted, Abs format (unit mm)*
G04 Created by KiCad (PCBNEW 5.99.0+really5.1.10+dfsg1-1) date 2021-11-26 09:44:29*
%MOMM*%
%LPD*%
G01*
G04 APERTURE LIST*
%TA.AperFunction,Profile*%
%ADD10C,0.050000*%
%TD*%
G04 APERTURE END LIST*
D10*
X149800000Y-56350000D02*
X142800000Y-54600000D01*
X147350000Y-49650000D02*
X149800000Y-56350000D01*
X153150000Y-45950000D02*
X147350000Y-49650000D01*
X147300000Y-43100000D02*
X153150000Y-45950000D01*
X148750000Y-36950000D02*
X147300000Y-43100000D01*
X142850000Y-38700000D02*
X148750000Y-36950000D01*
X139750000Y-32900000D02*
X142850000Y-38700000D01*
X136800000Y-38450000D02*
X139750000Y-32900000D01*
X130900000Y-36050000D02*
X136800000Y-38450000D01*
X132450000Y-43000000D02*
X130900000Y-36050000D01*
X126400000Y-45900000D02*
X132450000Y-43000000D01*
X132700000Y-49900000D02*
X126400000Y-45900000D01*
X131000000Y-56550000D02*
X132700000Y-49900000D01*
X136800000Y-54700000D02*
X131000000Y-56550000D01*
X121700000Y-76350000D02*
X136800000Y-54700000D01*
X127600000Y-76600000D02*
X121700000Y-76350000D01*
X112150000Y-99200000D02*
X127600000Y-76600000D01*
X123900000Y-99800000D02*
X112150000Y-99200000D01*
X104650000Y-128600000D02*
X123900000Y-99800000D01*
X112300000Y-128750000D02*
X104650000Y-128600000D01*
X95150000Y-157300000D02*
X112300000Y-128750000D01*
X184750000Y-157350000D02*
X95150000Y-157300000D01*
X167400000Y-128850000D02*
X184750000Y-157350000D01*
X175050000Y-128500000D02*
X167400000Y-128850000D01*
X155850000Y-99900000D02*
X175050000Y-128500000D01*
X167650000Y-99050000D02*
X155850000Y-99900000D01*
X152250000Y-76750000D02*
X167650000Y-99050000D01*
X158200000Y-76450000D02*
X152250000Y-76750000D01*
X142800000Y-54600000D02*
X158200000Y-76450000D01*
M02*
