%TF.GenerationSoftware,KiCad,Pcbnew,5.99.0+really5.1.10+dfsg1-1*%
%TF.CreationDate,2021-12-17T14:54:15+01:00*%
%TF.ProjectId,stromcek-led,7374726f-6d63-4656-9b2d-6c65642e6b69,rev?*%
%TF.SameCoordinates,Original*%
%TF.FileFunction,Copper,L2,Bot*%
%TF.FilePolarity,Positive*%
%FSLAX46Y46*%
G04 Gerber Fmt 4.6, Leading zero omitted, Abs format (unit mm)*
G04 Created by KiCad (PCBNEW 5.99.0+really5.1.10+dfsg1-1) date 2021-12-17 14:54:15*
%MOMM*%
%LPD*%
G01*
G04 APERTURE LIST*
%TA.AperFunction,ComponentPad*%
%ADD10O,1.600000X1.600000*%
%TD*%
%TA.AperFunction,ComponentPad*%
%ADD11C,1.600000*%
%TD*%
%TA.AperFunction,ComponentPad*%
%ADD12C,1.150000*%
%TD*%
%TA.AperFunction,ComponentPad*%
%ADD13O,1.700000X1.700000*%
%TD*%
%TA.AperFunction,ComponentPad*%
%ADD14R,1.700000X1.700000*%
%TD*%
%TA.AperFunction,ViaPad*%
%ADD15C,0.800000*%
%TD*%
%TA.AperFunction,Conductor*%
%ADD16C,0.250000*%
%TD*%
%TA.AperFunction,Conductor*%
%ADD17C,0.254000*%
%TD*%
%TA.AperFunction,Conductor*%
%ADD18C,0.100000*%
%TD*%
G04 APERTURE END LIST*
D10*
%TO.P,R4,2*%
%TO.N,Net-(D5-Pad1)*%
X140840000Y-117800000D03*
D11*
%TO.P,R4,1*%
%TO.N,Net-(D4-Pad4)*%
X151000000Y-117800000D03*
%TD*%
D12*
%TO.P,D5,4*%
%TO.N,Net-(D5-Pad4)*%
X116700000Y-123400000D03*
%TO.P,D5,3*%
%TO.N,/GND*%
X115430000Y-123400000D03*
%TO.P,D5,2*%
%TO.N,/VCC*%
X114170000Y-123400000D03*
%TO.P,D5,1*%
%TO.N,Net-(D5-Pad1)*%
X112900000Y-123400000D03*
%TD*%
D13*
%TO.P,J1,5*%
%TO.N,/SW*%
X134840000Y-155600000D03*
%TO.P,J1,4*%
%TO.N,/DOUT*%
X137380000Y-155600000D03*
%TO.P,J1,3*%
%TO.N,/DIN*%
X139920000Y-155600000D03*
%TO.P,J1,2*%
%TO.N,/VCC*%
X142460000Y-155600000D03*
D14*
%TO.P,J1,1*%
%TO.N,/GND*%
X145000000Y-155600000D03*
%TD*%
D10*
%TO.P,R2,2*%
%TO.N,Net-(D3-Pad1)*%
X127240000Y-86200000D03*
D11*
%TO.P,R2,1*%
%TO.N,Net-(D2-Pad4)*%
X137400000Y-86200000D03*
%TD*%
D10*
%TO.P,R3,2*%
%TO.N,Net-(D4-Pad1)*%
X140360000Y-97800000D03*
D11*
%TO.P,R3,1*%
%TO.N,Net-(D3-Pad4)*%
X130200000Y-97800000D03*
%TD*%
D12*
%TO.P,D6,4*%
%TO.N,Net-(D6-Pad4)*%
X170700000Y-143000000D03*
%TO.P,D6,3*%
%TO.N,/GND*%
X169430000Y-143000000D03*
%TO.P,D6,2*%
%TO.N,/VCC*%
X168170000Y-143000000D03*
%TO.P,D6,1*%
%TO.N,Net-(D6-Pad1)*%
X166900000Y-143000000D03*
%TD*%
%TO.P,D4,4*%
%TO.N,Net-(D4-Pad4)*%
X158500000Y-111000000D03*
%TO.P,D4,3*%
%TO.N,/GND*%
X157230000Y-111000000D03*
%TO.P,D4,2*%
%TO.N,/VCC*%
X155970000Y-111000000D03*
%TO.P,D4,1*%
%TO.N,Net-(D4-Pad1)*%
X154700000Y-111000000D03*
%TD*%
%TO.P,D3,4*%
%TO.N,Net-(D3-Pad4)*%
X125000000Y-95400000D03*
%TO.P,D3,3*%
%TO.N,/GND*%
X123730000Y-95400000D03*
%TO.P,D3,2*%
%TO.N,/VCC*%
X122470000Y-95400000D03*
%TO.P,D3,1*%
%TO.N,Net-(D3-Pad1)*%
X121200000Y-95400000D03*
%TD*%
D11*
%TO.P,C6,2*%
%TO.N,/VCC*%
X154700000Y-144800000D03*
%TO.P,C6,1*%
%TO.N,/GND*%
X157200000Y-144800000D03*
%TD*%
D12*
%TO.P,D1,4*%
%TO.N,Net-(D1-Pad4)*%
X141700000Y-47400000D03*
%TO.P,D1,3*%
%TO.N,/GND*%
X140430000Y-47400000D03*
%TO.P,D1,2*%
%TO.N,/VCC*%
X139170000Y-47400000D03*
%TO.P,D1,1*%
%TO.N,/DOUT*%
X137900000Y-47400000D03*
%TD*%
D11*
%TO.P,C3,2*%
%TO.N,/VCC*%
X123500000Y-109200000D03*
%TO.P,C3,1*%
%TO.N,/GND*%
X126000000Y-109200000D03*
%TD*%
%TO.P,C5,2*%
%TO.N,/VCC*%
X123200000Y-131400000D03*
%TO.P,C5,1*%
%TO.N,/GND*%
X120700000Y-131400000D03*
%TD*%
D12*
%TO.P,D2,4*%
%TO.N,Net-(D2-Pad4)*%
X149700000Y-79200000D03*
%TO.P,D2,3*%
%TO.N,/GND*%
X148430000Y-79200000D03*
%TO.P,D2,2*%
%TO.N,/VCC*%
X147170000Y-79200000D03*
%TO.P,D2,1*%
%TO.N,Net-(D2-Pad1)*%
X145900000Y-79200000D03*
%TD*%
D10*
%TO.P,R6,2*%
%TO.N,/DIN*%
X110040000Y-142000000D03*
D11*
%TO.P,R6,1*%
%TO.N,Net-(D6-Pad4)*%
X120200000Y-142000000D03*
%TD*%
D10*
%TO.P,R1,2*%
%TO.N,Net-(D1-Pad4)*%
X137440000Y-69000000D03*
D11*
%TO.P,R1,1*%
%TO.N,Net-(D2-Pad1)*%
X147600000Y-69000000D03*
%TD*%
D10*
%TO.P,R5,2*%
%TO.N,Net-(D6-Pad1)*%
X146560000Y-137200000D03*
D11*
%TO.P,R5,1*%
%TO.N,Net-(D5-Pad4)*%
X136400000Y-137200000D03*
%TD*%
%TO.P,C1,2*%
%TO.N,/VCC*%
X145400000Y-61000000D03*
%TO.P,C1,1*%
%TO.N,/GND*%
X142900000Y-61000000D03*
%TD*%
%TO.P,C2,2*%
%TO.N,/GND*%
X128100000Y-74600000D03*
%TO.P,C2,1*%
%TO.N,/VCC*%
X125600000Y-74600000D03*
%TD*%
%TO.P,C4,2*%
%TO.N,/VCC*%
X159900000Y-97200000D03*
%TO.P,C4,1*%
%TO.N,/GND*%
X162400000Y-97200000D03*
%TD*%
D15*
%TO.N,/GND*%
X142600000Y-146600000D03*
%TO.N,/SW*%
X137200000Y-146600000D03*
%TD*%
D16*
%TO.N,Net-(D1-Pad4)*%
X137440000Y-69000000D02*
X137440000Y-66760000D01*
X141700000Y-47462002D02*
X141700000Y-47400000D01*
X139997999Y-49164003D02*
X141700000Y-47462002D01*
X139997999Y-64202001D02*
X139997999Y-49164003D01*
X137440000Y-66760000D02*
X139997999Y-64202001D01*
%TO.N,Net-(D2-Pad4)*%
X137400000Y-86200000D02*
X143800000Y-86200000D01*
X149700000Y-80300000D02*
X149700000Y-79200000D01*
X143800000Y-86200000D02*
X149700000Y-80300000D01*
%TO.N,Net-(D3-Pad4)*%
X127400000Y-97800000D02*
X125000000Y-95400000D01*
X130200000Y-97800000D02*
X127400000Y-97800000D01*
%TO.N,Net-(D4-Pad4)*%
X151000000Y-117800000D02*
X154600000Y-117800000D01*
X158500000Y-113900000D02*
X158500000Y-111000000D01*
X154600000Y-117800000D02*
X158500000Y-113900000D01*
%TO.N,Net-(D5-Pad4)*%
X136400000Y-137200000D02*
X136400000Y-133600000D01*
X126200000Y-123400000D02*
X116700000Y-123400000D01*
X136400000Y-133600000D02*
X126200000Y-123400000D01*
%TO.N,/VCC*%
X122470000Y-96213172D02*
X122470000Y-95400000D01*
X124299999Y-98043171D02*
X122470000Y-96213172D01*
X124299999Y-108400001D02*
X124299999Y-98043171D01*
X123500000Y-109200000D02*
X124299999Y-108400001D01*
X139170000Y-47400000D02*
X139170000Y-45830000D01*
%TO.N,/DOUT*%
X137900000Y-47462002D02*
X137900000Y-47400000D01*
X137380000Y-155600000D02*
X133580000Y-151800000D01*
X133580000Y-151800000D02*
X118174998Y-151800000D01*
X118174998Y-151800000D02*
X108914999Y-142540001D01*
X136274999Y-111569997D02*
X136274999Y-67288591D01*
X108914999Y-142540001D02*
X108914999Y-141459999D01*
X108914999Y-141459999D02*
X109499999Y-140874999D01*
X109499999Y-140874999D02*
X134390003Y-140874999D01*
X134390003Y-140874999D02*
X142600000Y-132665002D01*
X142600000Y-132665002D02*
X142600000Y-117894998D01*
X136274999Y-67288591D02*
X139547989Y-64015601D01*
X142600000Y-117894998D02*
X136274999Y-111569997D01*
X139547989Y-49109991D02*
X137900000Y-47462002D01*
X139547989Y-64015601D02*
X139547989Y-49109991D01*
%TO.N,/DIN*%
X110040000Y-142000000D02*
X118640000Y-150600000D01*
X134920000Y-150600000D02*
X134200000Y-150600000D01*
X139920000Y-155600000D02*
X134920000Y-150600000D01*
X134200000Y-150600000D02*
X134520000Y-150600000D01*
X118640000Y-150600000D02*
X134200000Y-150600000D01*
%TO.N,Net-(D2-Pad1)*%
X145900000Y-70700000D02*
X147600000Y-69000000D01*
X145900000Y-79200000D02*
X145900000Y-70700000D01*
%TO.N,Net-(D3-Pad1)*%
X121200000Y-92240000D02*
X127240000Y-86200000D01*
X121200000Y-95400000D02*
X121200000Y-92240000D01*
%TO.N,Net-(D4-Pad1)*%
X153560000Y-111000000D02*
X140360000Y-97800000D01*
X154700000Y-111000000D02*
X153560000Y-111000000D01*
%TO.N,Net-(D5-Pad1)*%
X117686828Y-117800000D02*
X140840000Y-117800000D01*
X112900000Y-122586828D02*
X117686828Y-117800000D01*
X112900000Y-123400000D02*
X112900000Y-122586828D01*
%TO.N,Net-(D6-Pad4)*%
X120200000Y-142000000D02*
X146200000Y-142000000D01*
X146200000Y-142000000D02*
X153200000Y-149000000D01*
X170700000Y-143813172D02*
X170700000Y-143000000D01*
X165513172Y-149000000D02*
X170700000Y-143813172D01*
X153200000Y-149000000D02*
X165513172Y-149000000D01*
%TO.N,Net-(D6-Pad1)*%
X166900000Y-143000000D02*
X164400000Y-143000000D01*
X158600000Y-137200000D02*
X146560000Y-137200000D01*
X164400000Y-143000000D02*
X158600000Y-137200000D01*
%TO.N,/SW*%
X136015001Y-156775001D02*
X134840000Y-155600000D01*
X141095001Y-156353999D02*
X140673999Y-156775001D01*
X140673999Y-156775001D02*
X136015001Y-156775001D01*
X141095001Y-150495001D02*
X141095001Y-156353999D01*
X137200000Y-146600000D02*
X141095001Y-150495001D01*
%TD*%
D17*
%TO.N,/VCC*%
X142530896Y-38849714D02*
X142537037Y-38864803D01*
X142547200Y-38880218D01*
X142547711Y-38881174D01*
X142556742Y-38894691D01*
X142575203Y-38922692D01*
X142575967Y-38923466D01*
X142576578Y-38924380D01*
X142600448Y-38948251D01*
X142623929Y-38972024D01*
X142624831Y-38972634D01*
X142625606Y-38973410D01*
X142653552Y-38992084D01*
X142681341Y-39010902D01*
X142682350Y-39011327D01*
X142683258Y-39011934D01*
X142714318Y-39024800D01*
X142745236Y-39037831D01*
X142746304Y-39038050D01*
X142747317Y-39038470D01*
X142780316Y-39045034D01*
X142813157Y-39051778D01*
X142814250Y-39051785D01*
X142815322Y-39051998D01*
X142848870Y-39051999D01*
X142882492Y-39052207D01*
X142883568Y-39052000D01*
X142884661Y-39052000D01*
X142917532Y-39045462D01*
X142933518Y-39042385D01*
X142934566Y-39042074D01*
X142952667Y-39038474D01*
X142967710Y-39032243D01*
X148268081Y-37460100D01*
X146962393Y-42998020D01*
X146957913Y-43010100D01*
X146954456Y-43031685D01*
X146953426Y-43036054D01*
X146951720Y-43048768D01*
X146946948Y-43078565D01*
X146947117Y-43083073D01*
X146946516Y-43087555D01*
X146948418Y-43117705D01*
X146949550Y-43147854D01*
X146950597Y-43152248D01*
X146950881Y-43156754D01*
X146958621Y-43185929D01*
X146965619Y-43215303D01*
X146967503Y-43219408D01*
X146968661Y-43223774D01*
X146981952Y-43250894D01*
X146994539Y-43278322D01*
X146997186Y-43281979D01*
X146999175Y-43286037D01*
X147017505Y-43310047D01*
X147035198Y-43334489D01*
X147038508Y-43337559D01*
X147041249Y-43341150D01*
X147063893Y-43361107D01*
X147086032Y-43381644D01*
X147089881Y-43384012D01*
X147093267Y-43386996D01*
X147119363Y-43402149D01*
X147130290Y-43408871D01*
X147134326Y-43410837D01*
X147153230Y-43421814D01*
X147165418Y-43425985D01*
X152430893Y-45991216D01*
X147178381Y-49341956D01*
X147166055Y-49347891D01*
X147149224Y-49360556D01*
X147146111Y-49362542D01*
X147135407Y-49370953D01*
X147110651Y-49389582D01*
X147108174Y-49392353D01*
X147105254Y-49394648D01*
X147085097Y-49418174D01*
X147064445Y-49441281D01*
X147062557Y-49444481D01*
X147060140Y-49447302D01*
X147044963Y-49474304D01*
X147029212Y-49501001D01*
X147027984Y-49504510D01*
X147026165Y-49507746D01*
X147016548Y-49537187D01*
X147006308Y-49566446D01*
X147005788Y-49570125D01*
X147004635Y-49573656D01*
X147000946Y-49604409D01*
X146996611Y-49635103D01*
X146996819Y-49638814D01*
X146996377Y-49642501D01*
X146998758Y-49673374D01*
X147000495Y-49704331D01*
X147001424Y-49707931D01*
X147001709Y-49711633D01*
X147010068Y-49741450D01*
X147013471Y-49754647D01*
X147014740Y-49758117D01*
X147020425Y-49778397D01*
X147026616Y-49790595D01*
X149241466Y-55847532D01*
X142889581Y-54259562D01*
X142860347Y-54251483D01*
X142838683Y-54249893D01*
X142817193Y-54246715D01*
X142804183Y-54247360D01*
X142791196Y-54246407D01*
X142769636Y-54249074D01*
X142747941Y-54250150D01*
X142735311Y-54253320D01*
X142722382Y-54254919D01*
X142701757Y-54261741D01*
X142680689Y-54267028D01*
X142668917Y-54272602D01*
X142656552Y-54276692D01*
X142637660Y-54287403D01*
X142618022Y-54296702D01*
X142607561Y-54304468D01*
X142596234Y-54310890D01*
X142579791Y-54325084D01*
X142562348Y-54338033D01*
X142553607Y-54347686D01*
X142543746Y-54356198D01*
X142530386Y-54373330D01*
X142515807Y-54389430D01*
X142509115Y-54400606D01*
X142501107Y-54410875D01*
X142491350Y-54430276D01*
X142480187Y-54448919D01*
X142475804Y-54461188D01*
X142469953Y-54472821D01*
X142464166Y-54493760D01*
X142456858Y-54514215D01*
X142454953Y-54527097D01*
X142451483Y-54539653D01*
X142449893Y-54561318D01*
X142446715Y-54582807D01*
X142447360Y-54595817D01*
X142446407Y-54608804D01*
X142449074Y-54630364D01*
X142450150Y-54652059D01*
X142453320Y-54664689D01*
X142454919Y-54677618D01*
X142461741Y-54698243D01*
X142467028Y-54719311D01*
X142472602Y-54731083D01*
X142476692Y-54743448D01*
X142487404Y-54762342D01*
X142496702Y-54781978D01*
X142514779Y-54806328D01*
X145941945Y-59668899D01*
X145886004Y-59642429D01*
X145611816Y-59573700D01*
X145329488Y-59559783D01*
X145049870Y-59601213D01*
X144783708Y-59696397D01*
X144658486Y-59763329D01*
X144586903Y-60007298D01*
X145400000Y-60820395D01*
X145414143Y-60806253D01*
X145593748Y-60985858D01*
X145579605Y-61000000D01*
X146392702Y-61813097D01*
X146636671Y-61741514D01*
X146757571Y-61486004D01*
X146826300Y-61211816D01*
X146839576Y-60942486D01*
X157544254Y-76130616D01*
X152255727Y-76397265D01*
X152244579Y-76396339D01*
X152221174Y-76399007D01*
X152215005Y-76399318D01*
X152204005Y-76400964D01*
X152175687Y-76404192D01*
X152169767Y-76406087D01*
X152163615Y-76407008D01*
X152136782Y-76416648D01*
X152109651Y-76425335D01*
X152104214Y-76428349D01*
X152098361Y-76430452D01*
X152073931Y-76445138D01*
X152049009Y-76458954D01*
X152044264Y-76462971D01*
X152038933Y-76466176D01*
X152017833Y-76485349D01*
X151996090Y-76503758D01*
X151992222Y-76508622D01*
X151987617Y-76512806D01*
X151970657Y-76535736D01*
X151952930Y-76558025D01*
X151950085Y-76563549D01*
X151946385Y-76568552D01*
X151934229Y-76594341D01*
X151921185Y-76619670D01*
X151919471Y-76625647D01*
X151916820Y-76631272D01*
X151909930Y-76658929D01*
X151902077Y-76686322D01*
X151901563Y-76692518D01*
X151900059Y-76698553D01*
X151898697Y-76727025D01*
X151896339Y-76755421D01*
X151897043Y-76761599D01*
X151896746Y-76767811D01*
X151900965Y-76796004D01*
X151904192Y-76824313D01*
X151906087Y-76830233D01*
X151907008Y-76836385D01*
X151916648Y-76863218D01*
X151925335Y-76890349D01*
X151928349Y-76895786D01*
X151930452Y-76901639D01*
X151945132Y-76926059D01*
X151950529Y-76935795D01*
X151954043Y-76940884D01*
X151966176Y-76961067D01*
X151973698Y-76969345D01*
X167010327Y-98743167D01*
X155854254Y-99546782D01*
X155849232Y-99546299D01*
X155819728Y-99549270D01*
X155807463Y-99550153D01*
X155802518Y-99551002D01*
X155780242Y-99553245D01*
X155768428Y-99556857D01*
X155756250Y-99558948D01*
X155735349Y-99566969D01*
X155713934Y-99573516D01*
X155703047Y-99579366D01*
X155691516Y-99583791D01*
X155672580Y-99595736D01*
X155652855Y-99606335D01*
X155643322Y-99614193D01*
X155632871Y-99620786D01*
X155616626Y-99636199D01*
X155599351Y-99650439D01*
X155591536Y-99660004D01*
X155582571Y-99668510D01*
X155569644Y-99686798D01*
X155555481Y-99704133D01*
X155549681Y-99715041D01*
X155542549Y-99725131D01*
X155533441Y-99745583D01*
X155522928Y-99765355D01*
X155519366Y-99777188D01*
X155514341Y-99788473D01*
X155509398Y-99810307D01*
X155502944Y-99831751D01*
X155501760Y-99844048D01*
X155499032Y-99856099D01*
X155498444Y-99878488D01*
X155496299Y-99900768D01*
X155497536Y-99913058D01*
X155497212Y-99925412D01*
X155501002Y-99947483D01*
X155503245Y-99969758D01*
X155506857Y-99981572D01*
X155508948Y-99993750D01*
X155516969Y-100014651D01*
X155523516Y-100036066D01*
X155529365Y-100046952D01*
X155533791Y-100058484D01*
X155545738Y-100077422D01*
X155548111Y-100081839D01*
X155554957Y-100092037D01*
X155570786Y-100117129D01*
X155574261Y-100120791D01*
X174409164Y-128176952D01*
X167416724Y-128496868D01*
X167414923Y-128496613D01*
X167382101Y-128498452D01*
X167366639Y-128499159D01*
X167364853Y-128499418D01*
X167345694Y-128500491D01*
X167330615Y-128504379D01*
X167315214Y-128506610D01*
X167297135Y-128513010D01*
X167278552Y-128517801D01*
X167264522Y-128524555D01*
X167249851Y-128529749D01*
X167233365Y-128539555D01*
X167216077Y-128547878D01*
X167203635Y-128557239D01*
X167190258Y-128565196D01*
X167176002Y-128578030D01*
X167160670Y-128589565D01*
X167150295Y-128601171D01*
X167138725Y-128611587D01*
X167127246Y-128626956D01*
X167114460Y-128641260D01*
X167106547Y-128654671D01*
X167097234Y-128667140D01*
X167088976Y-128684450D01*
X167079223Y-128700978D01*
X167074078Y-128715676D01*
X167067377Y-128729721D01*
X167062654Y-128748311D01*
X167056314Y-128766421D01*
X167054136Y-128781833D01*
X167050302Y-128796924D01*
X167049296Y-128816090D01*
X167046613Y-128835077D01*
X167047483Y-128850615D01*
X167046667Y-128866165D01*
X167049418Y-128885151D01*
X167050491Y-128904306D01*
X167054378Y-128919384D01*
X167056610Y-128934786D01*
X167063010Y-128952865D01*
X167067801Y-128971448D01*
X167074555Y-128985477D01*
X167079749Y-129000149D01*
X167089556Y-129016636D01*
X167090341Y-129018267D01*
X167098409Y-129031519D01*
X167115196Y-129059742D01*
X167116412Y-129061093D01*
X184123403Y-156997651D01*
X143010533Y-156974708D01*
X143226920Y-156871641D01*
X143460269Y-156697588D01*
X143655178Y-156481355D01*
X143804157Y-156231252D01*
X143821418Y-156182592D01*
X143821418Y-156450000D01*
X143827732Y-156514103D01*
X143846430Y-156575743D01*
X143876794Y-156632550D01*
X143917657Y-156682343D01*
X143967450Y-156723206D01*
X144024257Y-156753570D01*
X144085897Y-156772268D01*
X144150000Y-156778582D01*
X145850000Y-156778582D01*
X145914103Y-156772268D01*
X145975743Y-156753570D01*
X146032550Y-156723206D01*
X146082343Y-156682343D01*
X146123206Y-156632550D01*
X146153570Y-156575743D01*
X146172268Y-156514103D01*
X146178582Y-156450000D01*
X146178582Y-154750000D01*
X146172268Y-154685897D01*
X146153570Y-154624257D01*
X146123206Y-154567450D01*
X146082343Y-154517657D01*
X146032550Y-154476794D01*
X145975743Y-154446430D01*
X145914103Y-154427732D01*
X145850000Y-154421418D01*
X144150000Y-154421418D01*
X144085897Y-154427732D01*
X144024257Y-154446430D01*
X143967450Y-154476794D01*
X143917657Y-154517657D01*
X143876794Y-154567450D01*
X143846430Y-154624257D01*
X143827732Y-154685897D01*
X143821418Y-154750000D01*
X143821418Y-155017408D01*
X143804157Y-154968748D01*
X143655178Y-154718645D01*
X143460269Y-154502412D01*
X143226920Y-154328359D01*
X142964099Y-154203175D01*
X142816890Y-154158524D01*
X142587000Y-154279845D01*
X142587000Y-155473000D01*
X142607000Y-155473000D01*
X142607000Y-155727000D01*
X142587000Y-155727000D01*
X142587000Y-155747000D01*
X142333000Y-155747000D01*
X142333000Y-155727000D01*
X142313000Y-155727000D01*
X142313000Y-155473000D01*
X142333000Y-155473000D01*
X142333000Y-154279845D01*
X142103110Y-154158524D01*
X141955901Y-154203175D01*
X141693080Y-154328359D01*
X141547001Y-154437318D01*
X141547001Y-150517205D01*
X141549188Y-150495000D01*
X141540461Y-150406393D01*
X141522646Y-150347667D01*
X141514615Y-150321191D01*
X141472644Y-150242668D01*
X141416160Y-150173842D01*
X141398913Y-150159688D01*
X137924317Y-146685093D01*
X137927000Y-146671603D01*
X137927000Y-146528397D01*
X141873000Y-146528397D01*
X141873000Y-146671603D01*
X141900938Y-146812058D01*
X141955741Y-146944364D01*
X142035302Y-147063436D01*
X142136564Y-147164698D01*
X142255636Y-147244259D01*
X142387942Y-147299062D01*
X142528397Y-147327000D01*
X142671603Y-147327000D01*
X142812058Y-147299062D01*
X142944364Y-147244259D01*
X143063436Y-147164698D01*
X143164698Y-147063436D01*
X143244259Y-146944364D01*
X143299062Y-146812058D01*
X143327000Y-146671603D01*
X143327000Y-146528397D01*
X143299062Y-146387942D01*
X143244259Y-146255636D01*
X143164698Y-146136564D01*
X143063436Y-146035302D01*
X142944364Y-145955741D01*
X142812058Y-145900938D01*
X142671603Y-145873000D01*
X142528397Y-145873000D01*
X142387942Y-145900938D01*
X142255636Y-145955741D01*
X142136564Y-146035302D01*
X142035302Y-146136564D01*
X141955741Y-146255636D01*
X141900938Y-146387942D01*
X141873000Y-146528397D01*
X137927000Y-146528397D01*
X137899062Y-146387942D01*
X137844259Y-146255636D01*
X137764698Y-146136564D01*
X137663436Y-146035302D01*
X137544364Y-145955741D01*
X137412058Y-145900938D01*
X137271603Y-145873000D01*
X137128397Y-145873000D01*
X136987942Y-145900938D01*
X136855636Y-145955741D01*
X136736564Y-146035302D01*
X136635302Y-146136564D01*
X136555741Y-146255636D01*
X136500938Y-146387942D01*
X136473000Y-146528397D01*
X136473000Y-146671603D01*
X136500938Y-146812058D01*
X136555741Y-146944364D01*
X136635302Y-147063436D01*
X136736564Y-147164698D01*
X136855636Y-147244259D01*
X136987942Y-147299062D01*
X137128397Y-147327000D01*
X137271603Y-147327000D01*
X137285093Y-147324317D01*
X140643001Y-150682226D01*
X140643002Y-154667528D01*
X140477519Y-154556956D01*
X140263318Y-154468231D01*
X140035924Y-154423000D01*
X139804076Y-154423000D01*
X139576682Y-154468231D01*
X139471162Y-154511939D01*
X135255323Y-150296100D01*
X135241159Y-150278841D01*
X135172333Y-150222357D01*
X135093810Y-150180386D01*
X135008607Y-150154540D01*
X134942205Y-150148000D01*
X134920000Y-150145813D01*
X134897795Y-150148000D01*
X118827224Y-150148000D01*
X111089793Y-142410569D01*
X111123690Y-142328734D01*
X111167000Y-142111000D01*
X111167000Y-141889000D01*
X111123690Y-141671266D01*
X111038734Y-141466165D01*
X110945747Y-141326999D01*
X119294253Y-141326999D01*
X119201266Y-141466165D01*
X119116310Y-141671266D01*
X119073000Y-141889000D01*
X119073000Y-142111000D01*
X119116310Y-142328734D01*
X119201266Y-142533835D01*
X119324602Y-142718421D01*
X119481579Y-142875398D01*
X119666165Y-142998734D01*
X119871266Y-143083690D01*
X120089000Y-143127000D01*
X120311000Y-143127000D01*
X120528734Y-143083690D01*
X120733835Y-142998734D01*
X120918421Y-142875398D01*
X121075398Y-142718421D01*
X121198734Y-142533835D01*
X121232631Y-142452000D01*
X146012777Y-142452000D01*
X152864681Y-149303905D01*
X152878841Y-149321159D01*
X152947667Y-149377643D01*
X153026190Y-149419614D01*
X153111392Y-149445460D01*
X153200000Y-149454187D01*
X153222205Y-149452000D01*
X165490967Y-149452000D01*
X165513172Y-149454187D01*
X165535377Y-149452000D01*
X165601779Y-149445460D01*
X165686982Y-149419614D01*
X165765505Y-149377643D01*
X165834331Y-149321159D01*
X165848495Y-149303900D01*
X171003906Y-144148490D01*
X171021159Y-144134331D01*
X171077643Y-144065505D01*
X171119614Y-143986982D01*
X171145460Y-143901779D01*
X171152000Y-143835377D01*
X171152000Y-143835376D01*
X171154187Y-143813172D01*
X171152000Y-143790967D01*
X171152000Y-143782809D01*
X171274991Y-143700629D01*
X171400629Y-143574991D01*
X171499342Y-143427257D01*
X171567336Y-143263104D01*
X171602000Y-143088839D01*
X171602000Y-142911161D01*
X171567336Y-142736896D01*
X171499342Y-142572743D01*
X171400629Y-142425009D01*
X171274991Y-142299371D01*
X171127257Y-142200658D01*
X170963104Y-142132664D01*
X170788839Y-142098000D01*
X170611161Y-142098000D01*
X170436896Y-142132664D01*
X170272743Y-142200658D01*
X170125009Y-142299371D01*
X170065000Y-142359380D01*
X170004991Y-142299371D01*
X169857257Y-142200658D01*
X169693104Y-142132664D01*
X169518839Y-142098000D01*
X169341161Y-142098000D01*
X169166896Y-142132664D01*
X169002743Y-142200658D01*
X168855009Y-142299371D01*
X168729371Y-142425009D01*
X168630658Y-142572743D01*
X168562664Y-142736896D01*
X168550237Y-142799368D01*
X168349605Y-143000000D01*
X168550237Y-143200632D01*
X168562664Y-143263104D01*
X168630658Y-143427257D01*
X168729371Y-143574991D01*
X168855009Y-143700629D01*
X169002743Y-143799342D01*
X169166896Y-143867336D01*
X169341161Y-143902000D01*
X169518839Y-143902000D01*
X169693104Y-143867336D01*
X169857257Y-143799342D01*
X170004991Y-143700629D01*
X170065000Y-143640620D01*
X170125009Y-143700629D01*
X170153969Y-143719979D01*
X165325949Y-148548000D01*
X153387224Y-148548000D01*
X150631926Y-145792702D01*
X153886903Y-145792702D01*
X153958486Y-146036671D01*
X154213996Y-146157571D01*
X154488184Y-146226300D01*
X154770512Y-146240217D01*
X155050130Y-146198787D01*
X155316292Y-146103603D01*
X155441514Y-146036671D01*
X155513097Y-145792702D01*
X154700000Y-144979605D01*
X153886903Y-145792702D01*
X150631926Y-145792702D01*
X149709736Y-144870512D01*
X153259783Y-144870512D01*
X153301213Y-145150130D01*
X153396397Y-145416292D01*
X153463329Y-145541514D01*
X153707298Y-145613097D01*
X154520395Y-144800000D01*
X154879605Y-144800000D01*
X155692702Y-145613097D01*
X155936671Y-145541514D01*
X156057571Y-145286004D01*
X156107763Y-145085767D01*
X156116310Y-145128734D01*
X156201266Y-145333835D01*
X156324602Y-145518421D01*
X156481579Y-145675398D01*
X156666165Y-145798734D01*
X156871266Y-145883690D01*
X157089000Y-145927000D01*
X157311000Y-145927000D01*
X157528734Y-145883690D01*
X157733835Y-145798734D01*
X157918421Y-145675398D01*
X158075398Y-145518421D01*
X158198734Y-145333835D01*
X158283690Y-145128734D01*
X158327000Y-144911000D01*
X158327000Y-144689000D01*
X158283690Y-144471266D01*
X158198734Y-144266165D01*
X158075398Y-144081579D01*
X157918421Y-143924602D01*
X157733835Y-143801266D01*
X157528734Y-143716310D01*
X157311000Y-143673000D01*
X157089000Y-143673000D01*
X156871266Y-143716310D01*
X156666165Y-143801266D01*
X156481579Y-143924602D01*
X156324602Y-144081579D01*
X156201266Y-144266165D01*
X156116310Y-144471266D01*
X156108084Y-144512619D01*
X156098787Y-144449870D01*
X156003603Y-144183708D01*
X155936671Y-144058486D01*
X155692702Y-143986903D01*
X154879605Y-144800000D01*
X154520395Y-144800000D01*
X153707298Y-143986903D01*
X153463329Y-144058486D01*
X153342429Y-144313996D01*
X153273700Y-144588184D01*
X153259783Y-144870512D01*
X149709736Y-144870512D01*
X148646522Y-143807298D01*
X153886903Y-143807298D01*
X154700000Y-144620395D01*
X155513097Y-143807298D01*
X155441514Y-143563329D01*
X155186004Y-143442429D01*
X154911816Y-143373700D01*
X154629488Y-143359783D01*
X154349870Y-143401213D01*
X154083708Y-143496397D01*
X153958486Y-143563329D01*
X153886903Y-143807298D01*
X148646522Y-143807298D01*
X146535323Y-141696100D01*
X146521159Y-141678841D01*
X146452333Y-141622357D01*
X146373810Y-141580386D01*
X146288607Y-141554540D01*
X146222205Y-141548000D01*
X146200000Y-141545813D01*
X146177795Y-141548000D01*
X121232631Y-141548000D01*
X121198734Y-141466165D01*
X121105747Y-141326999D01*
X134367798Y-141326999D01*
X134390003Y-141329186D01*
X134412208Y-141326999D01*
X134478610Y-141320459D01*
X134563813Y-141294613D01*
X134642336Y-141252642D01*
X134711162Y-141196158D01*
X134725326Y-141178899D01*
X138815226Y-137089000D01*
X145433000Y-137089000D01*
X145433000Y-137311000D01*
X145476310Y-137528734D01*
X145561266Y-137733835D01*
X145684602Y-137918421D01*
X145841579Y-138075398D01*
X146026165Y-138198734D01*
X146231266Y-138283690D01*
X146449000Y-138327000D01*
X146671000Y-138327000D01*
X146888734Y-138283690D01*
X147093835Y-138198734D01*
X147278421Y-138075398D01*
X147435398Y-137918421D01*
X147558734Y-137733835D01*
X147592631Y-137652000D01*
X158412777Y-137652000D01*
X164064681Y-143303905D01*
X164078841Y-143321159D01*
X164147667Y-143377643D01*
X164226190Y-143419614D01*
X164311392Y-143445460D01*
X164400000Y-143454187D01*
X164422205Y-143452000D01*
X166117191Y-143452000D01*
X166199371Y-143574991D01*
X166325009Y-143700629D01*
X166472743Y-143799342D01*
X166636896Y-143867336D01*
X166811161Y-143902000D01*
X166988839Y-143902000D01*
X167163104Y-143867336D01*
X167248717Y-143831874D01*
X167517731Y-143831874D01*
X167561993Y-144052916D01*
X167779089Y-144151301D01*
X168011208Y-144205442D01*
X168249429Y-144213258D01*
X168484598Y-144174450D01*
X168707677Y-144090509D01*
X168778007Y-144052916D01*
X168822269Y-143831874D01*
X168170000Y-143179605D01*
X167517731Y-143831874D01*
X167248717Y-143831874D01*
X167327257Y-143799342D01*
X167474991Y-143700629D01*
X167600629Y-143574991D01*
X167699342Y-143427257D01*
X167767336Y-143263104D01*
X167777279Y-143213116D01*
X167990395Y-143000000D01*
X167777279Y-142786884D01*
X167767336Y-142736896D01*
X167699342Y-142572743D01*
X167600629Y-142425009D01*
X167474991Y-142299371D01*
X167327257Y-142200658D01*
X167248718Y-142168126D01*
X167517731Y-142168126D01*
X168170000Y-142820395D01*
X168822269Y-142168126D01*
X168778007Y-141947084D01*
X168560911Y-141848699D01*
X168328792Y-141794558D01*
X168090571Y-141786742D01*
X167855402Y-141825550D01*
X167632323Y-141909491D01*
X167561993Y-141947084D01*
X167517731Y-142168126D01*
X167248718Y-142168126D01*
X167163104Y-142132664D01*
X166988839Y-142098000D01*
X166811161Y-142098000D01*
X166636896Y-142132664D01*
X166472743Y-142200658D01*
X166325009Y-142299371D01*
X166199371Y-142425009D01*
X166117191Y-142548000D01*
X164587224Y-142548000D01*
X158935323Y-136896100D01*
X158921159Y-136878841D01*
X158852333Y-136822357D01*
X158773810Y-136780386D01*
X158688607Y-136754540D01*
X158622205Y-136748000D01*
X158600000Y-136745813D01*
X158577795Y-136748000D01*
X147592631Y-136748000D01*
X147558734Y-136666165D01*
X147435398Y-136481579D01*
X147278421Y-136324602D01*
X147093835Y-136201266D01*
X146888734Y-136116310D01*
X146671000Y-136073000D01*
X146449000Y-136073000D01*
X146231266Y-136116310D01*
X146026165Y-136201266D01*
X145841579Y-136324602D01*
X145684602Y-136481579D01*
X145561266Y-136666165D01*
X145476310Y-136871266D01*
X145433000Y-137089000D01*
X138815226Y-137089000D01*
X142903912Y-133000315D01*
X142921159Y-132986161D01*
X142977643Y-132917335D01*
X143019614Y-132838812D01*
X143019614Y-132838811D01*
X143045460Y-132753610D01*
X143054187Y-132665003D01*
X143052000Y-132642798D01*
X143052000Y-117917202D01*
X143054187Y-117894997D01*
X143045460Y-117806390D01*
X143039444Y-117786560D01*
X143019614Y-117721188D01*
X143002410Y-117689000D01*
X149873000Y-117689000D01*
X149873000Y-117911000D01*
X149916310Y-118128734D01*
X150001266Y-118333835D01*
X150124602Y-118518421D01*
X150281579Y-118675398D01*
X150466165Y-118798734D01*
X150671266Y-118883690D01*
X150889000Y-118927000D01*
X151111000Y-118927000D01*
X151328734Y-118883690D01*
X151533835Y-118798734D01*
X151718421Y-118675398D01*
X151875398Y-118518421D01*
X151998734Y-118333835D01*
X152032631Y-118252000D01*
X154577795Y-118252000D01*
X154600000Y-118254187D01*
X154622205Y-118252000D01*
X154688607Y-118245460D01*
X154773810Y-118219614D01*
X154852333Y-118177643D01*
X154921159Y-118121159D01*
X154935323Y-118103900D01*
X158803906Y-114235318D01*
X158821159Y-114221159D01*
X158877643Y-114152333D01*
X158919614Y-114073810D01*
X158945460Y-113988607D01*
X158952000Y-113922205D01*
X158952000Y-113922204D01*
X158954187Y-113900000D01*
X158952000Y-113877795D01*
X158952000Y-111782809D01*
X159074991Y-111700629D01*
X159200629Y-111574991D01*
X159299342Y-111427257D01*
X159367336Y-111263104D01*
X159402000Y-111088839D01*
X159402000Y-110911161D01*
X159367336Y-110736896D01*
X159299342Y-110572743D01*
X159200629Y-110425009D01*
X159074991Y-110299371D01*
X158927257Y-110200658D01*
X158763104Y-110132664D01*
X158588839Y-110098000D01*
X158411161Y-110098000D01*
X158236896Y-110132664D01*
X158072743Y-110200658D01*
X157925009Y-110299371D01*
X157865000Y-110359380D01*
X157804991Y-110299371D01*
X157657257Y-110200658D01*
X157493104Y-110132664D01*
X157318839Y-110098000D01*
X157141161Y-110098000D01*
X156966896Y-110132664D01*
X156802743Y-110200658D01*
X156655009Y-110299371D01*
X156529371Y-110425009D01*
X156430658Y-110572743D01*
X156362664Y-110736896D01*
X156350237Y-110799368D01*
X156149605Y-111000000D01*
X156350237Y-111200632D01*
X156362664Y-111263104D01*
X156430658Y-111427257D01*
X156529371Y-111574991D01*
X156655009Y-111700629D01*
X156802743Y-111799342D01*
X156966896Y-111867336D01*
X157141161Y-111902000D01*
X157318839Y-111902000D01*
X157493104Y-111867336D01*
X157657257Y-111799342D01*
X157804991Y-111700629D01*
X157865000Y-111640620D01*
X157925009Y-111700629D01*
X158048001Y-111782810D01*
X158048000Y-113712776D01*
X154412777Y-117348000D01*
X152032631Y-117348000D01*
X151998734Y-117266165D01*
X151875398Y-117081579D01*
X151718421Y-116924602D01*
X151533835Y-116801266D01*
X151328734Y-116716310D01*
X151111000Y-116673000D01*
X150889000Y-116673000D01*
X150671266Y-116716310D01*
X150466165Y-116801266D01*
X150281579Y-116924602D01*
X150124602Y-117081579D01*
X150001266Y-117266165D01*
X149916310Y-117471266D01*
X149873000Y-117689000D01*
X143002410Y-117689000D01*
X142977643Y-117642665D01*
X142921159Y-117573839D01*
X142903911Y-117559684D01*
X136726999Y-111382774D01*
X136726999Y-97689000D01*
X139233000Y-97689000D01*
X139233000Y-97911000D01*
X139276310Y-98128734D01*
X139361266Y-98333835D01*
X139484602Y-98518421D01*
X139641579Y-98675398D01*
X139826165Y-98798734D01*
X140031266Y-98883690D01*
X140249000Y-98927000D01*
X140471000Y-98927000D01*
X140688734Y-98883690D01*
X140770569Y-98849792D01*
X153224681Y-111303905D01*
X153238841Y-111321159D01*
X153307667Y-111377643D01*
X153342363Y-111396188D01*
X153386190Y-111419614D01*
X153471392Y-111445460D01*
X153559999Y-111454187D01*
X153582204Y-111452000D01*
X153917191Y-111452000D01*
X153999371Y-111574991D01*
X154125009Y-111700629D01*
X154272743Y-111799342D01*
X154436896Y-111867336D01*
X154611161Y-111902000D01*
X154788839Y-111902000D01*
X154963104Y-111867336D01*
X155048717Y-111831874D01*
X155317731Y-111831874D01*
X155361993Y-112052916D01*
X155579089Y-112151301D01*
X155811208Y-112205442D01*
X156049429Y-112213258D01*
X156284598Y-112174450D01*
X156507677Y-112090509D01*
X156578007Y-112052916D01*
X156622269Y-111831874D01*
X155970000Y-111179605D01*
X155317731Y-111831874D01*
X155048717Y-111831874D01*
X155127257Y-111799342D01*
X155274991Y-111700629D01*
X155400629Y-111574991D01*
X155499342Y-111427257D01*
X155567336Y-111263104D01*
X155577279Y-111213116D01*
X155790395Y-111000000D01*
X155577279Y-110786884D01*
X155567336Y-110736896D01*
X155499342Y-110572743D01*
X155400629Y-110425009D01*
X155274991Y-110299371D01*
X155127257Y-110200658D01*
X155048718Y-110168126D01*
X155317731Y-110168126D01*
X155970000Y-110820395D01*
X156622269Y-110168126D01*
X156578007Y-109947084D01*
X156360911Y-109848699D01*
X156128792Y-109794558D01*
X155890571Y-109786742D01*
X155655402Y-109825550D01*
X155432323Y-109909491D01*
X155361993Y-109947084D01*
X155317731Y-110168126D01*
X155048718Y-110168126D01*
X154963104Y-110132664D01*
X154788839Y-110098000D01*
X154611161Y-110098000D01*
X154436896Y-110132664D01*
X154272743Y-110200658D01*
X154125009Y-110299371D01*
X153999371Y-110425009D01*
X153917191Y-110548000D01*
X153747224Y-110548000D01*
X141409792Y-98210569D01*
X141417192Y-98192702D01*
X159086903Y-98192702D01*
X159158486Y-98436671D01*
X159413996Y-98557571D01*
X159688184Y-98626300D01*
X159970512Y-98640217D01*
X160250130Y-98598787D01*
X160516292Y-98503603D01*
X160641514Y-98436671D01*
X160713097Y-98192702D01*
X159900000Y-97379605D01*
X159086903Y-98192702D01*
X141417192Y-98192702D01*
X141443690Y-98128734D01*
X141487000Y-97911000D01*
X141487000Y-97689000D01*
X141443690Y-97471266D01*
X141360535Y-97270512D01*
X158459783Y-97270512D01*
X158501213Y-97550130D01*
X158596397Y-97816292D01*
X158663329Y-97941514D01*
X158907298Y-98013097D01*
X159720395Y-97200000D01*
X160079605Y-97200000D01*
X160892702Y-98013097D01*
X161136671Y-97941514D01*
X161257571Y-97686004D01*
X161307763Y-97485767D01*
X161316310Y-97528734D01*
X161401266Y-97733835D01*
X161524602Y-97918421D01*
X161681579Y-98075398D01*
X161866165Y-98198734D01*
X162071266Y-98283690D01*
X162289000Y-98327000D01*
X162511000Y-98327000D01*
X162728734Y-98283690D01*
X162933835Y-98198734D01*
X163118421Y-98075398D01*
X163275398Y-97918421D01*
X163398734Y-97733835D01*
X163483690Y-97528734D01*
X163527000Y-97311000D01*
X163527000Y-97089000D01*
X163483690Y-96871266D01*
X163398734Y-96666165D01*
X163275398Y-96481579D01*
X163118421Y-96324602D01*
X162933835Y-96201266D01*
X162728734Y-96116310D01*
X162511000Y-96073000D01*
X162289000Y-96073000D01*
X162071266Y-96116310D01*
X161866165Y-96201266D01*
X161681579Y-96324602D01*
X161524602Y-96481579D01*
X161401266Y-96666165D01*
X161316310Y-96871266D01*
X161308084Y-96912619D01*
X161298787Y-96849870D01*
X161203603Y-96583708D01*
X161136671Y-96458486D01*
X160892702Y-96386903D01*
X160079605Y-97200000D01*
X159720395Y-97200000D01*
X158907298Y-96386903D01*
X158663329Y-96458486D01*
X158542429Y-96713996D01*
X158473700Y-96988184D01*
X158459783Y-97270512D01*
X141360535Y-97270512D01*
X141358734Y-97266165D01*
X141235398Y-97081579D01*
X141078421Y-96924602D01*
X140893835Y-96801266D01*
X140688734Y-96716310D01*
X140471000Y-96673000D01*
X140249000Y-96673000D01*
X140031266Y-96716310D01*
X139826165Y-96801266D01*
X139641579Y-96924602D01*
X139484602Y-97081579D01*
X139361266Y-97266165D01*
X139276310Y-97471266D01*
X139233000Y-97689000D01*
X136726999Y-97689000D01*
X136726999Y-96207298D01*
X159086903Y-96207298D01*
X159900000Y-97020395D01*
X160713097Y-96207298D01*
X160641514Y-95963329D01*
X160386004Y-95842429D01*
X160111816Y-95773700D01*
X159829488Y-95759783D01*
X159549870Y-95801213D01*
X159283708Y-95896397D01*
X159158486Y-95963329D01*
X159086903Y-96207298D01*
X136726999Y-96207298D01*
X136726999Y-87105747D01*
X136866165Y-87198734D01*
X137071266Y-87283690D01*
X137289000Y-87327000D01*
X137511000Y-87327000D01*
X137728734Y-87283690D01*
X137933835Y-87198734D01*
X138118421Y-87075398D01*
X138275398Y-86918421D01*
X138398734Y-86733835D01*
X138432631Y-86652000D01*
X143777795Y-86652000D01*
X143800000Y-86654187D01*
X143822205Y-86652000D01*
X143888607Y-86645460D01*
X143973810Y-86619614D01*
X144052333Y-86577643D01*
X144121159Y-86521159D01*
X144135323Y-86503900D01*
X150003906Y-80635318D01*
X150021159Y-80621159D01*
X150077643Y-80552333D01*
X150119614Y-80473810D01*
X150145460Y-80388607D01*
X150152000Y-80322205D01*
X150152000Y-80322204D01*
X150154187Y-80300001D01*
X150152000Y-80277796D01*
X150152000Y-79982809D01*
X150274991Y-79900629D01*
X150400629Y-79774991D01*
X150499342Y-79627257D01*
X150567336Y-79463104D01*
X150602000Y-79288839D01*
X150602000Y-79111161D01*
X150567336Y-78936896D01*
X150499342Y-78772743D01*
X150400629Y-78625009D01*
X150274991Y-78499371D01*
X150127257Y-78400658D01*
X149963104Y-78332664D01*
X149788839Y-78298000D01*
X149611161Y-78298000D01*
X149436896Y-78332664D01*
X149272743Y-78400658D01*
X149125009Y-78499371D01*
X149065000Y-78559380D01*
X149004991Y-78499371D01*
X148857257Y-78400658D01*
X148693104Y-78332664D01*
X148518839Y-78298000D01*
X148341161Y-78298000D01*
X148166896Y-78332664D01*
X148002743Y-78400658D01*
X147855009Y-78499371D01*
X147729371Y-78625009D01*
X147630658Y-78772743D01*
X147562664Y-78936896D01*
X147550237Y-78999368D01*
X147349605Y-79200000D01*
X147550237Y-79400632D01*
X147562664Y-79463104D01*
X147630658Y-79627257D01*
X147729371Y-79774991D01*
X147855009Y-79900629D01*
X148002743Y-79999342D01*
X148166896Y-80067336D01*
X148341161Y-80102000D01*
X148518839Y-80102000D01*
X148693104Y-80067336D01*
X148857257Y-79999342D01*
X149004991Y-79900629D01*
X149065000Y-79840620D01*
X149125009Y-79900629D01*
X149248000Y-79982809D01*
X149248000Y-80112776D01*
X143612777Y-85748000D01*
X138432631Y-85748000D01*
X138398734Y-85666165D01*
X138275398Y-85481579D01*
X138118421Y-85324602D01*
X137933835Y-85201266D01*
X137728734Y-85116310D01*
X137511000Y-85073000D01*
X137289000Y-85073000D01*
X137071266Y-85116310D01*
X136866165Y-85201266D01*
X136726999Y-85294253D01*
X136726999Y-79111161D01*
X144998000Y-79111161D01*
X144998000Y-79288839D01*
X145032664Y-79463104D01*
X145100658Y-79627257D01*
X145199371Y-79774991D01*
X145325009Y-79900629D01*
X145472743Y-79999342D01*
X145636896Y-80067336D01*
X145811161Y-80102000D01*
X145988839Y-80102000D01*
X146163104Y-80067336D01*
X146248717Y-80031874D01*
X146517731Y-80031874D01*
X146561993Y-80252916D01*
X146779089Y-80351301D01*
X147011208Y-80405442D01*
X147249429Y-80413258D01*
X147484598Y-80374450D01*
X147707677Y-80290509D01*
X147778007Y-80252916D01*
X147822269Y-80031874D01*
X147170000Y-79379605D01*
X146517731Y-80031874D01*
X146248717Y-80031874D01*
X146327257Y-79999342D01*
X146474991Y-79900629D01*
X146600629Y-79774991D01*
X146699342Y-79627257D01*
X146767336Y-79463104D01*
X146777279Y-79413116D01*
X146990395Y-79200000D01*
X146976253Y-79185858D01*
X147155858Y-79006253D01*
X147170000Y-79020395D01*
X147822269Y-78368126D01*
X147778007Y-78147084D01*
X147560911Y-78048699D01*
X147328792Y-77994558D01*
X147090571Y-77986742D01*
X146855402Y-78025550D01*
X146632323Y-78109491D01*
X146561993Y-78147084D01*
X146517732Y-78368124D01*
X146400500Y-78250892D01*
X146352000Y-78299392D01*
X146352000Y-70887223D01*
X147189431Y-70049793D01*
X147271266Y-70083690D01*
X147489000Y-70127000D01*
X147711000Y-70127000D01*
X147928734Y-70083690D01*
X148133835Y-69998734D01*
X148318421Y-69875398D01*
X148475398Y-69718421D01*
X148598734Y-69533835D01*
X148683690Y-69328734D01*
X148727000Y-69111000D01*
X148727000Y-68889000D01*
X148683690Y-68671266D01*
X148598734Y-68466165D01*
X148475398Y-68281579D01*
X148318421Y-68124602D01*
X148133835Y-68001266D01*
X147928734Y-67916310D01*
X147711000Y-67873000D01*
X147489000Y-67873000D01*
X147271266Y-67916310D01*
X147066165Y-68001266D01*
X146881579Y-68124602D01*
X146724602Y-68281579D01*
X146601266Y-68466165D01*
X146516310Y-68671266D01*
X146473000Y-68889000D01*
X146473000Y-69111000D01*
X146516310Y-69328734D01*
X146550207Y-69410569D01*
X145596096Y-70364681D01*
X145578842Y-70378841D01*
X145522358Y-70447667D01*
X145480386Y-70526191D01*
X145454540Y-70611393D01*
X145445813Y-70700000D01*
X145448001Y-70722215D01*
X145448000Y-78417191D01*
X145325009Y-78499371D01*
X145199371Y-78625009D01*
X145100658Y-78772743D01*
X145032664Y-78936896D01*
X144998000Y-79111161D01*
X136726999Y-79111161D01*
X136726999Y-69879020D01*
X136906165Y-69998734D01*
X137111266Y-70083690D01*
X137329000Y-70127000D01*
X137551000Y-70127000D01*
X137768734Y-70083690D01*
X137973835Y-69998734D01*
X138158421Y-69875398D01*
X138315398Y-69718421D01*
X138438734Y-69533835D01*
X138523690Y-69328734D01*
X138567000Y-69111000D01*
X138567000Y-68889000D01*
X138523690Y-68671266D01*
X138438734Y-68466165D01*
X138315398Y-68281579D01*
X138158421Y-68124602D01*
X137973835Y-68001266D01*
X137892000Y-67967369D01*
X137892000Y-66947223D01*
X140301905Y-64537319D01*
X140319158Y-64523160D01*
X140375642Y-64454334D01*
X140417613Y-64375811D01*
X140443459Y-64290608D01*
X140449999Y-64224206D01*
X140449999Y-64224205D01*
X140452186Y-64202001D01*
X140449999Y-64179796D01*
X140449999Y-60889000D01*
X141773000Y-60889000D01*
X141773000Y-61111000D01*
X141816310Y-61328734D01*
X141901266Y-61533835D01*
X142024602Y-61718421D01*
X142181579Y-61875398D01*
X142366165Y-61998734D01*
X142571266Y-62083690D01*
X142789000Y-62127000D01*
X143011000Y-62127000D01*
X143228734Y-62083690D01*
X143433835Y-61998734D01*
X143442862Y-61992702D01*
X144586903Y-61992702D01*
X144658486Y-62236671D01*
X144913996Y-62357571D01*
X145188184Y-62426300D01*
X145470512Y-62440217D01*
X145750130Y-62398787D01*
X146016292Y-62303603D01*
X146141514Y-62236671D01*
X146213097Y-61992702D01*
X145400000Y-61179605D01*
X144586903Y-61992702D01*
X143442862Y-61992702D01*
X143618421Y-61875398D01*
X143775398Y-61718421D01*
X143898734Y-61533835D01*
X143983690Y-61328734D01*
X143991916Y-61287381D01*
X144001213Y-61350130D01*
X144096397Y-61616292D01*
X144163329Y-61741514D01*
X144407298Y-61813097D01*
X145220395Y-61000000D01*
X144407298Y-60186903D01*
X144163329Y-60258486D01*
X144042429Y-60513996D01*
X143992237Y-60714233D01*
X143983690Y-60671266D01*
X143898734Y-60466165D01*
X143775398Y-60281579D01*
X143618421Y-60124602D01*
X143433835Y-60001266D01*
X143228734Y-59916310D01*
X143011000Y-59873000D01*
X142789000Y-59873000D01*
X142571266Y-59916310D01*
X142366165Y-60001266D01*
X142181579Y-60124602D01*
X142024602Y-60281579D01*
X141901266Y-60466165D01*
X141816310Y-60671266D01*
X141773000Y-60889000D01*
X140449999Y-60889000D01*
X140449999Y-49351226D01*
X141274226Y-48527000D01*
X142600000Y-48527000D01*
X142624776Y-48524560D01*
X142648601Y-48517333D01*
X142670557Y-48505597D01*
X142689803Y-48489803D01*
X142705597Y-48470557D01*
X142717333Y-48448601D01*
X142724560Y-48424776D01*
X142727000Y-48400000D01*
X142727000Y-46400000D01*
X142724560Y-46375224D01*
X142717333Y-46351399D01*
X142705597Y-46329443D01*
X142689803Y-46310197D01*
X142670557Y-46294403D01*
X142648601Y-46282667D01*
X142624776Y-46275440D01*
X142600000Y-46273000D01*
X139614534Y-46273000D01*
X139560911Y-46248699D01*
X139328792Y-46194558D01*
X139090571Y-46186742D01*
X138855402Y-46225550D01*
X138729300Y-46273000D01*
X136800000Y-46273000D01*
X136775224Y-46275440D01*
X136751399Y-46282667D01*
X136729443Y-46294403D01*
X136710197Y-46310197D01*
X136694403Y-46329443D01*
X136682667Y-46351399D01*
X136675440Y-46375224D01*
X136673000Y-46400000D01*
X136673000Y-48400000D01*
X136675440Y-48424776D01*
X136682667Y-48448601D01*
X136694403Y-48470557D01*
X136710197Y-48489803D01*
X136729443Y-48505597D01*
X136751399Y-48517333D01*
X136775224Y-48524560D01*
X136800000Y-48527000D01*
X138325774Y-48527000D01*
X139095990Y-49297217D01*
X139095989Y-63828377D01*
X135971095Y-66953272D01*
X135953841Y-66967432D01*
X135916992Y-67012333D01*
X135897357Y-67036258D01*
X135855385Y-67114782D01*
X135829539Y-67199984D01*
X135820812Y-67288591D01*
X135823000Y-67310806D01*
X135822999Y-111547792D01*
X135820812Y-111569997D01*
X135822999Y-111592201D01*
X135829539Y-111658603D01*
X135855385Y-111743806D01*
X135897356Y-111822329D01*
X135953840Y-111891156D01*
X135971099Y-111905320D01*
X140738777Y-116673000D01*
X140729000Y-116673000D01*
X140511266Y-116716310D01*
X140306165Y-116801266D01*
X140121579Y-116924602D01*
X139964602Y-117081579D01*
X139841266Y-117266165D01*
X139807369Y-117348000D01*
X117709032Y-117348000D01*
X117686827Y-117345813D01*
X117598220Y-117354540D01*
X117513018Y-117380386D01*
X117434495Y-117422357D01*
X117365669Y-117478841D01*
X117351514Y-117496089D01*
X112596096Y-122251509D01*
X112578842Y-122265669D01*
X112522358Y-122334495D01*
X112480386Y-122413019D01*
X112454540Y-122498221D01*
X112445813Y-122586828D01*
X112448001Y-122609043D01*
X112448001Y-122617190D01*
X112325009Y-122699371D01*
X112199371Y-122825009D01*
X112100658Y-122972743D01*
X112032664Y-123136896D01*
X111998000Y-123311161D01*
X111998000Y-123488839D01*
X112032664Y-123663104D01*
X112100658Y-123827257D01*
X112199371Y-123974991D01*
X112325009Y-124100629D01*
X112472743Y-124199342D01*
X112636896Y-124267336D01*
X112811161Y-124302000D01*
X112988839Y-124302000D01*
X113163104Y-124267336D01*
X113248717Y-124231874D01*
X113517731Y-124231874D01*
X113561993Y-124452916D01*
X113779089Y-124551301D01*
X114011208Y-124605442D01*
X114249429Y-124613258D01*
X114484598Y-124574450D01*
X114707677Y-124490509D01*
X114778007Y-124452916D01*
X114822269Y-124231874D01*
X114170000Y-123579605D01*
X113517731Y-124231874D01*
X113248717Y-124231874D01*
X113327257Y-124199342D01*
X113474991Y-124100629D01*
X113600629Y-123974991D01*
X113699342Y-123827257D01*
X113767336Y-123663104D01*
X113777279Y-123613116D01*
X113990395Y-123400000D01*
X113976253Y-123385858D01*
X114155858Y-123206253D01*
X114170000Y-123220395D01*
X114822269Y-122568126D01*
X114778007Y-122347084D01*
X114560911Y-122248699D01*
X114328792Y-122194558D01*
X114090571Y-122186742D01*
X113909415Y-122216637D01*
X117874053Y-118252000D01*
X139807369Y-118252000D01*
X139841266Y-118333835D01*
X139964602Y-118518421D01*
X140121579Y-118675398D01*
X140306165Y-118798734D01*
X140511266Y-118883690D01*
X140729000Y-118927000D01*
X140951000Y-118927000D01*
X141168734Y-118883690D01*
X141373835Y-118798734D01*
X141558421Y-118675398D01*
X141715398Y-118518421D01*
X141838734Y-118333835D01*
X141923690Y-118128734D01*
X141967000Y-117911000D01*
X141967000Y-117901223D01*
X142148001Y-118082224D01*
X142148000Y-132477777D01*
X137527000Y-137098778D01*
X137527000Y-137089000D01*
X137483690Y-136871266D01*
X137398734Y-136666165D01*
X137275398Y-136481579D01*
X137118421Y-136324602D01*
X136933835Y-136201266D01*
X136852000Y-136167369D01*
X136852000Y-133622204D01*
X136854187Y-133599999D01*
X136845460Y-133511392D01*
X136839444Y-133491562D01*
X136819614Y-133426190D01*
X136777643Y-133347667D01*
X136721159Y-133278841D01*
X136703911Y-133264686D01*
X126535323Y-123096100D01*
X126521159Y-123078841D01*
X126452333Y-123022357D01*
X126373810Y-122980386D01*
X126288607Y-122954540D01*
X126222205Y-122948000D01*
X126200000Y-122945813D01*
X126177795Y-122948000D01*
X117482809Y-122948000D01*
X117400629Y-122825009D01*
X117274991Y-122699371D01*
X117127257Y-122600658D01*
X116963104Y-122532664D01*
X116788839Y-122498000D01*
X116611161Y-122498000D01*
X116436896Y-122532664D01*
X116272743Y-122600658D01*
X116125009Y-122699371D01*
X116065000Y-122759380D01*
X116004991Y-122699371D01*
X115857257Y-122600658D01*
X115693104Y-122532664D01*
X115518839Y-122498000D01*
X115341161Y-122498000D01*
X115166896Y-122532664D01*
X115002743Y-122600658D01*
X114855009Y-122699371D01*
X114729371Y-122825009D01*
X114630658Y-122972743D01*
X114562664Y-123136896D01*
X114550237Y-123199368D01*
X114349605Y-123400000D01*
X114550237Y-123600632D01*
X114562664Y-123663104D01*
X114630658Y-123827257D01*
X114729371Y-123974991D01*
X114855009Y-124100629D01*
X115002743Y-124199342D01*
X115166896Y-124267336D01*
X115341161Y-124302000D01*
X115518839Y-124302000D01*
X115693104Y-124267336D01*
X115857257Y-124199342D01*
X116004991Y-124100629D01*
X116065000Y-124040620D01*
X116125009Y-124100629D01*
X116272743Y-124199342D01*
X116436896Y-124267336D01*
X116611161Y-124302000D01*
X116788839Y-124302000D01*
X116963104Y-124267336D01*
X117127257Y-124199342D01*
X117274991Y-124100629D01*
X117400629Y-123974991D01*
X117482809Y-123852000D01*
X126012777Y-123852000D01*
X135948001Y-133787226D01*
X135948000Y-136167369D01*
X135866165Y-136201266D01*
X135681579Y-136324602D01*
X135524602Y-136481579D01*
X135401266Y-136666165D01*
X135316310Y-136871266D01*
X135273000Y-137089000D01*
X135273000Y-137311000D01*
X135316310Y-137528734D01*
X135401266Y-137733835D01*
X135524602Y-137918421D01*
X135681579Y-138075398D01*
X135866165Y-138198734D01*
X136071266Y-138283690D01*
X136289000Y-138327000D01*
X136298778Y-138327000D01*
X134202780Y-140422999D01*
X109522204Y-140422999D01*
X109499999Y-140420812D01*
X109411391Y-140429539D01*
X109326189Y-140455385D01*
X109247666Y-140497356D01*
X109178840Y-140553840D01*
X109164680Y-140571094D01*
X108611095Y-141124680D01*
X108593841Y-141138840D01*
X108537357Y-141207666D01*
X108495385Y-141286190D01*
X108469539Y-141371392D01*
X108460812Y-141459999D01*
X108463000Y-141482214D01*
X108462999Y-142517796D01*
X108460812Y-142540001D01*
X108469539Y-142628608D01*
X108490009Y-142696089D01*
X108495385Y-142713810D01*
X108537356Y-142792333D01*
X108593840Y-142861160D01*
X108611099Y-142875324D01*
X117839683Y-152103910D01*
X117853839Y-152121159D01*
X117922665Y-152177643D01*
X118001188Y-152219614D01*
X118086390Y-152245460D01*
X118174997Y-152254187D01*
X118197202Y-152252000D01*
X133392777Y-152252000D01*
X136291939Y-155151162D01*
X136248231Y-155256682D01*
X136203000Y-155484076D01*
X136203000Y-155715924D01*
X136248231Y-155943318D01*
X136336956Y-156157519D01*
X136447527Y-156323001D01*
X136202226Y-156323001D01*
X135928061Y-156048837D01*
X135971769Y-155943318D01*
X136017000Y-155715924D01*
X136017000Y-155484076D01*
X135971769Y-155256682D01*
X135883044Y-155042481D01*
X135754236Y-154849706D01*
X135590294Y-154685764D01*
X135397519Y-154556956D01*
X135183318Y-154468231D01*
X134955924Y-154423000D01*
X134724076Y-154423000D01*
X134496682Y-154468231D01*
X134282481Y-154556956D01*
X134089706Y-154685764D01*
X133925764Y-154849706D01*
X133796956Y-155042481D01*
X133708231Y-155256682D01*
X133663000Y-155484076D01*
X133663000Y-155715924D01*
X133708231Y-155943318D01*
X133796956Y-156157519D01*
X133925764Y-156350294D01*
X134089706Y-156514236D01*
X134282481Y-156643044D01*
X134496682Y-156731769D01*
X134724076Y-156777000D01*
X134955924Y-156777000D01*
X135183318Y-156731769D01*
X135288837Y-156688061D01*
X135571332Y-156970557D01*
X95771863Y-156948348D01*
X111185446Y-131289000D01*
X119573000Y-131289000D01*
X119573000Y-131511000D01*
X119616310Y-131728734D01*
X119701266Y-131933835D01*
X119824602Y-132118421D01*
X119981579Y-132275398D01*
X120166165Y-132398734D01*
X120371266Y-132483690D01*
X120589000Y-132527000D01*
X120811000Y-132527000D01*
X121028734Y-132483690D01*
X121233835Y-132398734D01*
X121242862Y-132392702D01*
X122386903Y-132392702D01*
X122458486Y-132636671D01*
X122713996Y-132757571D01*
X122988184Y-132826300D01*
X123270512Y-132840217D01*
X123550130Y-132798787D01*
X123816292Y-132703603D01*
X123941514Y-132636671D01*
X124013097Y-132392702D01*
X123200000Y-131579605D01*
X122386903Y-132392702D01*
X121242862Y-132392702D01*
X121418421Y-132275398D01*
X121575398Y-132118421D01*
X121698734Y-131933835D01*
X121783690Y-131728734D01*
X121791916Y-131687381D01*
X121801213Y-131750130D01*
X121896397Y-132016292D01*
X121963329Y-132141514D01*
X122207298Y-132213097D01*
X123020395Y-131400000D01*
X123379605Y-131400000D01*
X124192702Y-132213097D01*
X124436671Y-132141514D01*
X124557571Y-131886004D01*
X124626300Y-131611816D01*
X124640217Y-131329488D01*
X124598787Y-131049870D01*
X124503603Y-130783708D01*
X124436671Y-130658486D01*
X124192702Y-130586903D01*
X123379605Y-131400000D01*
X123020395Y-131400000D01*
X122207298Y-130586903D01*
X121963329Y-130658486D01*
X121842429Y-130913996D01*
X121792237Y-131114233D01*
X121783690Y-131071266D01*
X121698734Y-130866165D01*
X121575398Y-130681579D01*
X121418421Y-130524602D01*
X121242863Y-130407298D01*
X122386903Y-130407298D01*
X123200000Y-131220395D01*
X124013097Y-130407298D01*
X123941514Y-130163329D01*
X123686004Y-130042429D01*
X123411816Y-129973700D01*
X123129488Y-129959783D01*
X122849870Y-130001213D01*
X122583708Y-130096397D01*
X122458486Y-130163329D01*
X122386903Y-130407298D01*
X121242863Y-130407298D01*
X121233835Y-130401266D01*
X121028734Y-130316310D01*
X120811000Y-130273000D01*
X120589000Y-130273000D01*
X120371266Y-130316310D01*
X120166165Y-130401266D01*
X119981579Y-130524602D01*
X119824602Y-130681579D01*
X119701266Y-130866165D01*
X119616310Y-131071266D01*
X119573000Y-131289000D01*
X111185446Y-131289000D01*
X112586678Y-128956338D01*
X112590183Y-128952234D01*
X112604486Y-128926693D01*
X112610648Y-128916435D01*
X112612954Y-128911571D01*
X112624062Y-128891736D01*
X112627768Y-128880330D01*
X112632911Y-128869483D01*
X112638462Y-128847415D01*
X112645487Y-128825791D01*
X112646896Y-128813880D01*
X112649824Y-128802240D01*
X112650962Y-128779514D01*
X112653634Y-128756934D01*
X112652693Y-128744975D01*
X112653293Y-128732988D01*
X112649977Y-128710481D01*
X112648192Y-128687810D01*
X112644935Y-128676264D01*
X112643186Y-128664391D01*
X112635543Y-128642965D01*
X112629369Y-128621076D01*
X112623921Y-128610386D01*
X112619890Y-128599084D01*
X112608213Y-128579559D01*
X112597888Y-128559297D01*
X112590462Y-128549877D01*
X112584301Y-128539576D01*
X112569038Y-128522702D01*
X112554960Y-128504846D01*
X112545838Y-128497056D01*
X112537787Y-128488155D01*
X112519525Y-128474583D01*
X112502234Y-128459816D01*
X112491770Y-128453956D01*
X112482135Y-128446796D01*
X112461568Y-128437044D01*
X112441735Y-128425938D01*
X112430332Y-128422233D01*
X112419483Y-128417089D01*
X112397414Y-128411538D01*
X112375791Y-128404513D01*
X112363878Y-128403103D01*
X112352239Y-128400176D01*
X112329520Y-128399038D01*
X112324188Y-128398407D01*
X112312253Y-128398173D01*
X112282988Y-128396707D01*
X112277644Y-128397494D01*
X105300191Y-128260682D01*
X117376879Y-110192702D01*
X122686903Y-110192702D01*
X122758486Y-110436671D01*
X123013996Y-110557571D01*
X123288184Y-110626300D01*
X123570512Y-110640217D01*
X123850130Y-110598787D01*
X124116292Y-110503603D01*
X124241514Y-110436671D01*
X124313097Y-110192702D01*
X123500000Y-109379605D01*
X122686903Y-110192702D01*
X117376879Y-110192702D01*
X117993274Y-109270512D01*
X122059783Y-109270512D01*
X122101213Y-109550130D01*
X122196397Y-109816292D01*
X122263329Y-109941514D01*
X122507298Y-110013097D01*
X123320395Y-109200000D01*
X123679605Y-109200000D01*
X124492702Y-110013097D01*
X124736671Y-109941514D01*
X124857571Y-109686004D01*
X124907763Y-109485767D01*
X124916310Y-109528734D01*
X125001266Y-109733835D01*
X125124602Y-109918421D01*
X125281579Y-110075398D01*
X125466165Y-110198734D01*
X125671266Y-110283690D01*
X125889000Y-110327000D01*
X126111000Y-110327000D01*
X126328734Y-110283690D01*
X126533835Y-110198734D01*
X126718421Y-110075398D01*
X126875398Y-109918421D01*
X126998734Y-109733835D01*
X127083690Y-109528734D01*
X127127000Y-109311000D01*
X127127000Y-109089000D01*
X127083690Y-108871266D01*
X126998734Y-108666165D01*
X126875398Y-108481579D01*
X126718421Y-108324602D01*
X126533835Y-108201266D01*
X126328734Y-108116310D01*
X126111000Y-108073000D01*
X125889000Y-108073000D01*
X125671266Y-108116310D01*
X125466165Y-108201266D01*
X125281579Y-108324602D01*
X125124602Y-108481579D01*
X125001266Y-108666165D01*
X124916310Y-108871266D01*
X124908084Y-108912619D01*
X124898787Y-108849870D01*
X124803603Y-108583708D01*
X124736671Y-108458486D01*
X124492702Y-108386903D01*
X123679605Y-109200000D01*
X123320395Y-109200000D01*
X122507298Y-108386903D01*
X122263329Y-108458486D01*
X122142429Y-108713996D01*
X122073700Y-108988184D01*
X122059783Y-109270512D01*
X117993274Y-109270512D01*
X118703929Y-108207298D01*
X122686903Y-108207298D01*
X123500000Y-109020395D01*
X124313097Y-108207298D01*
X124241514Y-107963329D01*
X123986004Y-107842429D01*
X123711816Y-107773700D01*
X123429488Y-107759783D01*
X123149870Y-107801213D01*
X122883708Y-107896397D01*
X122758486Y-107963329D01*
X122686903Y-108207298D01*
X118703929Y-108207298D01*
X124178048Y-100017448D01*
X124183688Y-100011249D01*
X124197258Y-99988707D01*
X124202256Y-99981230D01*
X124206202Y-99973851D01*
X124219450Y-99951844D01*
X124222501Y-99943370D01*
X124226758Y-99935408D01*
X124234231Y-99910787D01*
X124242936Y-99886605D01*
X124244276Y-99877687D01*
X124246895Y-99869059D01*
X124249419Y-99843471D01*
X124253242Y-99818037D01*
X124252817Y-99809028D01*
X124253702Y-99800055D01*
X124251186Y-99774470D01*
X124249974Y-99748777D01*
X124247799Y-99740024D01*
X124246917Y-99731050D01*
X124239458Y-99706447D01*
X124233256Y-99681484D01*
X124229414Y-99673320D01*
X124226799Y-99664695D01*
X124214686Y-99642025D01*
X124203731Y-99618746D01*
X124198371Y-99611490D01*
X124194123Y-99603539D01*
X124177821Y-99583668D01*
X124162535Y-99562974D01*
X124155861Y-99556902D01*
X124150144Y-99549933D01*
X124130276Y-99533623D01*
X124111249Y-99516311D01*
X124103520Y-99511658D01*
X124096552Y-99505938D01*
X124073881Y-99493815D01*
X124051844Y-99480549D01*
X124043358Y-99477494D01*
X124035406Y-99473242D01*
X124010815Y-99465779D01*
X123986605Y-99457063D01*
X123977676Y-99455721D01*
X123969057Y-99453105D01*
X123943505Y-99450584D01*
X123935220Y-99449339D01*
X123926224Y-99448880D01*
X123900054Y-99446298D01*
X123891718Y-99447118D01*
X112794832Y-98880470D01*
X115234912Y-95311161D01*
X120298000Y-95311161D01*
X120298000Y-95488839D01*
X120332664Y-95663104D01*
X120400658Y-95827257D01*
X120499371Y-95974991D01*
X120625009Y-96100629D01*
X120772743Y-96199342D01*
X120936896Y-96267336D01*
X121111161Y-96302000D01*
X121288839Y-96302000D01*
X121463104Y-96267336D01*
X121548717Y-96231874D01*
X121817731Y-96231874D01*
X121861993Y-96452916D01*
X122079089Y-96551301D01*
X122311208Y-96605442D01*
X122549429Y-96613258D01*
X122784598Y-96574450D01*
X123007677Y-96490509D01*
X123078007Y-96452916D01*
X123122269Y-96231874D01*
X122470000Y-95579605D01*
X121817731Y-96231874D01*
X121548717Y-96231874D01*
X121627257Y-96199342D01*
X121774991Y-96100629D01*
X121900629Y-95974991D01*
X121999342Y-95827257D01*
X122067336Y-95663104D01*
X122077279Y-95613116D01*
X122290395Y-95400000D01*
X122649605Y-95400000D01*
X122850237Y-95600632D01*
X122862664Y-95663104D01*
X122930658Y-95827257D01*
X123029371Y-95974991D01*
X123155009Y-96100629D01*
X123302743Y-96199342D01*
X123466896Y-96267336D01*
X123641161Y-96302000D01*
X123818839Y-96302000D01*
X123993104Y-96267336D01*
X124157257Y-96199342D01*
X124304991Y-96100629D01*
X124365000Y-96040620D01*
X124425009Y-96100629D01*
X124572743Y-96199342D01*
X124736896Y-96267336D01*
X124911161Y-96302000D01*
X125088839Y-96302000D01*
X125233918Y-96273141D01*
X127064681Y-98103905D01*
X127078841Y-98121159D01*
X127147667Y-98177643D01*
X127226190Y-98219614D01*
X127311392Y-98245460D01*
X127400000Y-98254187D01*
X127422205Y-98252000D01*
X129167369Y-98252000D01*
X129201266Y-98333835D01*
X129324602Y-98518421D01*
X129481579Y-98675398D01*
X129666165Y-98798734D01*
X129871266Y-98883690D01*
X130089000Y-98927000D01*
X130311000Y-98927000D01*
X130528734Y-98883690D01*
X130733835Y-98798734D01*
X130918421Y-98675398D01*
X131075398Y-98518421D01*
X131198734Y-98333835D01*
X131283690Y-98128734D01*
X131327000Y-97911000D01*
X131327000Y-97689000D01*
X131283690Y-97471266D01*
X131198734Y-97266165D01*
X131075398Y-97081579D01*
X130918421Y-96924602D01*
X130733835Y-96801266D01*
X130528734Y-96716310D01*
X130311000Y-96673000D01*
X130089000Y-96673000D01*
X129871266Y-96716310D01*
X129666165Y-96801266D01*
X129481579Y-96924602D01*
X129324602Y-97081579D01*
X129201266Y-97266165D01*
X129167369Y-97348000D01*
X127587224Y-97348000D01*
X125873141Y-95633918D01*
X125902000Y-95488839D01*
X125902000Y-95311161D01*
X125867336Y-95136896D01*
X125799342Y-94972743D01*
X125700629Y-94825009D01*
X125574991Y-94699371D01*
X125427257Y-94600658D01*
X125263104Y-94532664D01*
X125088839Y-94498000D01*
X124911161Y-94498000D01*
X124736896Y-94532664D01*
X124572743Y-94600658D01*
X124425009Y-94699371D01*
X124365000Y-94759380D01*
X124304991Y-94699371D01*
X124157257Y-94600658D01*
X123993104Y-94532664D01*
X123818839Y-94498000D01*
X123641161Y-94498000D01*
X123466896Y-94532664D01*
X123302743Y-94600658D01*
X123155009Y-94699371D01*
X123029371Y-94825009D01*
X122930658Y-94972743D01*
X122862664Y-95136896D01*
X122850237Y-95199368D01*
X122649605Y-95400000D01*
X122290395Y-95400000D01*
X122276253Y-95385858D01*
X122455858Y-95206253D01*
X122470000Y-95220395D01*
X123122269Y-94568126D01*
X123078007Y-94347084D01*
X122860911Y-94248699D01*
X122628792Y-94194558D01*
X122390571Y-94186742D01*
X122155402Y-94225550D01*
X121932323Y-94309491D01*
X121861993Y-94347084D01*
X121817732Y-94568124D01*
X121700500Y-94450892D01*
X121652000Y-94499392D01*
X121652000Y-92427223D01*
X126829431Y-87249793D01*
X126911266Y-87283690D01*
X127129000Y-87327000D01*
X127351000Y-87327000D01*
X127568734Y-87283690D01*
X127773835Y-87198734D01*
X127958421Y-87075398D01*
X128115398Y-86918421D01*
X128238734Y-86733835D01*
X128323690Y-86528734D01*
X128367000Y-86311000D01*
X128367000Y-86089000D01*
X128323690Y-85871266D01*
X128238734Y-85666165D01*
X128115398Y-85481579D01*
X127958421Y-85324602D01*
X127773835Y-85201266D01*
X127568734Y-85116310D01*
X127351000Y-85073000D01*
X127129000Y-85073000D01*
X126911266Y-85116310D01*
X126706165Y-85201266D01*
X126521579Y-85324602D01*
X126364602Y-85481579D01*
X126241266Y-85666165D01*
X126156310Y-85871266D01*
X126113000Y-86089000D01*
X126113000Y-86311000D01*
X126156310Y-86528734D01*
X126190207Y-86610569D01*
X120896096Y-91904681D01*
X120878842Y-91918841D01*
X120822358Y-91987667D01*
X120780386Y-92066191D01*
X120754540Y-92151393D01*
X120745813Y-92240000D01*
X120748001Y-92262215D01*
X120748000Y-94617191D01*
X120625009Y-94699371D01*
X120499371Y-94825009D01*
X120400658Y-94972743D01*
X120332664Y-95136896D01*
X120298000Y-95311161D01*
X115234912Y-95311161D01*
X127877666Y-76817554D01*
X127885510Y-76808781D01*
X127897183Y-76789004D01*
X127900345Y-76784379D01*
X127905984Y-76774094D01*
X127920755Y-76749068D01*
X127922614Y-76743760D01*
X127925325Y-76738815D01*
X127934069Y-76711053D01*
X127943674Y-76683628D01*
X127944462Y-76678054D01*
X127946155Y-76672680D01*
X127949314Y-76643751D01*
X127953385Y-76614973D01*
X127953071Y-76609354D01*
X127953683Y-76603751D01*
X127951139Y-76574772D01*
X127949517Y-76545744D01*
X127948112Y-76540290D01*
X127947619Y-76534679D01*
X127939472Y-76506760D01*
X127932216Y-76478599D01*
X127929774Y-76473524D01*
X127928196Y-76468117D01*
X127914760Y-76442327D01*
X127902148Y-76416119D01*
X127898761Y-76411616D01*
X127896160Y-76406623D01*
X127877955Y-76383954D01*
X127860469Y-76360706D01*
X127856270Y-76356952D01*
X127852744Y-76352561D01*
X127830452Y-76333867D01*
X127808780Y-76314490D01*
X127803934Y-76311630D01*
X127799614Y-76308007D01*
X127774088Y-76294013D01*
X127749068Y-76279245D01*
X127743757Y-76277385D01*
X127738814Y-76274675D01*
X127711062Y-76265934D01*
X127683628Y-76256326D01*
X127678052Y-76255537D01*
X127672679Y-76253845D01*
X127643769Y-76250688D01*
X127632178Y-76249048D01*
X127626587Y-76248811D01*
X127603750Y-76246317D01*
X127592023Y-76247347D01*
X122355511Y-76025460D01*
X122657342Y-75592702D01*
X124786903Y-75592702D01*
X124858486Y-75836671D01*
X125113996Y-75957571D01*
X125388184Y-76026300D01*
X125670512Y-76040217D01*
X125950130Y-75998787D01*
X126216292Y-75903603D01*
X126341514Y-75836671D01*
X126413097Y-75592702D01*
X125600000Y-74779605D01*
X124786903Y-75592702D01*
X122657342Y-75592702D01*
X123300532Y-74670512D01*
X124159783Y-74670512D01*
X124201213Y-74950130D01*
X124296397Y-75216292D01*
X124363329Y-75341514D01*
X124607298Y-75413097D01*
X125420395Y-74600000D01*
X125779605Y-74600000D01*
X126592702Y-75413097D01*
X126836671Y-75341514D01*
X126957571Y-75086004D01*
X127007763Y-74885767D01*
X127016310Y-74928734D01*
X127101266Y-75133835D01*
X127224602Y-75318421D01*
X127381579Y-75475398D01*
X127566165Y-75598734D01*
X127771266Y-75683690D01*
X127989000Y-75727000D01*
X128211000Y-75727000D01*
X128428734Y-75683690D01*
X128633835Y-75598734D01*
X128818421Y-75475398D01*
X128975398Y-75318421D01*
X129098734Y-75133835D01*
X129183690Y-74928734D01*
X129227000Y-74711000D01*
X129227000Y-74489000D01*
X129183690Y-74271266D01*
X129098734Y-74066165D01*
X128975398Y-73881579D01*
X128818421Y-73724602D01*
X128633835Y-73601266D01*
X128428734Y-73516310D01*
X128211000Y-73473000D01*
X127989000Y-73473000D01*
X127771266Y-73516310D01*
X127566165Y-73601266D01*
X127381579Y-73724602D01*
X127224602Y-73881579D01*
X127101266Y-74066165D01*
X127016310Y-74271266D01*
X127008084Y-74312619D01*
X126998787Y-74249870D01*
X126903603Y-73983708D01*
X126836671Y-73858486D01*
X126592702Y-73786903D01*
X125779605Y-74600000D01*
X125420395Y-74600000D01*
X124607298Y-73786903D01*
X124363329Y-73858486D01*
X124242429Y-74113996D01*
X124173700Y-74388184D01*
X124159783Y-74670512D01*
X123300532Y-74670512D01*
X124042080Y-73607298D01*
X124786903Y-73607298D01*
X125600000Y-74420395D01*
X126413097Y-73607298D01*
X126341514Y-73363329D01*
X126086004Y-73242429D01*
X125811816Y-73173700D01*
X125529488Y-73159783D01*
X125249870Y-73201213D01*
X124983708Y-73296397D01*
X124858486Y-73363329D01*
X124786903Y-73607298D01*
X124042080Y-73607298D01*
X137072353Y-54924823D01*
X137076583Y-54920471D01*
X137092159Y-54896427D01*
X137098605Y-54887184D01*
X137101552Y-54881926D01*
X137114281Y-54862276D01*
X137118469Y-54851742D01*
X137124011Y-54841855D01*
X137131252Y-54819596D01*
X137139900Y-54797845D01*
X137141953Y-54786697D01*
X137145459Y-54775918D01*
X137148218Y-54752672D01*
X137152457Y-54729653D01*
X137152296Y-54718321D01*
X137153632Y-54707063D01*
X137151803Y-54683726D01*
X137151470Y-54660323D01*
X137149101Y-54649238D01*
X137148215Y-54637938D01*
X137141870Y-54615410D01*
X137136976Y-54592517D01*
X137132488Y-54582105D01*
X137129416Y-54571197D01*
X137118799Y-54550342D01*
X137109532Y-54528841D01*
X137103100Y-54519506D01*
X137097958Y-54509405D01*
X137083474Y-54491019D01*
X137070193Y-54471743D01*
X137062064Y-54463843D01*
X137055050Y-54454939D01*
X137037255Y-54439730D01*
X137020470Y-54423417D01*
X137010957Y-54417255D01*
X137002340Y-54409890D01*
X136981923Y-54398447D01*
X136962275Y-54385719D01*
X136951741Y-54381531D01*
X136941854Y-54375989D01*
X136919595Y-54368748D01*
X136897844Y-54360100D01*
X136886696Y-54358047D01*
X136875917Y-54354541D01*
X136852672Y-54351782D01*
X136829653Y-54347543D01*
X136818320Y-54347704D01*
X136807062Y-54346368D01*
X136783725Y-54348197D01*
X136760322Y-54348530D01*
X136749237Y-54350899D01*
X136737937Y-54351785D01*
X136715407Y-54358131D01*
X136709508Y-54359392D01*
X136698766Y-54362818D01*
X136671196Y-54370584D01*
X136665788Y-54373337D01*
X131498412Y-56021552D01*
X133040129Y-49990716D01*
X133048422Y-49960886D01*
X133049996Y-49939896D01*
X133053189Y-49919066D01*
X133052583Y-49905386D01*
X133053606Y-49891742D01*
X133051053Y-49870835D01*
X133050121Y-49849796D01*
X133046861Y-49836508D01*
X133045201Y-49822916D01*
X133038616Y-49802903D01*
X133033599Y-49782455D01*
X133027807Y-49770053D01*
X133023529Y-49757052D01*
X133013173Y-49738719D01*
X133004258Y-49719631D01*
X132996157Y-49708597D01*
X132989425Y-49696680D01*
X132975682Y-49680710D01*
X132963223Y-49663740D01*
X132953131Y-49654503D01*
X132944198Y-49644123D01*
X132927602Y-49631139D01*
X132912073Y-49616927D01*
X132885592Y-49600879D01*
X127124521Y-45943058D01*
X132581596Y-43327271D01*
X132592861Y-43323568D01*
X132612766Y-43312330D01*
X132617744Y-43309944D01*
X132627874Y-43303800D01*
X132653241Y-43289479D01*
X132657431Y-43285876D01*
X132662174Y-43282999D01*
X132683725Y-43263261D01*
X132705811Y-43244266D01*
X132709219Y-43239912D01*
X132713307Y-43236168D01*
X132730584Y-43212618D01*
X132748550Y-43189666D01*
X132751044Y-43184729D01*
X132754322Y-43180261D01*
X132766674Y-43153790D01*
X132779815Y-43127778D01*
X132781297Y-43122452D01*
X132783642Y-43117427D01*
X132790592Y-43089054D01*
X132798406Y-43060978D01*
X132798821Y-43055461D01*
X132800139Y-43050081D01*
X132801419Y-43020933D01*
X132803609Y-42991836D01*
X132802939Y-42986339D01*
X132803182Y-42980809D01*
X132798750Y-42951962D01*
X132797323Y-42940255D01*
X132796127Y-42934892D01*
X132792652Y-42912276D01*
X132788595Y-42901121D01*
X131389835Y-36629263D01*
X136666703Y-38775786D01*
X136698111Y-38788710D01*
X136715863Y-38792198D01*
X136733203Y-38797338D01*
X136749794Y-38798866D01*
X136766148Y-38802079D01*
X136784241Y-38802037D01*
X136802249Y-38803695D01*
X136818817Y-38801957D01*
X136835485Y-38801918D01*
X136853221Y-38798347D01*
X136871209Y-38796460D01*
X136887123Y-38791522D01*
X136903459Y-38788233D01*
X136920153Y-38781273D01*
X136937432Y-38775911D01*
X136952080Y-38767961D01*
X136967457Y-38761550D01*
X136982472Y-38751467D01*
X136998373Y-38742837D01*
X137011188Y-38732183D01*
X137025020Y-38722894D01*
X137037782Y-38710073D01*
X137051691Y-38698509D01*
X137062178Y-38685564D01*
X137073936Y-38673751D01*
X137083953Y-38658684D01*
X137095337Y-38644631D01*
X137111143Y-38614602D01*
X139750860Y-33648357D01*
X142530896Y-38849714D01*
%TA.AperFunction,Conductor*%
D18*
G36*
X142530896Y-38849714D02*
G01*
X142537037Y-38864803D01*
X142547200Y-38880218D01*
X142547711Y-38881174D01*
X142556742Y-38894691D01*
X142575203Y-38922692D01*
X142575967Y-38923466D01*
X142576578Y-38924380D01*
X142600448Y-38948251D01*
X142623929Y-38972024D01*
X142624831Y-38972634D01*
X142625606Y-38973410D01*
X142653552Y-38992084D01*
X142681341Y-39010902D01*
X142682350Y-39011327D01*
X142683258Y-39011934D01*
X142714318Y-39024800D01*
X142745236Y-39037831D01*
X142746304Y-39038050D01*
X142747317Y-39038470D01*
X142780316Y-39045034D01*
X142813157Y-39051778D01*
X142814250Y-39051785D01*
X142815322Y-39051998D01*
X142848870Y-39051999D01*
X142882492Y-39052207D01*
X142883568Y-39052000D01*
X142884661Y-39052000D01*
X142917532Y-39045462D01*
X142933518Y-39042385D01*
X142934566Y-39042074D01*
X142952667Y-39038474D01*
X142967710Y-39032243D01*
X148268081Y-37460100D01*
X146962393Y-42998020D01*
X146957913Y-43010100D01*
X146954456Y-43031685D01*
X146953426Y-43036054D01*
X146951720Y-43048768D01*
X146946948Y-43078565D01*
X146947117Y-43083073D01*
X146946516Y-43087555D01*
X146948418Y-43117705D01*
X146949550Y-43147854D01*
X146950597Y-43152248D01*
X146950881Y-43156754D01*
X146958621Y-43185929D01*
X146965619Y-43215303D01*
X146967503Y-43219408D01*
X146968661Y-43223774D01*
X146981952Y-43250894D01*
X146994539Y-43278322D01*
X146997186Y-43281979D01*
X146999175Y-43286037D01*
X147017505Y-43310047D01*
X147035198Y-43334489D01*
X147038508Y-43337559D01*
X147041249Y-43341150D01*
X147063893Y-43361107D01*
X147086032Y-43381644D01*
X147089881Y-43384012D01*
X147093267Y-43386996D01*
X147119363Y-43402149D01*
X147130290Y-43408871D01*
X147134326Y-43410837D01*
X147153230Y-43421814D01*
X147165418Y-43425985D01*
X152430893Y-45991216D01*
X147178381Y-49341956D01*
X147166055Y-49347891D01*
X147149224Y-49360556D01*
X147146111Y-49362542D01*
X147135407Y-49370953D01*
X147110651Y-49389582D01*
X147108174Y-49392353D01*
X147105254Y-49394648D01*
X147085097Y-49418174D01*
X147064445Y-49441281D01*
X147062557Y-49444481D01*
X147060140Y-49447302D01*
X147044963Y-49474304D01*
X147029212Y-49501001D01*
X147027984Y-49504510D01*
X147026165Y-49507746D01*
X147016548Y-49537187D01*
X147006308Y-49566446D01*
X147005788Y-49570125D01*
X147004635Y-49573656D01*
X147000946Y-49604409D01*
X146996611Y-49635103D01*
X146996819Y-49638814D01*
X146996377Y-49642501D01*
X146998758Y-49673374D01*
X147000495Y-49704331D01*
X147001424Y-49707931D01*
X147001709Y-49711633D01*
X147010068Y-49741450D01*
X147013471Y-49754647D01*
X147014740Y-49758117D01*
X147020425Y-49778397D01*
X147026616Y-49790595D01*
X149241466Y-55847532D01*
X142889581Y-54259562D01*
X142860347Y-54251483D01*
X142838683Y-54249893D01*
X142817193Y-54246715D01*
X142804183Y-54247360D01*
X142791196Y-54246407D01*
X142769636Y-54249074D01*
X142747941Y-54250150D01*
X142735311Y-54253320D01*
X142722382Y-54254919D01*
X142701757Y-54261741D01*
X142680689Y-54267028D01*
X142668917Y-54272602D01*
X142656552Y-54276692D01*
X142637660Y-54287403D01*
X142618022Y-54296702D01*
X142607561Y-54304468D01*
X142596234Y-54310890D01*
X142579791Y-54325084D01*
X142562348Y-54338033D01*
X142553607Y-54347686D01*
X142543746Y-54356198D01*
X142530386Y-54373330D01*
X142515807Y-54389430D01*
X142509115Y-54400606D01*
X142501107Y-54410875D01*
X142491350Y-54430276D01*
X142480187Y-54448919D01*
X142475804Y-54461188D01*
X142469953Y-54472821D01*
X142464166Y-54493760D01*
X142456858Y-54514215D01*
X142454953Y-54527097D01*
X142451483Y-54539653D01*
X142449893Y-54561318D01*
X142446715Y-54582807D01*
X142447360Y-54595817D01*
X142446407Y-54608804D01*
X142449074Y-54630364D01*
X142450150Y-54652059D01*
X142453320Y-54664689D01*
X142454919Y-54677618D01*
X142461741Y-54698243D01*
X142467028Y-54719311D01*
X142472602Y-54731083D01*
X142476692Y-54743448D01*
X142487404Y-54762342D01*
X142496702Y-54781978D01*
X142514779Y-54806328D01*
X145941945Y-59668899D01*
X145886004Y-59642429D01*
X145611816Y-59573700D01*
X145329488Y-59559783D01*
X145049870Y-59601213D01*
X144783708Y-59696397D01*
X144658486Y-59763329D01*
X144586903Y-60007298D01*
X145400000Y-60820395D01*
X145414143Y-60806253D01*
X145593748Y-60985858D01*
X145579605Y-61000000D01*
X146392702Y-61813097D01*
X146636671Y-61741514D01*
X146757571Y-61486004D01*
X146826300Y-61211816D01*
X146839576Y-60942486D01*
X157544254Y-76130616D01*
X152255727Y-76397265D01*
X152244579Y-76396339D01*
X152221174Y-76399007D01*
X152215005Y-76399318D01*
X152204005Y-76400964D01*
X152175687Y-76404192D01*
X152169767Y-76406087D01*
X152163615Y-76407008D01*
X152136782Y-76416648D01*
X152109651Y-76425335D01*
X152104214Y-76428349D01*
X152098361Y-76430452D01*
X152073931Y-76445138D01*
X152049009Y-76458954D01*
X152044264Y-76462971D01*
X152038933Y-76466176D01*
X152017833Y-76485349D01*
X151996090Y-76503758D01*
X151992222Y-76508622D01*
X151987617Y-76512806D01*
X151970657Y-76535736D01*
X151952930Y-76558025D01*
X151950085Y-76563549D01*
X151946385Y-76568552D01*
X151934229Y-76594341D01*
X151921185Y-76619670D01*
X151919471Y-76625647D01*
X151916820Y-76631272D01*
X151909930Y-76658929D01*
X151902077Y-76686322D01*
X151901563Y-76692518D01*
X151900059Y-76698553D01*
X151898697Y-76727025D01*
X151896339Y-76755421D01*
X151897043Y-76761599D01*
X151896746Y-76767811D01*
X151900965Y-76796004D01*
X151904192Y-76824313D01*
X151906087Y-76830233D01*
X151907008Y-76836385D01*
X151916648Y-76863218D01*
X151925335Y-76890349D01*
X151928349Y-76895786D01*
X151930452Y-76901639D01*
X151945132Y-76926059D01*
X151950529Y-76935795D01*
X151954043Y-76940884D01*
X151966176Y-76961067D01*
X151973698Y-76969345D01*
X167010327Y-98743167D01*
X155854254Y-99546782D01*
X155849232Y-99546299D01*
X155819728Y-99549270D01*
X155807463Y-99550153D01*
X155802518Y-99551002D01*
X155780242Y-99553245D01*
X155768428Y-99556857D01*
X155756250Y-99558948D01*
X155735349Y-99566969D01*
X155713934Y-99573516D01*
X155703047Y-99579366D01*
X155691516Y-99583791D01*
X155672580Y-99595736D01*
X155652855Y-99606335D01*
X155643322Y-99614193D01*
X155632871Y-99620786D01*
X155616626Y-99636199D01*
X155599351Y-99650439D01*
X155591536Y-99660004D01*
X155582571Y-99668510D01*
X155569644Y-99686798D01*
X155555481Y-99704133D01*
X155549681Y-99715041D01*
X155542549Y-99725131D01*
X155533441Y-99745583D01*
X155522928Y-99765355D01*
X155519366Y-99777188D01*
X155514341Y-99788473D01*
X155509398Y-99810307D01*
X155502944Y-99831751D01*
X155501760Y-99844048D01*
X155499032Y-99856099D01*
X155498444Y-99878488D01*
X155496299Y-99900768D01*
X155497536Y-99913058D01*
X155497212Y-99925412D01*
X155501002Y-99947483D01*
X155503245Y-99969758D01*
X155506857Y-99981572D01*
X155508948Y-99993750D01*
X155516969Y-100014651D01*
X155523516Y-100036066D01*
X155529365Y-100046952D01*
X155533791Y-100058484D01*
X155545738Y-100077422D01*
X155548111Y-100081839D01*
X155554957Y-100092037D01*
X155570786Y-100117129D01*
X155574261Y-100120791D01*
X174409164Y-128176952D01*
X167416724Y-128496868D01*
X167414923Y-128496613D01*
X167382101Y-128498452D01*
X167366639Y-128499159D01*
X167364853Y-128499418D01*
X167345694Y-128500491D01*
X167330615Y-128504379D01*
X167315214Y-128506610D01*
X167297135Y-128513010D01*
X167278552Y-128517801D01*
X167264522Y-128524555D01*
X167249851Y-128529749D01*
X167233365Y-128539555D01*
X167216077Y-128547878D01*
X167203635Y-128557239D01*
X167190258Y-128565196D01*
X167176002Y-128578030D01*
X167160670Y-128589565D01*
X167150295Y-128601171D01*
X167138725Y-128611587D01*
X167127246Y-128626956D01*
X167114460Y-128641260D01*
X167106547Y-128654671D01*
X167097234Y-128667140D01*
X167088976Y-128684450D01*
X167079223Y-128700978D01*
X167074078Y-128715676D01*
X167067377Y-128729721D01*
X167062654Y-128748311D01*
X167056314Y-128766421D01*
X167054136Y-128781833D01*
X167050302Y-128796924D01*
X167049296Y-128816090D01*
X167046613Y-128835077D01*
X167047483Y-128850615D01*
X167046667Y-128866165D01*
X167049418Y-128885151D01*
X167050491Y-128904306D01*
X167054378Y-128919384D01*
X167056610Y-128934786D01*
X167063010Y-128952865D01*
X167067801Y-128971448D01*
X167074555Y-128985477D01*
X167079749Y-129000149D01*
X167089556Y-129016636D01*
X167090341Y-129018267D01*
X167098409Y-129031519D01*
X167115196Y-129059742D01*
X167116412Y-129061093D01*
X184123403Y-156997651D01*
X143010533Y-156974708D01*
X143226920Y-156871641D01*
X143460269Y-156697588D01*
X143655178Y-156481355D01*
X143804157Y-156231252D01*
X143821418Y-156182592D01*
X143821418Y-156450000D01*
X143827732Y-156514103D01*
X143846430Y-156575743D01*
X143876794Y-156632550D01*
X143917657Y-156682343D01*
X143967450Y-156723206D01*
X144024257Y-156753570D01*
X144085897Y-156772268D01*
X144150000Y-156778582D01*
X145850000Y-156778582D01*
X145914103Y-156772268D01*
X145975743Y-156753570D01*
X146032550Y-156723206D01*
X146082343Y-156682343D01*
X146123206Y-156632550D01*
X146153570Y-156575743D01*
X146172268Y-156514103D01*
X146178582Y-156450000D01*
X146178582Y-154750000D01*
X146172268Y-154685897D01*
X146153570Y-154624257D01*
X146123206Y-154567450D01*
X146082343Y-154517657D01*
X146032550Y-154476794D01*
X145975743Y-154446430D01*
X145914103Y-154427732D01*
X145850000Y-154421418D01*
X144150000Y-154421418D01*
X144085897Y-154427732D01*
X144024257Y-154446430D01*
X143967450Y-154476794D01*
X143917657Y-154517657D01*
X143876794Y-154567450D01*
X143846430Y-154624257D01*
X143827732Y-154685897D01*
X143821418Y-154750000D01*
X143821418Y-155017408D01*
X143804157Y-154968748D01*
X143655178Y-154718645D01*
X143460269Y-154502412D01*
X143226920Y-154328359D01*
X142964099Y-154203175D01*
X142816890Y-154158524D01*
X142587000Y-154279845D01*
X142587000Y-155473000D01*
X142607000Y-155473000D01*
X142607000Y-155727000D01*
X142587000Y-155727000D01*
X142587000Y-155747000D01*
X142333000Y-155747000D01*
X142333000Y-155727000D01*
X142313000Y-155727000D01*
X142313000Y-155473000D01*
X142333000Y-155473000D01*
X142333000Y-154279845D01*
X142103110Y-154158524D01*
X141955901Y-154203175D01*
X141693080Y-154328359D01*
X141547001Y-154437318D01*
X141547001Y-150517205D01*
X141549188Y-150495000D01*
X141540461Y-150406393D01*
X141522646Y-150347667D01*
X141514615Y-150321191D01*
X141472644Y-150242668D01*
X141416160Y-150173842D01*
X141398913Y-150159688D01*
X137924317Y-146685093D01*
X137927000Y-146671603D01*
X137927000Y-146528397D01*
X141873000Y-146528397D01*
X141873000Y-146671603D01*
X141900938Y-146812058D01*
X141955741Y-146944364D01*
X142035302Y-147063436D01*
X142136564Y-147164698D01*
X142255636Y-147244259D01*
X142387942Y-147299062D01*
X142528397Y-147327000D01*
X142671603Y-147327000D01*
X142812058Y-147299062D01*
X142944364Y-147244259D01*
X143063436Y-147164698D01*
X143164698Y-147063436D01*
X143244259Y-146944364D01*
X143299062Y-146812058D01*
X143327000Y-146671603D01*
X143327000Y-146528397D01*
X143299062Y-146387942D01*
X143244259Y-146255636D01*
X143164698Y-146136564D01*
X143063436Y-146035302D01*
X142944364Y-145955741D01*
X142812058Y-145900938D01*
X142671603Y-145873000D01*
X142528397Y-145873000D01*
X142387942Y-145900938D01*
X142255636Y-145955741D01*
X142136564Y-146035302D01*
X142035302Y-146136564D01*
X141955741Y-146255636D01*
X141900938Y-146387942D01*
X141873000Y-146528397D01*
X137927000Y-146528397D01*
X137899062Y-146387942D01*
X137844259Y-146255636D01*
X137764698Y-146136564D01*
X137663436Y-146035302D01*
X137544364Y-145955741D01*
X137412058Y-145900938D01*
X137271603Y-145873000D01*
X137128397Y-145873000D01*
X136987942Y-145900938D01*
X136855636Y-145955741D01*
X136736564Y-146035302D01*
X136635302Y-146136564D01*
X136555741Y-146255636D01*
X136500938Y-146387942D01*
X136473000Y-146528397D01*
X136473000Y-146671603D01*
X136500938Y-146812058D01*
X136555741Y-146944364D01*
X136635302Y-147063436D01*
X136736564Y-147164698D01*
X136855636Y-147244259D01*
X136987942Y-147299062D01*
X137128397Y-147327000D01*
X137271603Y-147327000D01*
X137285093Y-147324317D01*
X140643001Y-150682226D01*
X140643002Y-154667528D01*
X140477519Y-154556956D01*
X140263318Y-154468231D01*
X140035924Y-154423000D01*
X139804076Y-154423000D01*
X139576682Y-154468231D01*
X139471162Y-154511939D01*
X135255323Y-150296100D01*
X135241159Y-150278841D01*
X135172333Y-150222357D01*
X135093810Y-150180386D01*
X135008607Y-150154540D01*
X134942205Y-150148000D01*
X134920000Y-150145813D01*
X134897795Y-150148000D01*
X118827224Y-150148000D01*
X111089793Y-142410569D01*
X111123690Y-142328734D01*
X111167000Y-142111000D01*
X111167000Y-141889000D01*
X111123690Y-141671266D01*
X111038734Y-141466165D01*
X110945747Y-141326999D01*
X119294253Y-141326999D01*
X119201266Y-141466165D01*
X119116310Y-141671266D01*
X119073000Y-141889000D01*
X119073000Y-142111000D01*
X119116310Y-142328734D01*
X119201266Y-142533835D01*
X119324602Y-142718421D01*
X119481579Y-142875398D01*
X119666165Y-142998734D01*
X119871266Y-143083690D01*
X120089000Y-143127000D01*
X120311000Y-143127000D01*
X120528734Y-143083690D01*
X120733835Y-142998734D01*
X120918421Y-142875398D01*
X121075398Y-142718421D01*
X121198734Y-142533835D01*
X121232631Y-142452000D01*
X146012777Y-142452000D01*
X152864681Y-149303905D01*
X152878841Y-149321159D01*
X152947667Y-149377643D01*
X153026190Y-149419614D01*
X153111392Y-149445460D01*
X153200000Y-149454187D01*
X153222205Y-149452000D01*
X165490967Y-149452000D01*
X165513172Y-149454187D01*
X165535377Y-149452000D01*
X165601779Y-149445460D01*
X165686982Y-149419614D01*
X165765505Y-149377643D01*
X165834331Y-149321159D01*
X165848495Y-149303900D01*
X171003906Y-144148490D01*
X171021159Y-144134331D01*
X171077643Y-144065505D01*
X171119614Y-143986982D01*
X171145460Y-143901779D01*
X171152000Y-143835377D01*
X171152000Y-143835376D01*
X171154187Y-143813172D01*
X171152000Y-143790967D01*
X171152000Y-143782809D01*
X171274991Y-143700629D01*
X171400629Y-143574991D01*
X171499342Y-143427257D01*
X171567336Y-143263104D01*
X171602000Y-143088839D01*
X171602000Y-142911161D01*
X171567336Y-142736896D01*
X171499342Y-142572743D01*
X171400629Y-142425009D01*
X171274991Y-142299371D01*
X171127257Y-142200658D01*
X170963104Y-142132664D01*
X170788839Y-142098000D01*
X170611161Y-142098000D01*
X170436896Y-142132664D01*
X170272743Y-142200658D01*
X170125009Y-142299371D01*
X170065000Y-142359380D01*
X170004991Y-142299371D01*
X169857257Y-142200658D01*
X169693104Y-142132664D01*
X169518839Y-142098000D01*
X169341161Y-142098000D01*
X169166896Y-142132664D01*
X169002743Y-142200658D01*
X168855009Y-142299371D01*
X168729371Y-142425009D01*
X168630658Y-142572743D01*
X168562664Y-142736896D01*
X168550237Y-142799368D01*
X168349605Y-143000000D01*
X168550237Y-143200632D01*
X168562664Y-143263104D01*
X168630658Y-143427257D01*
X168729371Y-143574991D01*
X168855009Y-143700629D01*
X169002743Y-143799342D01*
X169166896Y-143867336D01*
X169341161Y-143902000D01*
X169518839Y-143902000D01*
X169693104Y-143867336D01*
X169857257Y-143799342D01*
X170004991Y-143700629D01*
X170065000Y-143640620D01*
X170125009Y-143700629D01*
X170153969Y-143719979D01*
X165325949Y-148548000D01*
X153387224Y-148548000D01*
X150631926Y-145792702D01*
X153886903Y-145792702D01*
X153958486Y-146036671D01*
X154213996Y-146157571D01*
X154488184Y-146226300D01*
X154770512Y-146240217D01*
X155050130Y-146198787D01*
X155316292Y-146103603D01*
X155441514Y-146036671D01*
X155513097Y-145792702D01*
X154700000Y-144979605D01*
X153886903Y-145792702D01*
X150631926Y-145792702D01*
X149709736Y-144870512D01*
X153259783Y-144870512D01*
X153301213Y-145150130D01*
X153396397Y-145416292D01*
X153463329Y-145541514D01*
X153707298Y-145613097D01*
X154520395Y-144800000D01*
X154879605Y-144800000D01*
X155692702Y-145613097D01*
X155936671Y-145541514D01*
X156057571Y-145286004D01*
X156107763Y-145085767D01*
X156116310Y-145128734D01*
X156201266Y-145333835D01*
X156324602Y-145518421D01*
X156481579Y-145675398D01*
X156666165Y-145798734D01*
X156871266Y-145883690D01*
X157089000Y-145927000D01*
X157311000Y-145927000D01*
X157528734Y-145883690D01*
X157733835Y-145798734D01*
X157918421Y-145675398D01*
X158075398Y-145518421D01*
X158198734Y-145333835D01*
X158283690Y-145128734D01*
X158327000Y-144911000D01*
X158327000Y-144689000D01*
X158283690Y-144471266D01*
X158198734Y-144266165D01*
X158075398Y-144081579D01*
X157918421Y-143924602D01*
X157733835Y-143801266D01*
X157528734Y-143716310D01*
X157311000Y-143673000D01*
X157089000Y-143673000D01*
X156871266Y-143716310D01*
X156666165Y-143801266D01*
X156481579Y-143924602D01*
X156324602Y-144081579D01*
X156201266Y-144266165D01*
X156116310Y-144471266D01*
X156108084Y-144512619D01*
X156098787Y-144449870D01*
X156003603Y-144183708D01*
X155936671Y-144058486D01*
X155692702Y-143986903D01*
X154879605Y-144800000D01*
X154520395Y-144800000D01*
X153707298Y-143986903D01*
X153463329Y-144058486D01*
X153342429Y-144313996D01*
X153273700Y-144588184D01*
X153259783Y-144870512D01*
X149709736Y-144870512D01*
X148646522Y-143807298D01*
X153886903Y-143807298D01*
X154700000Y-144620395D01*
X155513097Y-143807298D01*
X155441514Y-143563329D01*
X155186004Y-143442429D01*
X154911816Y-143373700D01*
X154629488Y-143359783D01*
X154349870Y-143401213D01*
X154083708Y-143496397D01*
X153958486Y-143563329D01*
X153886903Y-143807298D01*
X148646522Y-143807298D01*
X146535323Y-141696100D01*
X146521159Y-141678841D01*
X146452333Y-141622357D01*
X146373810Y-141580386D01*
X146288607Y-141554540D01*
X146222205Y-141548000D01*
X146200000Y-141545813D01*
X146177795Y-141548000D01*
X121232631Y-141548000D01*
X121198734Y-141466165D01*
X121105747Y-141326999D01*
X134367798Y-141326999D01*
X134390003Y-141329186D01*
X134412208Y-141326999D01*
X134478610Y-141320459D01*
X134563813Y-141294613D01*
X134642336Y-141252642D01*
X134711162Y-141196158D01*
X134725326Y-141178899D01*
X138815226Y-137089000D01*
X145433000Y-137089000D01*
X145433000Y-137311000D01*
X145476310Y-137528734D01*
X145561266Y-137733835D01*
X145684602Y-137918421D01*
X145841579Y-138075398D01*
X146026165Y-138198734D01*
X146231266Y-138283690D01*
X146449000Y-138327000D01*
X146671000Y-138327000D01*
X146888734Y-138283690D01*
X147093835Y-138198734D01*
X147278421Y-138075398D01*
X147435398Y-137918421D01*
X147558734Y-137733835D01*
X147592631Y-137652000D01*
X158412777Y-137652000D01*
X164064681Y-143303905D01*
X164078841Y-143321159D01*
X164147667Y-143377643D01*
X164226190Y-143419614D01*
X164311392Y-143445460D01*
X164400000Y-143454187D01*
X164422205Y-143452000D01*
X166117191Y-143452000D01*
X166199371Y-143574991D01*
X166325009Y-143700629D01*
X166472743Y-143799342D01*
X166636896Y-143867336D01*
X166811161Y-143902000D01*
X166988839Y-143902000D01*
X167163104Y-143867336D01*
X167248717Y-143831874D01*
X167517731Y-143831874D01*
X167561993Y-144052916D01*
X167779089Y-144151301D01*
X168011208Y-144205442D01*
X168249429Y-144213258D01*
X168484598Y-144174450D01*
X168707677Y-144090509D01*
X168778007Y-144052916D01*
X168822269Y-143831874D01*
X168170000Y-143179605D01*
X167517731Y-143831874D01*
X167248717Y-143831874D01*
X167327257Y-143799342D01*
X167474991Y-143700629D01*
X167600629Y-143574991D01*
X167699342Y-143427257D01*
X167767336Y-143263104D01*
X167777279Y-143213116D01*
X167990395Y-143000000D01*
X167777279Y-142786884D01*
X167767336Y-142736896D01*
X167699342Y-142572743D01*
X167600629Y-142425009D01*
X167474991Y-142299371D01*
X167327257Y-142200658D01*
X167248718Y-142168126D01*
X167517731Y-142168126D01*
X168170000Y-142820395D01*
X168822269Y-142168126D01*
X168778007Y-141947084D01*
X168560911Y-141848699D01*
X168328792Y-141794558D01*
X168090571Y-141786742D01*
X167855402Y-141825550D01*
X167632323Y-141909491D01*
X167561993Y-141947084D01*
X167517731Y-142168126D01*
X167248718Y-142168126D01*
X167163104Y-142132664D01*
X166988839Y-142098000D01*
X166811161Y-142098000D01*
X166636896Y-142132664D01*
X166472743Y-142200658D01*
X166325009Y-142299371D01*
X166199371Y-142425009D01*
X166117191Y-142548000D01*
X164587224Y-142548000D01*
X158935323Y-136896100D01*
X158921159Y-136878841D01*
X158852333Y-136822357D01*
X158773810Y-136780386D01*
X158688607Y-136754540D01*
X158622205Y-136748000D01*
X158600000Y-136745813D01*
X158577795Y-136748000D01*
X147592631Y-136748000D01*
X147558734Y-136666165D01*
X147435398Y-136481579D01*
X147278421Y-136324602D01*
X147093835Y-136201266D01*
X146888734Y-136116310D01*
X146671000Y-136073000D01*
X146449000Y-136073000D01*
X146231266Y-136116310D01*
X146026165Y-136201266D01*
X145841579Y-136324602D01*
X145684602Y-136481579D01*
X145561266Y-136666165D01*
X145476310Y-136871266D01*
X145433000Y-137089000D01*
X138815226Y-137089000D01*
X142903912Y-133000315D01*
X142921159Y-132986161D01*
X142977643Y-132917335D01*
X143019614Y-132838812D01*
X143019614Y-132838811D01*
X143045460Y-132753610D01*
X143054187Y-132665003D01*
X143052000Y-132642798D01*
X143052000Y-117917202D01*
X143054187Y-117894997D01*
X143045460Y-117806390D01*
X143039444Y-117786560D01*
X143019614Y-117721188D01*
X143002410Y-117689000D01*
X149873000Y-117689000D01*
X149873000Y-117911000D01*
X149916310Y-118128734D01*
X150001266Y-118333835D01*
X150124602Y-118518421D01*
X150281579Y-118675398D01*
X150466165Y-118798734D01*
X150671266Y-118883690D01*
X150889000Y-118927000D01*
X151111000Y-118927000D01*
X151328734Y-118883690D01*
X151533835Y-118798734D01*
X151718421Y-118675398D01*
X151875398Y-118518421D01*
X151998734Y-118333835D01*
X152032631Y-118252000D01*
X154577795Y-118252000D01*
X154600000Y-118254187D01*
X154622205Y-118252000D01*
X154688607Y-118245460D01*
X154773810Y-118219614D01*
X154852333Y-118177643D01*
X154921159Y-118121159D01*
X154935323Y-118103900D01*
X158803906Y-114235318D01*
X158821159Y-114221159D01*
X158877643Y-114152333D01*
X158919614Y-114073810D01*
X158945460Y-113988607D01*
X158952000Y-113922205D01*
X158952000Y-113922204D01*
X158954187Y-113900000D01*
X158952000Y-113877795D01*
X158952000Y-111782809D01*
X159074991Y-111700629D01*
X159200629Y-111574991D01*
X159299342Y-111427257D01*
X159367336Y-111263104D01*
X159402000Y-111088839D01*
X159402000Y-110911161D01*
X159367336Y-110736896D01*
X159299342Y-110572743D01*
X159200629Y-110425009D01*
X159074991Y-110299371D01*
X158927257Y-110200658D01*
X158763104Y-110132664D01*
X158588839Y-110098000D01*
X158411161Y-110098000D01*
X158236896Y-110132664D01*
X158072743Y-110200658D01*
X157925009Y-110299371D01*
X157865000Y-110359380D01*
X157804991Y-110299371D01*
X157657257Y-110200658D01*
X157493104Y-110132664D01*
X157318839Y-110098000D01*
X157141161Y-110098000D01*
X156966896Y-110132664D01*
X156802743Y-110200658D01*
X156655009Y-110299371D01*
X156529371Y-110425009D01*
X156430658Y-110572743D01*
X156362664Y-110736896D01*
X156350237Y-110799368D01*
X156149605Y-111000000D01*
X156350237Y-111200632D01*
X156362664Y-111263104D01*
X156430658Y-111427257D01*
X156529371Y-111574991D01*
X156655009Y-111700629D01*
X156802743Y-111799342D01*
X156966896Y-111867336D01*
X157141161Y-111902000D01*
X157318839Y-111902000D01*
X157493104Y-111867336D01*
X157657257Y-111799342D01*
X157804991Y-111700629D01*
X157865000Y-111640620D01*
X157925009Y-111700629D01*
X158048001Y-111782810D01*
X158048000Y-113712776D01*
X154412777Y-117348000D01*
X152032631Y-117348000D01*
X151998734Y-117266165D01*
X151875398Y-117081579D01*
X151718421Y-116924602D01*
X151533835Y-116801266D01*
X151328734Y-116716310D01*
X151111000Y-116673000D01*
X150889000Y-116673000D01*
X150671266Y-116716310D01*
X150466165Y-116801266D01*
X150281579Y-116924602D01*
X150124602Y-117081579D01*
X150001266Y-117266165D01*
X149916310Y-117471266D01*
X149873000Y-117689000D01*
X143002410Y-117689000D01*
X142977643Y-117642665D01*
X142921159Y-117573839D01*
X142903911Y-117559684D01*
X136726999Y-111382774D01*
X136726999Y-97689000D01*
X139233000Y-97689000D01*
X139233000Y-97911000D01*
X139276310Y-98128734D01*
X139361266Y-98333835D01*
X139484602Y-98518421D01*
X139641579Y-98675398D01*
X139826165Y-98798734D01*
X140031266Y-98883690D01*
X140249000Y-98927000D01*
X140471000Y-98927000D01*
X140688734Y-98883690D01*
X140770569Y-98849792D01*
X153224681Y-111303905D01*
X153238841Y-111321159D01*
X153307667Y-111377643D01*
X153342363Y-111396188D01*
X153386190Y-111419614D01*
X153471392Y-111445460D01*
X153559999Y-111454187D01*
X153582204Y-111452000D01*
X153917191Y-111452000D01*
X153999371Y-111574991D01*
X154125009Y-111700629D01*
X154272743Y-111799342D01*
X154436896Y-111867336D01*
X154611161Y-111902000D01*
X154788839Y-111902000D01*
X154963104Y-111867336D01*
X155048717Y-111831874D01*
X155317731Y-111831874D01*
X155361993Y-112052916D01*
X155579089Y-112151301D01*
X155811208Y-112205442D01*
X156049429Y-112213258D01*
X156284598Y-112174450D01*
X156507677Y-112090509D01*
X156578007Y-112052916D01*
X156622269Y-111831874D01*
X155970000Y-111179605D01*
X155317731Y-111831874D01*
X155048717Y-111831874D01*
X155127257Y-111799342D01*
X155274991Y-111700629D01*
X155400629Y-111574991D01*
X155499342Y-111427257D01*
X155567336Y-111263104D01*
X155577279Y-111213116D01*
X155790395Y-111000000D01*
X155577279Y-110786884D01*
X155567336Y-110736896D01*
X155499342Y-110572743D01*
X155400629Y-110425009D01*
X155274991Y-110299371D01*
X155127257Y-110200658D01*
X155048718Y-110168126D01*
X155317731Y-110168126D01*
X155970000Y-110820395D01*
X156622269Y-110168126D01*
X156578007Y-109947084D01*
X156360911Y-109848699D01*
X156128792Y-109794558D01*
X155890571Y-109786742D01*
X155655402Y-109825550D01*
X155432323Y-109909491D01*
X155361993Y-109947084D01*
X155317731Y-110168126D01*
X155048718Y-110168126D01*
X154963104Y-110132664D01*
X154788839Y-110098000D01*
X154611161Y-110098000D01*
X154436896Y-110132664D01*
X154272743Y-110200658D01*
X154125009Y-110299371D01*
X153999371Y-110425009D01*
X153917191Y-110548000D01*
X153747224Y-110548000D01*
X141409792Y-98210569D01*
X141417192Y-98192702D01*
X159086903Y-98192702D01*
X159158486Y-98436671D01*
X159413996Y-98557571D01*
X159688184Y-98626300D01*
X159970512Y-98640217D01*
X160250130Y-98598787D01*
X160516292Y-98503603D01*
X160641514Y-98436671D01*
X160713097Y-98192702D01*
X159900000Y-97379605D01*
X159086903Y-98192702D01*
X141417192Y-98192702D01*
X141443690Y-98128734D01*
X141487000Y-97911000D01*
X141487000Y-97689000D01*
X141443690Y-97471266D01*
X141360535Y-97270512D01*
X158459783Y-97270512D01*
X158501213Y-97550130D01*
X158596397Y-97816292D01*
X158663329Y-97941514D01*
X158907298Y-98013097D01*
X159720395Y-97200000D01*
X160079605Y-97200000D01*
X160892702Y-98013097D01*
X161136671Y-97941514D01*
X161257571Y-97686004D01*
X161307763Y-97485767D01*
X161316310Y-97528734D01*
X161401266Y-97733835D01*
X161524602Y-97918421D01*
X161681579Y-98075398D01*
X161866165Y-98198734D01*
X162071266Y-98283690D01*
X162289000Y-98327000D01*
X162511000Y-98327000D01*
X162728734Y-98283690D01*
X162933835Y-98198734D01*
X163118421Y-98075398D01*
X163275398Y-97918421D01*
X163398734Y-97733835D01*
X163483690Y-97528734D01*
X163527000Y-97311000D01*
X163527000Y-97089000D01*
X163483690Y-96871266D01*
X163398734Y-96666165D01*
X163275398Y-96481579D01*
X163118421Y-96324602D01*
X162933835Y-96201266D01*
X162728734Y-96116310D01*
X162511000Y-96073000D01*
X162289000Y-96073000D01*
X162071266Y-96116310D01*
X161866165Y-96201266D01*
X161681579Y-96324602D01*
X161524602Y-96481579D01*
X161401266Y-96666165D01*
X161316310Y-96871266D01*
X161308084Y-96912619D01*
X161298787Y-96849870D01*
X161203603Y-96583708D01*
X161136671Y-96458486D01*
X160892702Y-96386903D01*
X160079605Y-97200000D01*
X159720395Y-97200000D01*
X158907298Y-96386903D01*
X158663329Y-96458486D01*
X158542429Y-96713996D01*
X158473700Y-96988184D01*
X158459783Y-97270512D01*
X141360535Y-97270512D01*
X141358734Y-97266165D01*
X141235398Y-97081579D01*
X141078421Y-96924602D01*
X140893835Y-96801266D01*
X140688734Y-96716310D01*
X140471000Y-96673000D01*
X140249000Y-96673000D01*
X140031266Y-96716310D01*
X139826165Y-96801266D01*
X139641579Y-96924602D01*
X139484602Y-97081579D01*
X139361266Y-97266165D01*
X139276310Y-97471266D01*
X139233000Y-97689000D01*
X136726999Y-97689000D01*
X136726999Y-96207298D01*
X159086903Y-96207298D01*
X159900000Y-97020395D01*
X160713097Y-96207298D01*
X160641514Y-95963329D01*
X160386004Y-95842429D01*
X160111816Y-95773700D01*
X159829488Y-95759783D01*
X159549870Y-95801213D01*
X159283708Y-95896397D01*
X159158486Y-95963329D01*
X159086903Y-96207298D01*
X136726999Y-96207298D01*
X136726999Y-87105747D01*
X136866165Y-87198734D01*
X137071266Y-87283690D01*
X137289000Y-87327000D01*
X137511000Y-87327000D01*
X137728734Y-87283690D01*
X137933835Y-87198734D01*
X138118421Y-87075398D01*
X138275398Y-86918421D01*
X138398734Y-86733835D01*
X138432631Y-86652000D01*
X143777795Y-86652000D01*
X143800000Y-86654187D01*
X143822205Y-86652000D01*
X143888607Y-86645460D01*
X143973810Y-86619614D01*
X144052333Y-86577643D01*
X144121159Y-86521159D01*
X144135323Y-86503900D01*
X150003906Y-80635318D01*
X150021159Y-80621159D01*
X150077643Y-80552333D01*
X150119614Y-80473810D01*
X150145460Y-80388607D01*
X150152000Y-80322205D01*
X150152000Y-80322204D01*
X150154187Y-80300001D01*
X150152000Y-80277796D01*
X150152000Y-79982809D01*
X150274991Y-79900629D01*
X150400629Y-79774991D01*
X150499342Y-79627257D01*
X150567336Y-79463104D01*
X150602000Y-79288839D01*
X150602000Y-79111161D01*
X150567336Y-78936896D01*
X150499342Y-78772743D01*
X150400629Y-78625009D01*
X150274991Y-78499371D01*
X150127257Y-78400658D01*
X149963104Y-78332664D01*
X149788839Y-78298000D01*
X149611161Y-78298000D01*
X149436896Y-78332664D01*
X149272743Y-78400658D01*
X149125009Y-78499371D01*
X149065000Y-78559380D01*
X149004991Y-78499371D01*
X148857257Y-78400658D01*
X148693104Y-78332664D01*
X148518839Y-78298000D01*
X148341161Y-78298000D01*
X148166896Y-78332664D01*
X148002743Y-78400658D01*
X147855009Y-78499371D01*
X147729371Y-78625009D01*
X147630658Y-78772743D01*
X147562664Y-78936896D01*
X147550237Y-78999368D01*
X147349605Y-79200000D01*
X147550237Y-79400632D01*
X147562664Y-79463104D01*
X147630658Y-79627257D01*
X147729371Y-79774991D01*
X147855009Y-79900629D01*
X148002743Y-79999342D01*
X148166896Y-80067336D01*
X148341161Y-80102000D01*
X148518839Y-80102000D01*
X148693104Y-80067336D01*
X148857257Y-79999342D01*
X149004991Y-79900629D01*
X149065000Y-79840620D01*
X149125009Y-79900629D01*
X149248000Y-79982809D01*
X149248000Y-80112776D01*
X143612777Y-85748000D01*
X138432631Y-85748000D01*
X138398734Y-85666165D01*
X138275398Y-85481579D01*
X138118421Y-85324602D01*
X137933835Y-85201266D01*
X137728734Y-85116310D01*
X137511000Y-85073000D01*
X137289000Y-85073000D01*
X137071266Y-85116310D01*
X136866165Y-85201266D01*
X136726999Y-85294253D01*
X136726999Y-79111161D01*
X144998000Y-79111161D01*
X144998000Y-79288839D01*
X145032664Y-79463104D01*
X145100658Y-79627257D01*
X145199371Y-79774991D01*
X145325009Y-79900629D01*
X145472743Y-79999342D01*
X145636896Y-80067336D01*
X145811161Y-80102000D01*
X145988839Y-80102000D01*
X146163104Y-80067336D01*
X146248717Y-80031874D01*
X146517731Y-80031874D01*
X146561993Y-80252916D01*
X146779089Y-80351301D01*
X147011208Y-80405442D01*
X147249429Y-80413258D01*
X147484598Y-80374450D01*
X147707677Y-80290509D01*
X147778007Y-80252916D01*
X147822269Y-80031874D01*
X147170000Y-79379605D01*
X146517731Y-80031874D01*
X146248717Y-80031874D01*
X146327257Y-79999342D01*
X146474991Y-79900629D01*
X146600629Y-79774991D01*
X146699342Y-79627257D01*
X146767336Y-79463104D01*
X146777279Y-79413116D01*
X146990395Y-79200000D01*
X146976253Y-79185858D01*
X147155858Y-79006253D01*
X147170000Y-79020395D01*
X147822269Y-78368126D01*
X147778007Y-78147084D01*
X147560911Y-78048699D01*
X147328792Y-77994558D01*
X147090571Y-77986742D01*
X146855402Y-78025550D01*
X146632323Y-78109491D01*
X146561993Y-78147084D01*
X146517732Y-78368124D01*
X146400500Y-78250892D01*
X146352000Y-78299392D01*
X146352000Y-70887223D01*
X147189431Y-70049793D01*
X147271266Y-70083690D01*
X147489000Y-70127000D01*
X147711000Y-70127000D01*
X147928734Y-70083690D01*
X148133835Y-69998734D01*
X148318421Y-69875398D01*
X148475398Y-69718421D01*
X148598734Y-69533835D01*
X148683690Y-69328734D01*
X148727000Y-69111000D01*
X148727000Y-68889000D01*
X148683690Y-68671266D01*
X148598734Y-68466165D01*
X148475398Y-68281579D01*
X148318421Y-68124602D01*
X148133835Y-68001266D01*
X147928734Y-67916310D01*
X147711000Y-67873000D01*
X147489000Y-67873000D01*
X147271266Y-67916310D01*
X147066165Y-68001266D01*
X146881579Y-68124602D01*
X146724602Y-68281579D01*
X146601266Y-68466165D01*
X146516310Y-68671266D01*
X146473000Y-68889000D01*
X146473000Y-69111000D01*
X146516310Y-69328734D01*
X146550207Y-69410569D01*
X145596096Y-70364681D01*
X145578842Y-70378841D01*
X145522358Y-70447667D01*
X145480386Y-70526191D01*
X145454540Y-70611393D01*
X145445813Y-70700000D01*
X145448001Y-70722215D01*
X145448000Y-78417191D01*
X145325009Y-78499371D01*
X145199371Y-78625009D01*
X145100658Y-78772743D01*
X145032664Y-78936896D01*
X144998000Y-79111161D01*
X136726999Y-79111161D01*
X136726999Y-69879020D01*
X136906165Y-69998734D01*
X137111266Y-70083690D01*
X137329000Y-70127000D01*
X137551000Y-70127000D01*
X137768734Y-70083690D01*
X137973835Y-69998734D01*
X138158421Y-69875398D01*
X138315398Y-69718421D01*
X138438734Y-69533835D01*
X138523690Y-69328734D01*
X138567000Y-69111000D01*
X138567000Y-68889000D01*
X138523690Y-68671266D01*
X138438734Y-68466165D01*
X138315398Y-68281579D01*
X138158421Y-68124602D01*
X137973835Y-68001266D01*
X137892000Y-67967369D01*
X137892000Y-66947223D01*
X140301905Y-64537319D01*
X140319158Y-64523160D01*
X140375642Y-64454334D01*
X140417613Y-64375811D01*
X140443459Y-64290608D01*
X140449999Y-64224206D01*
X140449999Y-64224205D01*
X140452186Y-64202001D01*
X140449999Y-64179796D01*
X140449999Y-60889000D01*
X141773000Y-60889000D01*
X141773000Y-61111000D01*
X141816310Y-61328734D01*
X141901266Y-61533835D01*
X142024602Y-61718421D01*
X142181579Y-61875398D01*
X142366165Y-61998734D01*
X142571266Y-62083690D01*
X142789000Y-62127000D01*
X143011000Y-62127000D01*
X143228734Y-62083690D01*
X143433835Y-61998734D01*
X143442862Y-61992702D01*
X144586903Y-61992702D01*
X144658486Y-62236671D01*
X144913996Y-62357571D01*
X145188184Y-62426300D01*
X145470512Y-62440217D01*
X145750130Y-62398787D01*
X146016292Y-62303603D01*
X146141514Y-62236671D01*
X146213097Y-61992702D01*
X145400000Y-61179605D01*
X144586903Y-61992702D01*
X143442862Y-61992702D01*
X143618421Y-61875398D01*
X143775398Y-61718421D01*
X143898734Y-61533835D01*
X143983690Y-61328734D01*
X143991916Y-61287381D01*
X144001213Y-61350130D01*
X144096397Y-61616292D01*
X144163329Y-61741514D01*
X144407298Y-61813097D01*
X145220395Y-61000000D01*
X144407298Y-60186903D01*
X144163329Y-60258486D01*
X144042429Y-60513996D01*
X143992237Y-60714233D01*
X143983690Y-60671266D01*
X143898734Y-60466165D01*
X143775398Y-60281579D01*
X143618421Y-60124602D01*
X143433835Y-60001266D01*
X143228734Y-59916310D01*
X143011000Y-59873000D01*
X142789000Y-59873000D01*
X142571266Y-59916310D01*
X142366165Y-60001266D01*
X142181579Y-60124602D01*
X142024602Y-60281579D01*
X141901266Y-60466165D01*
X141816310Y-60671266D01*
X141773000Y-60889000D01*
X140449999Y-60889000D01*
X140449999Y-49351226D01*
X141274226Y-48527000D01*
X142600000Y-48527000D01*
X142624776Y-48524560D01*
X142648601Y-48517333D01*
X142670557Y-48505597D01*
X142689803Y-48489803D01*
X142705597Y-48470557D01*
X142717333Y-48448601D01*
X142724560Y-48424776D01*
X142727000Y-48400000D01*
X142727000Y-46400000D01*
X142724560Y-46375224D01*
X142717333Y-46351399D01*
X142705597Y-46329443D01*
X142689803Y-46310197D01*
X142670557Y-46294403D01*
X142648601Y-46282667D01*
X142624776Y-46275440D01*
X142600000Y-46273000D01*
X139614534Y-46273000D01*
X139560911Y-46248699D01*
X139328792Y-46194558D01*
X139090571Y-46186742D01*
X138855402Y-46225550D01*
X138729300Y-46273000D01*
X136800000Y-46273000D01*
X136775224Y-46275440D01*
X136751399Y-46282667D01*
X136729443Y-46294403D01*
X136710197Y-46310197D01*
X136694403Y-46329443D01*
X136682667Y-46351399D01*
X136675440Y-46375224D01*
X136673000Y-46400000D01*
X136673000Y-48400000D01*
X136675440Y-48424776D01*
X136682667Y-48448601D01*
X136694403Y-48470557D01*
X136710197Y-48489803D01*
X136729443Y-48505597D01*
X136751399Y-48517333D01*
X136775224Y-48524560D01*
X136800000Y-48527000D01*
X138325774Y-48527000D01*
X139095990Y-49297217D01*
X139095989Y-63828377D01*
X135971095Y-66953272D01*
X135953841Y-66967432D01*
X135916992Y-67012333D01*
X135897357Y-67036258D01*
X135855385Y-67114782D01*
X135829539Y-67199984D01*
X135820812Y-67288591D01*
X135823000Y-67310806D01*
X135822999Y-111547792D01*
X135820812Y-111569997D01*
X135822999Y-111592201D01*
X135829539Y-111658603D01*
X135855385Y-111743806D01*
X135897356Y-111822329D01*
X135953840Y-111891156D01*
X135971099Y-111905320D01*
X140738777Y-116673000D01*
X140729000Y-116673000D01*
X140511266Y-116716310D01*
X140306165Y-116801266D01*
X140121579Y-116924602D01*
X139964602Y-117081579D01*
X139841266Y-117266165D01*
X139807369Y-117348000D01*
X117709032Y-117348000D01*
X117686827Y-117345813D01*
X117598220Y-117354540D01*
X117513018Y-117380386D01*
X117434495Y-117422357D01*
X117365669Y-117478841D01*
X117351514Y-117496089D01*
X112596096Y-122251509D01*
X112578842Y-122265669D01*
X112522358Y-122334495D01*
X112480386Y-122413019D01*
X112454540Y-122498221D01*
X112445813Y-122586828D01*
X112448001Y-122609043D01*
X112448001Y-122617190D01*
X112325009Y-122699371D01*
X112199371Y-122825009D01*
X112100658Y-122972743D01*
X112032664Y-123136896D01*
X111998000Y-123311161D01*
X111998000Y-123488839D01*
X112032664Y-123663104D01*
X112100658Y-123827257D01*
X112199371Y-123974991D01*
X112325009Y-124100629D01*
X112472743Y-124199342D01*
X112636896Y-124267336D01*
X112811161Y-124302000D01*
X112988839Y-124302000D01*
X113163104Y-124267336D01*
X113248717Y-124231874D01*
X113517731Y-124231874D01*
X113561993Y-124452916D01*
X113779089Y-124551301D01*
X114011208Y-124605442D01*
X114249429Y-124613258D01*
X114484598Y-124574450D01*
X114707677Y-124490509D01*
X114778007Y-124452916D01*
X114822269Y-124231874D01*
X114170000Y-123579605D01*
X113517731Y-124231874D01*
X113248717Y-124231874D01*
X113327257Y-124199342D01*
X113474991Y-124100629D01*
X113600629Y-123974991D01*
X113699342Y-123827257D01*
X113767336Y-123663104D01*
X113777279Y-123613116D01*
X113990395Y-123400000D01*
X113976253Y-123385858D01*
X114155858Y-123206253D01*
X114170000Y-123220395D01*
X114822269Y-122568126D01*
X114778007Y-122347084D01*
X114560911Y-122248699D01*
X114328792Y-122194558D01*
X114090571Y-122186742D01*
X113909415Y-122216637D01*
X117874053Y-118252000D01*
X139807369Y-118252000D01*
X139841266Y-118333835D01*
X139964602Y-118518421D01*
X140121579Y-118675398D01*
X140306165Y-118798734D01*
X140511266Y-118883690D01*
X140729000Y-118927000D01*
X140951000Y-118927000D01*
X141168734Y-118883690D01*
X141373835Y-118798734D01*
X141558421Y-118675398D01*
X141715398Y-118518421D01*
X141838734Y-118333835D01*
X141923690Y-118128734D01*
X141967000Y-117911000D01*
X141967000Y-117901223D01*
X142148001Y-118082224D01*
X142148000Y-132477777D01*
X137527000Y-137098778D01*
X137527000Y-137089000D01*
X137483690Y-136871266D01*
X137398734Y-136666165D01*
X137275398Y-136481579D01*
X137118421Y-136324602D01*
X136933835Y-136201266D01*
X136852000Y-136167369D01*
X136852000Y-133622204D01*
X136854187Y-133599999D01*
X136845460Y-133511392D01*
X136839444Y-133491562D01*
X136819614Y-133426190D01*
X136777643Y-133347667D01*
X136721159Y-133278841D01*
X136703911Y-133264686D01*
X126535323Y-123096100D01*
X126521159Y-123078841D01*
X126452333Y-123022357D01*
X126373810Y-122980386D01*
X126288607Y-122954540D01*
X126222205Y-122948000D01*
X126200000Y-122945813D01*
X126177795Y-122948000D01*
X117482809Y-122948000D01*
X117400629Y-122825009D01*
X117274991Y-122699371D01*
X117127257Y-122600658D01*
X116963104Y-122532664D01*
X116788839Y-122498000D01*
X116611161Y-122498000D01*
X116436896Y-122532664D01*
X116272743Y-122600658D01*
X116125009Y-122699371D01*
X116065000Y-122759380D01*
X116004991Y-122699371D01*
X115857257Y-122600658D01*
X115693104Y-122532664D01*
X115518839Y-122498000D01*
X115341161Y-122498000D01*
X115166896Y-122532664D01*
X115002743Y-122600658D01*
X114855009Y-122699371D01*
X114729371Y-122825009D01*
X114630658Y-122972743D01*
X114562664Y-123136896D01*
X114550237Y-123199368D01*
X114349605Y-123400000D01*
X114550237Y-123600632D01*
X114562664Y-123663104D01*
X114630658Y-123827257D01*
X114729371Y-123974991D01*
X114855009Y-124100629D01*
X115002743Y-124199342D01*
X115166896Y-124267336D01*
X115341161Y-124302000D01*
X115518839Y-124302000D01*
X115693104Y-124267336D01*
X115857257Y-124199342D01*
X116004991Y-124100629D01*
X116065000Y-124040620D01*
X116125009Y-124100629D01*
X116272743Y-124199342D01*
X116436896Y-124267336D01*
X116611161Y-124302000D01*
X116788839Y-124302000D01*
X116963104Y-124267336D01*
X117127257Y-124199342D01*
X117274991Y-124100629D01*
X117400629Y-123974991D01*
X117482809Y-123852000D01*
X126012777Y-123852000D01*
X135948001Y-133787226D01*
X135948000Y-136167369D01*
X135866165Y-136201266D01*
X135681579Y-136324602D01*
X135524602Y-136481579D01*
X135401266Y-136666165D01*
X135316310Y-136871266D01*
X135273000Y-137089000D01*
X135273000Y-137311000D01*
X135316310Y-137528734D01*
X135401266Y-137733835D01*
X135524602Y-137918421D01*
X135681579Y-138075398D01*
X135866165Y-138198734D01*
X136071266Y-138283690D01*
X136289000Y-138327000D01*
X136298778Y-138327000D01*
X134202780Y-140422999D01*
X109522204Y-140422999D01*
X109499999Y-140420812D01*
X109411391Y-140429539D01*
X109326189Y-140455385D01*
X109247666Y-140497356D01*
X109178840Y-140553840D01*
X109164680Y-140571094D01*
X108611095Y-141124680D01*
X108593841Y-141138840D01*
X108537357Y-141207666D01*
X108495385Y-141286190D01*
X108469539Y-141371392D01*
X108460812Y-141459999D01*
X108463000Y-141482214D01*
X108462999Y-142517796D01*
X108460812Y-142540001D01*
X108469539Y-142628608D01*
X108490009Y-142696089D01*
X108495385Y-142713810D01*
X108537356Y-142792333D01*
X108593840Y-142861160D01*
X108611099Y-142875324D01*
X117839683Y-152103910D01*
X117853839Y-152121159D01*
X117922665Y-152177643D01*
X118001188Y-152219614D01*
X118086390Y-152245460D01*
X118174997Y-152254187D01*
X118197202Y-152252000D01*
X133392777Y-152252000D01*
X136291939Y-155151162D01*
X136248231Y-155256682D01*
X136203000Y-155484076D01*
X136203000Y-155715924D01*
X136248231Y-155943318D01*
X136336956Y-156157519D01*
X136447527Y-156323001D01*
X136202226Y-156323001D01*
X135928061Y-156048837D01*
X135971769Y-155943318D01*
X136017000Y-155715924D01*
X136017000Y-155484076D01*
X135971769Y-155256682D01*
X135883044Y-155042481D01*
X135754236Y-154849706D01*
X135590294Y-154685764D01*
X135397519Y-154556956D01*
X135183318Y-154468231D01*
X134955924Y-154423000D01*
X134724076Y-154423000D01*
X134496682Y-154468231D01*
X134282481Y-154556956D01*
X134089706Y-154685764D01*
X133925764Y-154849706D01*
X133796956Y-155042481D01*
X133708231Y-155256682D01*
X133663000Y-155484076D01*
X133663000Y-155715924D01*
X133708231Y-155943318D01*
X133796956Y-156157519D01*
X133925764Y-156350294D01*
X134089706Y-156514236D01*
X134282481Y-156643044D01*
X134496682Y-156731769D01*
X134724076Y-156777000D01*
X134955924Y-156777000D01*
X135183318Y-156731769D01*
X135288837Y-156688061D01*
X135571332Y-156970557D01*
X95771863Y-156948348D01*
X111185446Y-131289000D01*
X119573000Y-131289000D01*
X119573000Y-131511000D01*
X119616310Y-131728734D01*
X119701266Y-131933835D01*
X119824602Y-132118421D01*
X119981579Y-132275398D01*
X120166165Y-132398734D01*
X120371266Y-132483690D01*
X120589000Y-132527000D01*
X120811000Y-132527000D01*
X121028734Y-132483690D01*
X121233835Y-132398734D01*
X121242862Y-132392702D01*
X122386903Y-132392702D01*
X122458486Y-132636671D01*
X122713996Y-132757571D01*
X122988184Y-132826300D01*
X123270512Y-132840217D01*
X123550130Y-132798787D01*
X123816292Y-132703603D01*
X123941514Y-132636671D01*
X124013097Y-132392702D01*
X123200000Y-131579605D01*
X122386903Y-132392702D01*
X121242862Y-132392702D01*
X121418421Y-132275398D01*
X121575398Y-132118421D01*
X121698734Y-131933835D01*
X121783690Y-131728734D01*
X121791916Y-131687381D01*
X121801213Y-131750130D01*
X121896397Y-132016292D01*
X121963329Y-132141514D01*
X122207298Y-132213097D01*
X123020395Y-131400000D01*
X123379605Y-131400000D01*
X124192702Y-132213097D01*
X124436671Y-132141514D01*
X124557571Y-131886004D01*
X124626300Y-131611816D01*
X124640217Y-131329488D01*
X124598787Y-131049870D01*
X124503603Y-130783708D01*
X124436671Y-130658486D01*
X124192702Y-130586903D01*
X123379605Y-131400000D01*
X123020395Y-131400000D01*
X122207298Y-130586903D01*
X121963329Y-130658486D01*
X121842429Y-130913996D01*
X121792237Y-131114233D01*
X121783690Y-131071266D01*
X121698734Y-130866165D01*
X121575398Y-130681579D01*
X121418421Y-130524602D01*
X121242863Y-130407298D01*
X122386903Y-130407298D01*
X123200000Y-131220395D01*
X124013097Y-130407298D01*
X123941514Y-130163329D01*
X123686004Y-130042429D01*
X123411816Y-129973700D01*
X123129488Y-129959783D01*
X122849870Y-130001213D01*
X122583708Y-130096397D01*
X122458486Y-130163329D01*
X122386903Y-130407298D01*
X121242863Y-130407298D01*
X121233835Y-130401266D01*
X121028734Y-130316310D01*
X120811000Y-130273000D01*
X120589000Y-130273000D01*
X120371266Y-130316310D01*
X120166165Y-130401266D01*
X119981579Y-130524602D01*
X119824602Y-130681579D01*
X119701266Y-130866165D01*
X119616310Y-131071266D01*
X119573000Y-131289000D01*
X111185446Y-131289000D01*
X112586678Y-128956338D01*
X112590183Y-128952234D01*
X112604486Y-128926693D01*
X112610648Y-128916435D01*
X112612954Y-128911571D01*
X112624062Y-128891736D01*
X112627768Y-128880330D01*
X112632911Y-128869483D01*
X112638462Y-128847415D01*
X112645487Y-128825791D01*
X112646896Y-128813880D01*
X112649824Y-128802240D01*
X112650962Y-128779514D01*
X112653634Y-128756934D01*
X112652693Y-128744975D01*
X112653293Y-128732988D01*
X112649977Y-128710481D01*
X112648192Y-128687810D01*
X112644935Y-128676264D01*
X112643186Y-128664391D01*
X112635543Y-128642965D01*
X112629369Y-128621076D01*
X112623921Y-128610386D01*
X112619890Y-128599084D01*
X112608213Y-128579559D01*
X112597888Y-128559297D01*
X112590462Y-128549877D01*
X112584301Y-128539576D01*
X112569038Y-128522702D01*
X112554960Y-128504846D01*
X112545838Y-128497056D01*
X112537787Y-128488155D01*
X112519525Y-128474583D01*
X112502234Y-128459816D01*
X112491770Y-128453956D01*
X112482135Y-128446796D01*
X112461568Y-128437044D01*
X112441735Y-128425938D01*
X112430332Y-128422233D01*
X112419483Y-128417089D01*
X112397414Y-128411538D01*
X112375791Y-128404513D01*
X112363878Y-128403103D01*
X112352239Y-128400176D01*
X112329520Y-128399038D01*
X112324188Y-128398407D01*
X112312253Y-128398173D01*
X112282988Y-128396707D01*
X112277644Y-128397494D01*
X105300191Y-128260682D01*
X117376879Y-110192702D01*
X122686903Y-110192702D01*
X122758486Y-110436671D01*
X123013996Y-110557571D01*
X123288184Y-110626300D01*
X123570512Y-110640217D01*
X123850130Y-110598787D01*
X124116292Y-110503603D01*
X124241514Y-110436671D01*
X124313097Y-110192702D01*
X123500000Y-109379605D01*
X122686903Y-110192702D01*
X117376879Y-110192702D01*
X117993274Y-109270512D01*
X122059783Y-109270512D01*
X122101213Y-109550130D01*
X122196397Y-109816292D01*
X122263329Y-109941514D01*
X122507298Y-110013097D01*
X123320395Y-109200000D01*
X123679605Y-109200000D01*
X124492702Y-110013097D01*
X124736671Y-109941514D01*
X124857571Y-109686004D01*
X124907763Y-109485767D01*
X124916310Y-109528734D01*
X125001266Y-109733835D01*
X125124602Y-109918421D01*
X125281579Y-110075398D01*
X125466165Y-110198734D01*
X125671266Y-110283690D01*
X125889000Y-110327000D01*
X126111000Y-110327000D01*
X126328734Y-110283690D01*
X126533835Y-110198734D01*
X126718421Y-110075398D01*
X126875398Y-109918421D01*
X126998734Y-109733835D01*
X127083690Y-109528734D01*
X127127000Y-109311000D01*
X127127000Y-109089000D01*
X127083690Y-108871266D01*
X126998734Y-108666165D01*
X126875398Y-108481579D01*
X126718421Y-108324602D01*
X126533835Y-108201266D01*
X126328734Y-108116310D01*
X126111000Y-108073000D01*
X125889000Y-108073000D01*
X125671266Y-108116310D01*
X125466165Y-108201266D01*
X125281579Y-108324602D01*
X125124602Y-108481579D01*
X125001266Y-108666165D01*
X124916310Y-108871266D01*
X124908084Y-108912619D01*
X124898787Y-108849870D01*
X124803603Y-108583708D01*
X124736671Y-108458486D01*
X124492702Y-108386903D01*
X123679605Y-109200000D01*
X123320395Y-109200000D01*
X122507298Y-108386903D01*
X122263329Y-108458486D01*
X122142429Y-108713996D01*
X122073700Y-108988184D01*
X122059783Y-109270512D01*
X117993274Y-109270512D01*
X118703929Y-108207298D01*
X122686903Y-108207298D01*
X123500000Y-109020395D01*
X124313097Y-108207298D01*
X124241514Y-107963329D01*
X123986004Y-107842429D01*
X123711816Y-107773700D01*
X123429488Y-107759783D01*
X123149870Y-107801213D01*
X122883708Y-107896397D01*
X122758486Y-107963329D01*
X122686903Y-108207298D01*
X118703929Y-108207298D01*
X124178048Y-100017448D01*
X124183688Y-100011249D01*
X124197258Y-99988707D01*
X124202256Y-99981230D01*
X124206202Y-99973851D01*
X124219450Y-99951844D01*
X124222501Y-99943370D01*
X124226758Y-99935408D01*
X124234231Y-99910787D01*
X124242936Y-99886605D01*
X124244276Y-99877687D01*
X124246895Y-99869059D01*
X124249419Y-99843471D01*
X124253242Y-99818037D01*
X124252817Y-99809028D01*
X124253702Y-99800055D01*
X124251186Y-99774470D01*
X124249974Y-99748777D01*
X124247799Y-99740024D01*
X124246917Y-99731050D01*
X124239458Y-99706447D01*
X124233256Y-99681484D01*
X124229414Y-99673320D01*
X124226799Y-99664695D01*
X124214686Y-99642025D01*
X124203731Y-99618746D01*
X124198371Y-99611490D01*
X124194123Y-99603539D01*
X124177821Y-99583668D01*
X124162535Y-99562974D01*
X124155861Y-99556902D01*
X124150144Y-99549933D01*
X124130276Y-99533623D01*
X124111249Y-99516311D01*
X124103520Y-99511658D01*
X124096552Y-99505938D01*
X124073881Y-99493815D01*
X124051844Y-99480549D01*
X124043358Y-99477494D01*
X124035406Y-99473242D01*
X124010815Y-99465779D01*
X123986605Y-99457063D01*
X123977676Y-99455721D01*
X123969057Y-99453105D01*
X123943505Y-99450584D01*
X123935220Y-99449339D01*
X123926224Y-99448880D01*
X123900054Y-99446298D01*
X123891718Y-99447118D01*
X112794832Y-98880470D01*
X115234912Y-95311161D01*
X120298000Y-95311161D01*
X120298000Y-95488839D01*
X120332664Y-95663104D01*
X120400658Y-95827257D01*
X120499371Y-95974991D01*
X120625009Y-96100629D01*
X120772743Y-96199342D01*
X120936896Y-96267336D01*
X121111161Y-96302000D01*
X121288839Y-96302000D01*
X121463104Y-96267336D01*
X121548717Y-96231874D01*
X121817731Y-96231874D01*
X121861993Y-96452916D01*
X122079089Y-96551301D01*
X122311208Y-96605442D01*
X122549429Y-96613258D01*
X122784598Y-96574450D01*
X123007677Y-96490509D01*
X123078007Y-96452916D01*
X123122269Y-96231874D01*
X122470000Y-95579605D01*
X121817731Y-96231874D01*
X121548717Y-96231874D01*
X121627257Y-96199342D01*
X121774991Y-96100629D01*
X121900629Y-95974991D01*
X121999342Y-95827257D01*
X122067336Y-95663104D01*
X122077279Y-95613116D01*
X122290395Y-95400000D01*
X122649605Y-95400000D01*
X122850237Y-95600632D01*
X122862664Y-95663104D01*
X122930658Y-95827257D01*
X123029371Y-95974991D01*
X123155009Y-96100629D01*
X123302743Y-96199342D01*
X123466896Y-96267336D01*
X123641161Y-96302000D01*
X123818839Y-96302000D01*
X123993104Y-96267336D01*
X124157257Y-96199342D01*
X124304991Y-96100629D01*
X124365000Y-96040620D01*
X124425009Y-96100629D01*
X124572743Y-96199342D01*
X124736896Y-96267336D01*
X124911161Y-96302000D01*
X125088839Y-96302000D01*
X125233918Y-96273141D01*
X127064681Y-98103905D01*
X127078841Y-98121159D01*
X127147667Y-98177643D01*
X127226190Y-98219614D01*
X127311392Y-98245460D01*
X127400000Y-98254187D01*
X127422205Y-98252000D01*
X129167369Y-98252000D01*
X129201266Y-98333835D01*
X129324602Y-98518421D01*
X129481579Y-98675398D01*
X129666165Y-98798734D01*
X129871266Y-98883690D01*
X130089000Y-98927000D01*
X130311000Y-98927000D01*
X130528734Y-98883690D01*
X130733835Y-98798734D01*
X130918421Y-98675398D01*
X131075398Y-98518421D01*
X131198734Y-98333835D01*
X131283690Y-98128734D01*
X131327000Y-97911000D01*
X131327000Y-97689000D01*
X131283690Y-97471266D01*
X131198734Y-97266165D01*
X131075398Y-97081579D01*
X130918421Y-96924602D01*
X130733835Y-96801266D01*
X130528734Y-96716310D01*
X130311000Y-96673000D01*
X130089000Y-96673000D01*
X129871266Y-96716310D01*
X129666165Y-96801266D01*
X129481579Y-96924602D01*
X129324602Y-97081579D01*
X129201266Y-97266165D01*
X129167369Y-97348000D01*
X127587224Y-97348000D01*
X125873141Y-95633918D01*
X125902000Y-95488839D01*
X125902000Y-95311161D01*
X125867336Y-95136896D01*
X125799342Y-94972743D01*
X125700629Y-94825009D01*
X125574991Y-94699371D01*
X125427257Y-94600658D01*
X125263104Y-94532664D01*
X125088839Y-94498000D01*
X124911161Y-94498000D01*
X124736896Y-94532664D01*
X124572743Y-94600658D01*
X124425009Y-94699371D01*
X124365000Y-94759380D01*
X124304991Y-94699371D01*
X124157257Y-94600658D01*
X123993104Y-94532664D01*
X123818839Y-94498000D01*
X123641161Y-94498000D01*
X123466896Y-94532664D01*
X123302743Y-94600658D01*
X123155009Y-94699371D01*
X123029371Y-94825009D01*
X122930658Y-94972743D01*
X122862664Y-95136896D01*
X122850237Y-95199368D01*
X122649605Y-95400000D01*
X122290395Y-95400000D01*
X122276253Y-95385858D01*
X122455858Y-95206253D01*
X122470000Y-95220395D01*
X123122269Y-94568126D01*
X123078007Y-94347084D01*
X122860911Y-94248699D01*
X122628792Y-94194558D01*
X122390571Y-94186742D01*
X122155402Y-94225550D01*
X121932323Y-94309491D01*
X121861993Y-94347084D01*
X121817732Y-94568124D01*
X121700500Y-94450892D01*
X121652000Y-94499392D01*
X121652000Y-92427223D01*
X126829431Y-87249793D01*
X126911266Y-87283690D01*
X127129000Y-87327000D01*
X127351000Y-87327000D01*
X127568734Y-87283690D01*
X127773835Y-87198734D01*
X127958421Y-87075398D01*
X128115398Y-86918421D01*
X128238734Y-86733835D01*
X128323690Y-86528734D01*
X128367000Y-86311000D01*
X128367000Y-86089000D01*
X128323690Y-85871266D01*
X128238734Y-85666165D01*
X128115398Y-85481579D01*
X127958421Y-85324602D01*
X127773835Y-85201266D01*
X127568734Y-85116310D01*
X127351000Y-85073000D01*
X127129000Y-85073000D01*
X126911266Y-85116310D01*
X126706165Y-85201266D01*
X126521579Y-85324602D01*
X126364602Y-85481579D01*
X126241266Y-85666165D01*
X126156310Y-85871266D01*
X126113000Y-86089000D01*
X126113000Y-86311000D01*
X126156310Y-86528734D01*
X126190207Y-86610569D01*
X120896096Y-91904681D01*
X120878842Y-91918841D01*
X120822358Y-91987667D01*
X120780386Y-92066191D01*
X120754540Y-92151393D01*
X120745813Y-92240000D01*
X120748001Y-92262215D01*
X120748000Y-94617191D01*
X120625009Y-94699371D01*
X120499371Y-94825009D01*
X120400658Y-94972743D01*
X120332664Y-95136896D01*
X120298000Y-95311161D01*
X115234912Y-95311161D01*
X127877666Y-76817554D01*
X127885510Y-76808781D01*
X127897183Y-76789004D01*
X127900345Y-76784379D01*
X127905984Y-76774094D01*
X127920755Y-76749068D01*
X127922614Y-76743760D01*
X127925325Y-76738815D01*
X127934069Y-76711053D01*
X127943674Y-76683628D01*
X127944462Y-76678054D01*
X127946155Y-76672680D01*
X127949314Y-76643751D01*
X127953385Y-76614973D01*
X127953071Y-76609354D01*
X127953683Y-76603751D01*
X127951139Y-76574772D01*
X127949517Y-76545744D01*
X127948112Y-76540290D01*
X127947619Y-76534679D01*
X127939472Y-76506760D01*
X127932216Y-76478599D01*
X127929774Y-76473524D01*
X127928196Y-76468117D01*
X127914760Y-76442327D01*
X127902148Y-76416119D01*
X127898761Y-76411616D01*
X127896160Y-76406623D01*
X127877955Y-76383954D01*
X127860469Y-76360706D01*
X127856270Y-76356952D01*
X127852744Y-76352561D01*
X127830452Y-76333867D01*
X127808780Y-76314490D01*
X127803934Y-76311630D01*
X127799614Y-76308007D01*
X127774088Y-76294013D01*
X127749068Y-76279245D01*
X127743757Y-76277385D01*
X127738814Y-76274675D01*
X127711062Y-76265934D01*
X127683628Y-76256326D01*
X127678052Y-76255537D01*
X127672679Y-76253845D01*
X127643769Y-76250688D01*
X127632178Y-76249048D01*
X127626587Y-76248811D01*
X127603750Y-76246317D01*
X127592023Y-76247347D01*
X122355511Y-76025460D01*
X122657342Y-75592702D01*
X124786903Y-75592702D01*
X124858486Y-75836671D01*
X125113996Y-75957571D01*
X125388184Y-76026300D01*
X125670512Y-76040217D01*
X125950130Y-75998787D01*
X126216292Y-75903603D01*
X126341514Y-75836671D01*
X126413097Y-75592702D01*
X125600000Y-74779605D01*
X124786903Y-75592702D01*
X122657342Y-75592702D01*
X123300532Y-74670512D01*
X124159783Y-74670512D01*
X124201213Y-74950130D01*
X124296397Y-75216292D01*
X124363329Y-75341514D01*
X124607298Y-75413097D01*
X125420395Y-74600000D01*
X125779605Y-74600000D01*
X126592702Y-75413097D01*
X126836671Y-75341514D01*
X126957571Y-75086004D01*
X127007763Y-74885767D01*
X127016310Y-74928734D01*
X127101266Y-75133835D01*
X127224602Y-75318421D01*
X127381579Y-75475398D01*
X127566165Y-75598734D01*
X127771266Y-75683690D01*
X127989000Y-75727000D01*
X128211000Y-75727000D01*
X128428734Y-75683690D01*
X128633835Y-75598734D01*
X128818421Y-75475398D01*
X128975398Y-75318421D01*
X129098734Y-75133835D01*
X129183690Y-74928734D01*
X129227000Y-74711000D01*
X129227000Y-74489000D01*
X129183690Y-74271266D01*
X129098734Y-74066165D01*
X128975398Y-73881579D01*
X128818421Y-73724602D01*
X128633835Y-73601266D01*
X128428734Y-73516310D01*
X128211000Y-73473000D01*
X127989000Y-73473000D01*
X127771266Y-73516310D01*
X127566165Y-73601266D01*
X127381579Y-73724602D01*
X127224602Y-73881579D01*
X127101266Y-74066165D01*
X127016310Y-74271266D01*
X127008084Y-74312619D01*
X126998787Y-74249870D01*
X126903603Y-73983708D01*
X126836671Y-73858486D01*
X126592702Y-73786903D01*
X125779605Y-74600000D01*
X125420395Y-74600000D01*
X124607298Y-73786903D01*
X124363329Y-73858486D01*
X124242429Y-74113996D01*
X124173700Y-74388184D01*
X124159783Y-74670512D01*
X123300532Y-74670512D01*
X124042080Y-73607298D01*
X124786903Y-73607298D01*
X125600000Y-74420395D01*
X126413097Y-73607298D01*
X126341514Y-73363329D01*
X126086004Y-73242429D01*
X125811816Y-73173700D01*
X125529488Y-73159783D01*
X125249870Y-73201213D01*
X124983708Y-73296397D01*
X124858486Y-73363329D01*
X124786903Y-73607298D01*
X124042080Y-73607298D01*
X137072353Y-54924823D01*
X137076583Y-54920471D01*
X137092159Y-54896427D01*
X137098605Y-54887184D01*
X137101552Y-54881926D01*
X137114281Y-54862276D01*
X137118469Y-54851742D01*
X137124011Y-54841855D01*
X137131252Y-54819596D01*
X137139900Y-54797845D01*
X137141953Y-54786697D01*
X137145459Y-54775918D01*
X137148218Y-54752672D01*
X137152457Y-54729653D01*
X137152296Y-54718321D01*
X137153632Y-54707063D01*
X137151803Y-54683726D01*
X137151470Y-54660323D01*
X137149101Y-54649238D01*
X137148215Y-54637938D01*
X137141870Y-54615410D01*
X137136976Y-54592517D01*
X137132488Y-54582105D01*
X137129416Y-54571197D01*
X137118799Y-54550342D01*
X137109532Y-54528841D01*
X137103100Y-54519506D01*
X137097958Y-54509405D01*
X137083474Y-54491019D01*
X137070193Y-54471743D01*
X137062064Y-54463843D01*
X137055050Y-54454939D01*
X137037255Y-54439730D01*
X137020470Y-54423417D01*
X137010957Y-54417255D01*
X137002340Y-54409890D01*
X136981923Y-54398447D01*
X136962275Y-54385719D01*
X136951741Y-54381531D01*
X136941854Y-54375989D01*
X136919595Y-54368748D01*
X136897844Y-54360100D01*
X136886696Y-54358047D01*
X136875917Y-54354541D01*
X136852672Y-54351782D01*
X136829653Y-54347543D01*
X136818320Y-54347704D01*
X136807062Y-54346368D01*
X136783725Y-54348197D01*
X136760322Y-54348530D01*
X136749237Y-54350899D01*
X136737937Y-54351785D01*
X136715407Y-54358131D01*
X136709508Y-54359392D01*
X136698766Y-54362818D01*
X136671196Y-54370584D01*
X136665788Y-54373337D01*
X131498412Y-56021552D01*
X133040129Y-49990716D01*
X133048422Y-49960886D01*
X133049996Y-49939896D01*
X133053189Y-49919066D01*
X133052583Y-49905386D01*
X133053606Y-49891742D01*
X133051053Y-49870835D01*
X133050121Y-49849796D01*
X133046861Y-49836508D01*
X133045201Y-49822916D01*
X133038616Y-49802903D01*
X133033599Y-49782455D01*
X133027807Y-49770053D01*
X133023529Y-49757052D01*
X133013173Y-49738719D01*
X133004258Y-49719631D01*
X132996157Y-49708597D01*
X132989425Y-49696680D01*
X132975682Y-49680710D01*
X132963223Y-49663740D01*
X132953131Y-49654503D01*
X132944198Y-49644123D01*
X132927602Y-49631139D01*
X132912073Y-49616927D01*
X132885592Y-49600879D01*
X127124521Y-45943058D01*
X132581596Y-43327271D01*
X132592861Y-43323568D01*
X132612766Y-43312330D01*
X132617744Y-43309944D01*
X132627874Y-43303800D01*
X132653241Y-43289479D01*
X132657431Y-43285876D01*
X132662174Y-43282999D01*
X132683725Y-43263261D01*
X132705811Y-43244266D01*
X132709219Y-43239912D01*
X132713307Y-43236168D01*
X132730584Y-43212618D01*
X132748550Y-43189666D01*
X132751044Y-43184729D01*
X132754322Y-43180261D01*
X132766674Y-43153790D01*
X132779815Y-43127778D01*
X132781297Y-43122452D01*
X132783642Y-43117427D01*
X132790592Y-43089054D01*
X132798406Y-43060978D01*
X132798821Y-43055461D01*
X132800139Y-43050081D01*
X132801419Y-43020933D01*
X132803609Y-42991836D01*
X132802939Y-42986339D01*
X132803182Y-42980809D01*
X132798750Y-42951962D01*
X132797323Y-42940255D01*
X132796127Y-42934892D01*
X132792652Y-42912276D01*
X132788595Y-42901121D01*
X131389835Y-36629263D01*
X136666703Y-38775786D01*
X136698111Y-38788710D01*
X136715863Y-38792198D01*
X136733203Y-38797338D01*
X136749794Y-38798866D01*
X136766148Y-38802079D01*
X136784241Y-38802037D01*
X136802249Y-38803695D01*
X136818817Y-38801957D01*
X136835485Y-38801918D01*
X136853221Y-38798347D01*
X136871209Y-38796460D01*
X136887123Y-38791522D01*
X136903459Y-38788233D01*
X136920153Y-38781273D01*
X136937432Y-38775911D01*
X136952080Y-38767961D01*
X136967457Y-38761550D01*
X136982472Y-38751467D01*
X136998373Y-38742837D01*
X137011188Y-38732183D01*
X137025020Y-38722894D01*
X137037782Y-38710073D01*
X137051691Y-38698509D01*
X137062178Y-38685564D01*
X137073936Y-38673751D01*
X137083953Y-38658684D01*
X137095337Y-38644631D01*
X137111143Y-38614602D01*
X139750860Y-33648357D01*
X142530896Y-38849714D01*
G37*
%TD.AperFunction*%
%TD*%
M02*
