%TF.GenerationSoftware,KiCad,Pcbnew,5.99.0+really5.1.10+dfsg1-1*%
%TF.CreationDate,2021-11-26T09:44:29+01:00*%
%TF.ProjectId,stromcek-led,7374726f-6d63-4656-9b2d-6c65642e6b69,rev?*%
%TF.SameCoordinates,Original*%
%TF.FileFunction,Soldermask,Top*%
%TF.FilePolarity,Negative*%
%FSLAX46Y46*%
G04 Gerber Fmt 4.6, Leading zero omitted, Abs format (unit mm)*
G04 Created by KiCad (PCBNEW 5.99.0+really5.1.10+dfsg1-1) date 2021-11-26 09:44:29*
%MOMM*%
%LPD*%
G01*
G04 APERTURE LIST*
%ADD10C,0.010000*%
%ADD11O,1.600000X1.600000*%
%ADD12C,1.600000*%
%ADD13R,2.160000X1.120000*%
%ADD14C,1.150000*%
%ADD15O,1.700000X1.700000*%
%ADD16R,1.700000X1.700000*%
G04 APERTURE END LIST*
D10*
%TO.C,FID1*%
G36*
X140207141Y-32844421D02*
G01*
X140200000Y-32888103D01*
X140165081Y-32989059D01*
X140074918Y-33150413D01*
X139985441Y-33284978D01*
X139857808Y-33480264D01*
X139759190Y-33659510D01*
X139723669Y-33745500D01*
X139666872Y-33893730D01*
X139621208Y-33973679D01*
X139565781Y-34061872D01*
X139472255Y-34228151D01*
X139360294Y-34437495D01*
X139353801Y-34449929D01*
X139182782Y-34774481D01*
X139055848Y-35006632D01*
X138960915Y-35167884D01*
X138893331Y-35269500D01*
X138833655Y-35388408D01*
X138767366Y-35570275D01*
X138747907Y-35634625D01*
X138691936Y-35797521D01*
X138640587Y-35893572D01*
X138624392Y-35904500D01*
X138570398Y-35952595D01*
X138483066Y-36101860D01*
X138358270Y-36359767D01*
X138291250Y-36507750D01*
X138191545Y-36698184D01*
X138071212Y-36888651D01*
X138071142Y-36888750D01*
X137973648Y-37052516D01*
X137861195Y-37279027D01*
X137782529Y-37460250D01*
X137661404Y-37736491D01*
X137514641Y-38038234D01*
X137422234Y-38212475D01*
X137317087Y-38409095D01*
X137242647Y-38563204D01*
X137215500Y-38639512D01*
X137162967Y-38664547D01*
X137037840Y-38659112D01*
X136888828Y-38630353D01*
X136764639Y-38585415D01*
X136739250Y-38569657D01*
X136638666Y-38523680D01*
X136447316Y-38458206D01*
X136198088Y-38382700D01*
X135923869Y-38306628D01*
X135657547Y-38239456D01*
X135432009Y-38190651D01*
X135405876Y-38185878D01*
X135209883Y-38137144D01*
X135065100Y-38075784D01*
X135024876Y-38043295D01*
X134920040Y-37967786D01*
X134770750Y-37914290D01*
X134575173Y-37870572D01*
X134425950Y-37837268D01*
X134286130Y-37798268D01*
X134218528Y-37770041D01*
X134120781Y-37736049D01*
X133991828Y-37708785D01*
X133810569Y-37665301D01*
X133607444Y-37598566D01*
X133596000Y-37594177D01*
X133379484Y-37518163D01*
X133090832Y-37427056D01*
X132778561Y-37335156D01*
X132491189Y-37256758D01*
X132283680Y-37207452D01*
X132133450Y-37153012D01*
X132048546Y-37077802D01*
X132047548Y-37075369D01*
X131972501Y-37015533D01*
X131796159Y-36987358D01*
X131664991Y-36984000D01*
X131465399Y-36973076D01*
X131321854Y-36944978D01*
X131277610Y-36919464D01*
X131216679Y-36866646D01*
X131178269Y-36915762D01*
X131171477Y-37042459D01*
X131188824Y-37157161D01*
X131230651Y-37356561D01*
X131281817Y-37611751D01*
X131314041Y-37777750D01*
X131363268Y-38005364D01*
X131414896Y-38197737D01*
X131447342Y-38288475D01*
X131491773Y-38424033D01*
X131539348Y-38629243D01*
X131564046Y-38764725D01*
X131611469Y-39028227D01*
X131666778Y-39295852D01*
X131690256Y-39397000D01*
X131746333Y-39630464D01*
X131798794Y-39856181D01*
X131809786Y-39905000D01*
X131865585Y-40099603D01*
X131931928Y-40262272D01*
X131933883Y-40265950D01*
X131989771Y-40434602D01*
X132008500Y-40595577D01*
X132025473Y-40742181D01*
X132064985Y-40821413D01*
X132112820Y-40902890D01*
X132151848Y-41052899D01*
X132153521Y-41063286D01*
X132192570Y-41279321D01*
X132232039Y-41460750D01*
X132269217Y-41629449D01*
X132289384Y-41747616D01*
X132330285Y-41887310D01*
X132348158Y-41921478D01*
X132393508Y-42034076D01*
X132453227Y-42234095D01*
X132517516Y-42484280D01*
X132576577Y-42747373D01*
X132607493Y-42907496D01*
X132626922Y-43049717D01*
X132603859Y-43136456D01*
X132512978Y-43203716D01*
X132345151Y-43280451D01*
X131992569Y-43433395D01*
X131729756Y-43545996D01*
X131530375Y-43629368D01*
X131368085Y-43694627D01*
X131310000Y-43717242D01*
X131156733Y-43784358D01*
X131063204Y-43840068D01*
X131056000Y-43847670D01*
X130986368Y-43893420D01*
X130827289Y-43977232D01*
X130605643Y-44086203D01*
X130348308Y-44207431D01*
X130082165Y-44328015D01*
X129834092Y-44435054D01*
X129820303Y-44440791D01*
X129631198Y-44537306D01*
X129477667Y-44645727D01*
X129452704Y-44669826D01*
X129315913Y-44765241D01*
X129202815Y-44794499D01*
X129082872Y-44820722D01*
X128888158Y-44890038D01*
X128657330Y-44988421D01*
X128617914Y-45006729D01*
X128359960Y-45127429D01*
X128109646Y-45243491D01*
X127919324Y-45330646D01*
X127912750Y-45333616D01*
X127750422Y-45413454D01*
X127643870Y-45478042D01*
X127627000Y-45493694D01*
X127558461Y-45543489D01*
X127407941Y-45631829D01*
X127206963Y-45740287D01*
X127190932Y-45748616D01*
X126786613Y-45958118D01*
X127095259Y-46233559D01*
X127264868Y-46375535D01*
X127403761Y-46474986D01*
X127476909Y-46509000D01*
X127563658Y-46559225D01*
X127581035Y-46590102D01*
X127648725Y-46654593D01*
X127802117Y-46756086D01*
X128012602Y-46876247D01*
X128095829Y-46920022D01*
X128314880Y-47040057D01*
X128482209Y-47145737D01*
X128571503Y-47219864D01*
X128579500Y-47236168D01*
X128631943Y-47304011D01*
X128760693Y-47382867D01*
X128785875Y-47394470D01*
X128951033Y-47480049D01*
X129071312Y-47564075D01*
X129076161Y-47568721D01*
X129194159Y-47640784D01*
X129250786Y-47652000D01*
X129332337Y-47687770D01*
X129341500Y-47715500D01*
X129392933Y-47771835D01*
X129436750Y-47779000D01*
X129521254Y-47813288D01*
X129532000Y-47842500D01*
X129583570Y-47898511D01*
X129629243Y-47906000D01*
X129735505Y-47955142D01*
X129759984Y-47993292D01*
X129834809Y-48070147D01*
X129984284Y-48161833D01*
X130059616Y-48197914D01*
X130225851Y-48275257D01*
X130336964Y-48334486D01*
X130357500Y-48349341D01*
X130445282Y-48419053D01*
X130593069Y-48516859D01*
X130759987Y-48618023D01*
X130905162Y-48697803D01*
X130987721Y-48731461D01*
X130988905Y-48731500D01*
X131065003Y-48781085D01*
X131119500Y-48858500D01*
X131193565Y-48958777D01*
X131240020Y-48985500D01*
X131314330Y-49014669D01*
X131473236Y-49093399D01*
X131690907Y-49208523D01*
X131865764Y-49304467D01*
X132165362Y-49480927D01*
X132358728Y-49623453D01*
X132456942Y-49746759D01*
X132471084Y-49865558D01*
X132412234Y-49994566D01*
X132399511Y-50013267D01*
X132330094Y-50124162D01*
X132312006Y-50176428D01*
X132299913Y-50239055D01*
X132250760Y-50375031D01*
X132231476Y-50422308D01*
X132169213Y-50589824D01*
X132136810Y-50713121D01*
X132135500Y-50728921D01*
X132103068Y-50835490D01*
X132091329Y-50850004D01*
X132041324Y-50948679D01*
X132034600Y-50979736D01*
X131990427Y-51166322D01*
X131928560Y-51296915D01*
X131877221Y-51335000D01*
X131832695Y-51389367D01*
X131818000Y-51493750D01*
X131792674Y-51613024D01*
X131743917Y-51652500D01*
X131700047Y-51676912D01*
X131709649Y-51692315D01*
X131713297Y-51770812D01*
X131672180Y-51915059D01*
X131656733Y-51954070D01*
X131594620Y-52134793D01*
X131564527Y-52285337D01*
X131564000Y-52299790D01*
X131520764Y-52446586D01*
X131468750Y-52518821D01*
X131389204Y-52651984D01*
X131373500Y-52732788D01*
X131343280Y-52852453D01*
X131310000Y-52890750D01*
X131260397Y-52978501D01*
X131246500Y-53081250D01*
X131222531Y-53214219D01*
X131183000Y-53271750D01*
X131129656Y-53361314D01*
X131119500Y-53434247D01*
X131090595Y-53535354D01*
X131052253Y-53557500D01*
X131012998Y-53595769D01*
X131021539Y-53616612D01*
X131013576Y-53698167D01*
X130993536Y-53715609D01*
X130941969Y-53804476D01*
X130929000Y-53897797D01*
X130896799Y-54046006D01*
X130852800Y-54116300D01*
X130812546Y-54180174D01*
X130828354Y-54192500D01*
X130836931Y-54236938D01*
X130787361Y-54335375D01*
X130699993Y-54511076D01*
X130659492Y-54637000D01*
X130613253Y-54808072D01*
X130548973Y-55006636D01*
X130544939Y-55018000D01*
X130478742Y-55203772D01*
X130424313Y-55357406D01*
X130420848Y-55367250D01*
X130373903Y-55499688D01*
X130303999Y-55695778D01*
X130262533Y-55811750D01*
X130189256Y-56041455D01*
X130133440Y-56260748D01*
X130118516Y-56341839D01*
X130088155Y-56554428D01*
X130326602Y-56522295D01*
X130493601Y-56483291D01*
X130600876Y-56428129D01*
X130610482Y-56416648D01*
X130694528Y-56366473D01*
X130861861Y-56316230D01*
X130998833Y-56289578D01*
X131232848Y-56245687D01*
X131528387Y-56180191D01*
X131824919Y-56106578D01*
X131849750Y-56099972D01*
X132094537Y-56034958D01*
X132295882Y-55982480D01*
X132419174Y-55951528D01*
X132435288Y-55947882D01*
X132542339Y-55900078D01*
X132556996Y-55887671D01*
X132646057Y-55856718D01*
X132799380Y-55843506D01*
X132802742Y-55843500D01*
X132989435Y-55824587D01*
X133218311Y-55777098D01*
X133300158Y-55754464D01*
X133470366Y-55710248D01*
X133577316Y-55695947D01*
X133596000Y-55703664D01*
X133631396Y-55700519D01*
X133672201Y-55665699D01*
X133789211Y-55608729D01*
X133926201Y-55589500D01*
X134054374Y-55570684D01*
X134104000Y-55528548D01*
X134119176Y-55497244D01*
X134177553Y-55463740D01*
X134298411Y-55421459D01*
X134501025Y-55363822D01*
X134804675Y-55284250D01*
X134866000Y-55268511D01*
X135011785Y-55229780D01*
X135248116Y-55165458D01*
X135543256Y-55084242D01*
X135865465Y-54994824D01*
X135890704Y-54987788D01*
X136203276Y-54903484D01*
X136481588Y-54833697D01*
X136697642Y-54785087D01*
X136823440Y-54764309D01*
X136831865Y-54764000D01*
X136989510Y-54721596D01*
X137065822Y-54668750D01*
X137165281Y-54591163D01*
X137212944Y-54573500D01*
X137262024Y-54626649D01*
X137346703Y-54765974D01*
X137451699Y-54961285D01*
X137561730Y-55182395D01*
X137661515Y-55399117D01*
X137735771Y-55581263D01*
X137759421Y-55653000D01*
X137807176Y-55784399D01*
X137843853Y-55843500D01*
X137891655Y-55915846D01*
X137980601Y-56079496D01*
X138098973Y-56310274D01*
X138235056Y-56584007D01*
X138377134Y-56876522D01*
X138513489Y-57163644D01*
X138632406Y-57421199D01*
X138722168Y-57625014D01*
X138771060Y-57750915D01*
X138774844Y-57764375D01*
X138823368Y-57890613D01*
X138875377Y-57939000D01*
X138941750Y-57990786D01*
X138970209Y-58050125D01*
X139022791Y-58179964D01*
X139115865Y-58381937D01*
X139234441Y-58626328D01*
X139363530Y-58883423D01*
X139488141Y-59123508D01*
X139593283Y-59316868D01*
X139663966Y-59433789D01*
X139676125Y-59449425D01*
X139745200Y-59585729D01*
X139755500Y-59656104D01*
X139787870Y-59794845D01*
X139870724Y-59978935D01*
X139982679Y-60173541D01*
X140102353Y-60343830D01*
X140208362Y-60454969D01*
X140260642Y-60479000D01*
X140335676Y-60439752D01*
X140377800Y-60402800D01*
X140445343Y-60294466D01*
X140454000Y-60250843D01*
X140504972Y-60164267D01*
X140549250Y-60138536D01*
X140633653Y-60058019D01*
X140644500Y-60012518D01*
X140689383Y-59899424D01*
X140739750Y-59844000D01*
X140820978Y-59724819D01*
X140835000Y-59656952D01*
X140861394Y-59568238D01*
X140933089Y-59390406D01*
X140947595Y-59357166D01*
X140305834Y-59357166D01*
X140297117Y-59394917D01*
X140263500Y-59399500D01*
X140211233Y-59376266D01*
X140221167Y-59357166D01*
X140296527Y-59349566D01*
X140305834Y-59357166D01*
X140947595Y-59357166D01*
X141038852Y-59148059D01*
X141167454Y-58865802D01*
X141307664Y-58568241D01*
X141448249Y-58279980D01*
X141577979Y-58025624D01*
X141590188Y-58002500D01*
X141647829Y-57892656D01*
X141708870Y-57773324D01*
X141782704Y-57625443D01*
X141878723Y-57429954D01*
X142006320Y-57167794D01*
X142174888Y-56819904D01*
X142278610Y-56605500D01*
X142456033Y-56237420D01*
X142628284Y-55877897D01*
X142781981Y-55555014D01*
X142903745Y-55296857D01*
X142966857Y-55160875D01*
X143068173Y-54950036D01*
X143146196Y-54830827D01*
X143226030Y-54777456D01*
X143332779Y-54764137D01*
X143353201Y-54764000D01*
X143506476Y-54781909D01*
X143595721Y-54825234D01*
X143597250Y-54827500D01*
X143687178Y-54881609D01*
X143754602Y-54891000D01*
X143895295Y-54918941D01*
X144052479Y-54981456D01*
X144229537Y-55055025D01*
X144451642Y-55128055D01*
X144518000Y-55146395D01*
X144712441Y-55202054D01*
X144864736Y-55254274D01*
X144901085Y-55270114D01*
X145030209Y-55318069D01*
X145205159Y-55364757D01*
X145207000Y-55365163D01*
X145360270Y-55422643D01*
X145449454Y-55500061D01*
X145451878Y-55505562D01*
X145493701Y-55565360D01*
X145541865Y-55515449D01*
X145586868Y-55467082D01*
X145596528Y-55510125D01*
X145650418Y-55574578D01*
X145724500Y-55589500D01*
X145827751Y-55611697D01*
X145851500Y-55642416D01*
X145902243Y-55696138D01*
X145930875Y-55702195D01*
X146131348Y-55735956D01*
X146262139Y-55790026D01*
X146272996Y-55799328D01*
X146363442Y-55831876D01*
X146494929Y-55843500D01*
X146680104Y-55869312D01*
X146878548Y-55931510D01*
X146881221Y-55932647D01*
X147049188Y-55997483D01*
X147258417Y-56069162D01*
X147466623Y-56134322D01*
X147631523Y-56179599D01*
X147703584Y-56192526D01*
X147783370Y-56231022D01*
X147793542Y-56240375D01*
X147889367Y-56278368D01*
X147986179Y-56288000D01*
X148121959Y-56323674D01*
X148181970Y-56377670D01*
X148265191Y-56436441D01*
X148430724Y-56504749D01*
X148637364Y-56570661D01*
X148843905Y-56622241D01*
X149009143Y-56647557D01*
X149086247Y-56639569D01*
X149110666Y-56562471D01*
X149111575Y-56410084D01*
X149093283Y-56231038D01*
X149060101Y-56073957D01*
X149029745Y-56002250D01*
X148997949Y-55902045D01*
X148972918Y-55732753D01*
X148968899Y-55684750D01*
X148941925Y-55501995D01*
X148897447Y-55369063D01*
X148885804Y-55351375D01*
X148847438Y-55283322D01*
X148856735Y-55272000D01*
X148858843Y-55220909D01*
X148818292Y-55094429D01*
X148803528Y-55057815D01*
X148754695Y-54907699D01*
X148748962Y-54812014D01*
X148753852Y-54803815D01*
X148747639Y-54766071D01*
X148729247Y-54764000D01*
X148682339Y-54708755D01*
X148659477Y-54575762D01*
X148659435Y-54574347D01*
X148639512Y-54410119D01*
X148603984Y-54304472D01*
X148550493Y-54172676D01*
X148535634Y-54106722D01*
X148507359Y-53990791D01*
X148449917Y-53794949D01*
X148375178Y-53559468D01*
X148367187Y-53535222D01*
X148277981Y-53249879D01*
X148193536Y-52953757D01*
X148137200Y-52732000D01*
X148083251Y-52526118D01*
X148029319Y-52367714D01*
X147999957Y-52310059D01*
X147954745Y-52210843D01*
X147954854Y-52183059D01*
X147945083Y-52080863D01*
X147930046Y-52033500D01*
X147907655Y-51965517D01*
X147883077Y-51862620D01*
X147851044Y-51698890D01*
X147806286Y-51448410D01*
X147778221Y-51286786D01*
X147737950Y-51134530D01*
X147688943Y-51046986D01*
X147685985Y-51044913D01*
X147645037Y-50962338D01*
X147629500Y-50827000D01*
X147608122Y-50680732D01*
X147561671Y-50602074D01*
X147519456Y-50515224D01*
X147527148Y-50473360D01*
X147522771Y-50373994D01*
X147499727Y-50349036D01*
X147436553Y-50252306D01*
X147474319Y-50126999D01*
X147600796Y-50002167D01*
X147661250Y-49965309D01*
X147802013Y-49878336D01*
X147878747Y-49809205D01*
X147883500Y-49796559D01*
X147934764Y-49752300D01*
X147973459Y-49747500D01*
X148069870Y-49704991D01*
X148087195Y-49676166D01*
X148166811Y-49590503D01*
X148361020Y-49461313D01*
X148665984Y-49290933D01*
X149003197Y-49118555D01*
X149205604Y-49007238D01*
X149359206Y-48902525D01*
X149429830Y-48828402D01*
X149514264Y-48742899D01*
X149564258Y-48731500D01*
X149650033Y-48697824D01*
X149661500Y-48668000D01*
X149711032Y-48607963D01*
X149734882Y-48604500D01*
X149830371Y-48569413D01*
X149972850Y-48482750D01*
X150004757Y-48459954D01*
X150194834Y-48335117D01*
X150413564Y-48211221D01*
X150455250Y-48190079D01*
X150622335Y-48096063D01*
X150738991Y-48009455D01*
X150760031Y-47985375D01*
X150862168Y-47912554D01*
X150902906Y-47906000D01*
X150985365Y-47870693D01*
X150995000Y-47842500D01*
X151046433Y-47786164D01*
X151090250Y-47779000D01*
X151174754Y-47744711D01*
X151185500Y-47715500D01*
X151236602Y-47658414D01*
X151276215Y-47652000D01*
X151396696Y-47610332D01*
X151450840Y-47568721D01*
X151565536Y-47486312D01*
X151729819Y-47399521D01*
X151741125Y-47394470D01*
X151878372Y-47314742D01*
X151946014Y-47237735D01*
X151947500Y-47228028D01*
X152000169Y-47150215D01*
X152074500Y-47112250D01*
X152177124Y-47055240D01*
X152201500Y-47012720D01*
X152252405Y-46958915D01*
X152288752Y-46953500D01*
X152394248Y-46924298D01*
X152552380Y-46851285D01*
X152724503Y-46756348D01*
X152871970Y-46661374D01*
X152956137Y-46588250D01*
X152963500Y-46571350D01*
X153015522Y-46510298D01*
X153081463Y-46480118D01*
X153192157Y-46417588D01*
X153351318Y-46296600D01*
X153466543Y-46196076D01*
X153733660Y-45949475D01*
X153316830Y-45744270D01*
X153114556Y-45639308D01*
X152966403Y-45552169D01*
X152900946Y-45499839D01*
X152900000Y-45496503D01*
X152847098Y-45448541D01*
X152713057Y-45375695D01*
X152630125Y-45337998D01*
X152435305Y-45251631D01*
X152180039Y-45134952D01*
X151918350Y-45012664D01*
X151909087Y-45008278D01*
X151676158Y-44905726D01*
X151472803Y-44830039D01*
X151337595Y-44795315D01*
X151324186Y-44794500D01*
X151180468Y-44749852D01*
X151073640Y-44669121D01*
X150958274Y-44583041D01*
X150764542Y-44474431D01*
X150532834Y-44365776D01*
X150515541Y-44358457D01*
X150118595Y-44189518D01*
X149828017Y-44060066D01*
X149631625Y-43964042D01*
X149517234Y-43895389D01*
X149472663Y-43848048D01*
X149471000Y-43839028D01*
X149419464Y-43785448D01*
X149374889Y-43778500D01*
X149238428Y-43748880D01*
X149168514Y-43717940D01*
X149067244Y-43669353D01*
X148877739Y-43584326D01*
X148628843Y-43475635D01*
X148398651Y-43376957D01*
X148129603Y-43256902D01*
X147904284Y-43145732D01*
X147748639Y-43056931D01*
X147690382Y-43008891D01*
X147681797Y-42908485D01*
X147703477Y-42722865D01*
X147750767Y-42488921D01*
X147761521Y-42445000D01*
X147819847Y-42195193D01*
X147862805Y-41977061D01*
X147882083Y-41833387D01*
X147882415Y-41822721D01*
X147912617Y-41658257D01*
X147973761Y-41502148D01*
X148047928Y-41310130D01*
X148094944Y-41108426D01*
X148118388Y-40963113D01*
X148135794Y-40890983D01*
X148137500Y-40889250D01*
X148153020Y-40833790D01*
X148176073Y-40697483D01*
X148180158Y-40669189D01*
X148218167Y-40485628D01*
X148267476Y-40344043D01*
X148269591Y-40339988D01*
X148320310Y-40191781D01*
X148328000Y-40125146D01*
X148353172Y-39995964D01*
X148414129Y-39827862D01*
X148417914Y-39819346D01*
X148482513Y-39650672D01*
X148536782Y-39444365D01*
X148588587Y-39166731D01*
X148624054Y-38936226D01*
X148660470Y-38772596D01*
X148706163Y-38671303D01*
X148715708Y-38662604D01*
X148754442Y-38581032D01*
X148772355Y-38429678D01*
X148772500Y-38414294D01*
X148788474Y-38264102D01*
X148827431Y-38182421D01*
X148832428Y-38179916D01*
X148876122Y-38109721D01*
X148917082Y-37956899D01*
X148930855Y-37873000D01*
X148964291Y-37636427D01*
X148993662Y-37467050D01*
X149029703Y-37305931D01*
X149046529Y-37238000D01*
X149114073Y-36910701D01*
X149177875Y-36488547D01*
X149197287Y-36333125D01*
X149233159Y-36031500D01*
X149014966Y-36031500D01*
X148826496Y-36058387D01*
X148675547Y-36123213D01*
X148673512Y-36124730D01*
X148518732Y-36200595D01*
X148414169Y-36219980D01*
X148288934Y-36261054D01*
X148241537Y-36317249D01*
X148163338Y-36401612D01*
X148119671Y-36412500D01*
X148012994Y-36438680D01*
X147846918Y-36504395D01*
X147780022Y-36535380D01*
X147578885Y-36623451D01*
X147393904Y-36690177D01*
X147355345Y-36701014D01*
X147231094Y-36751375D01*
X147185000Y-36804131D01*
X147147419Y-36838849D01*
X147132823Y-36832247D01*
X147044225Y-36835031D01*
X146920540Y-36883062D01*
X146744740Y-36952743D01*
X146538188Y-37007772D01*
X146528218Y-37009690D01*
X146377833Y-37051400D01*
X146299291Y-37099530D01*
X146296000Y-37109598D01*
X146243126Y-37169674D01*
X146153125Y-37210254D01*
X146006779Y-37264620D01*
X145812211Y-37347446D01*
X145744627Y-37378278D01*
X145563773Y-37456346D01*
X145420935Y-37507355D01*
X145385908Y-37515653D01*
X145252570Y-37565365D01*
X145207031Y-37594470D01*
X145096422Y-37651566D01*
X144918005Y-37719234D01*
X144835500Y-37745603D01*
X144651996Y-37807718D01*
X144519349Y-37865064D01*
X144489426Y-37884041D01*
X144373191Y-37933921D01*
X144343895Y-37936499D01*
X144238472Y-37976826D01*
X144122372Y-38063499D01*
X143977391Y-38157574D01*
X143852703Y-38190499D01*
X143709548Y-38218853D01*
X143528079Y-38288721D01*
X143494386Y-38305194D01*
X143286269Y-38386084D01*
X143160841Y-38375536D01*
X143121000Y-38280458D01*
X143084970Y-38199407D01*
X143057500Y-38190500D01*
X142999535Y-38139815D01*
X142994000Y-38105006D01*
X142968202Y-37990025D01*
X142906658Y-37835131D01*
X142816955Y-37638707D01*
X142732407Y-37444374D01*
X142662490Y-37307302D01*
X142604021Y-37239546D01*
X142597499Y-37237999D01*
X142554706Y-37186438D01*
X142549500Y-37143983D01*
X142517139Y-37043316D01*
X142433066Y-36876872D01*
X142336973Y-36715358D01*
X142215375Y-36507156D01*
X142121004Y-36315244D01*
X142082878Y-36210565D01*
X142015810Y-36044654D01*
X141944275Y-35943346D01*
X141859834Y-35820758D01*
X141775730Y-35642567D01*
X141761901Y-35605531D01*
X141667132Y-35380051D01*
X141552054Y-35157237D01*
X141543341Y-35142500D01*
X141443824Y-34965371D01*
X141319865Y-34729715D01*
X141218533Y-34527569D01*
X141113925Y-34324838D01*
X141023719Y-34170566D01*
X140967416Y-34098096D01*
X140967356Y-34098059D01*
X140910871Y-34018273D01*
X140845692Y-33866763D01*
X140831111Y-33823990D01*
X140747828Y-33633553D01*
X140620133Y-33410133D01*
X140540728Y-33292492D01*
X140423095Y-33113480D01*
X140345467Y-32962651D01*
X140327000Y-32895617D01*
X140294874Y-32806488D01*
X140263500Y-32793000D01*
X140207141Y-32844421D01*
G37*
X140207141Y-32844421D02*
X140200000Y-32888103D01*
X140165081Y-32989059D01*
X140074918Y-33150413D01*
X139985441Y-33284978D01*
X139857808Y-33480264D01*
X139759190Y-33659510D01*
X139723669Y-33745500D01*
X139666872Y-33893730D01*
X139621208Y-33973679D01*
X139565781Y-34061872D01*
X139472255Y-34228151D01*
X139360294Y-34437495D01*
X139353801Y-34449929D01*
X139182782Y-34774481D01*
X139055848Y-35006632D01*
X138960915Y-35167884D01*
X138893331Y-35269500D01*
X138833655Y-35388408D01*
X138767366Y-35570275D01*
X138747907Y-35634625D01*
X138691936Y-35797521D01*
X138640587Y-35893572D01*
X138624392Y-35904500D01*
X138570398Y-35952595D01*
X138483066Y-36101860D01*
X138358270Y-36359767D01*
X138291250Y-36507750D01*
X138191545Y-36698184D01*
X138071212Y-36888651D01*
X138071142Y-36888750D01*
X137973648Y-37052516D01*
X137861195Y-37279027D01*
X137782529Y-37460250D01*
X137661404Y-37736491D01*
X137514641Y-38038234D01*
X137422234Y-38212475D01*
X137317087Y-38409095D01*
X137242647Y-38563204D01*
X137215500Y-38639512D01*
X137162967Y-38664547D01*
X137037840Y-38659112D01*
X136888828Y-38630353D01*
X136764639Y-38585415D01*
X136739250Y-38569657D01*
X136638666Y-38523680D01*
X136447316Y-38458206D01*
X136198088Y-38382700D01*
X135923869Y-38306628D01*
X135657547Y-38239456D01*
X135432009Y-38190651D01*
X135405876Y-38185878D01*
X135209883Y-38137144D01*
X135065100Y-38075784D01*
X135024876Y-38043295D01*
X134920040Y-37967786D01*
X134770750Y-37914290D01*
X134575173Y-37870572D01*
X134425950Y-37837268D01*
X134286130Y-37798268D01*
X134218528Y-37770041D01*
X134120781Y-37736049D01*
X133991828Y-37708785D01*
X133810569Y-37665301D01*
X133607444Y-37598566D01*
X133596000Y-37594177D01*
X133379484Y-37518163D01*
X133090832Y-37427056D01*
X132778561Y-37335156D01*
X132491189Y-37256758D01*
X132283680Y-37207452D01*
X132133450Y-37153012D01*
X132048546Y-37077802D01*
X132047548Y-37075369D01*
X131972501Y-37015533D01*
X131796159Y-36987358D01*
X131664991Y-36984000D01*
X131465399Y-36973076D01*
X131321854Y-36944978D01*
X131277610Y-36919464D01*
X131216679Y-36866646D01*
X131178269Y-36915762D01*
X131171477Y-37042459D01*
X131188824Y-37157161D01*
X131230651Y-37356561D01*
X131281817Y-37611751D01*
X131314041Y-37777750D01*
X131363268Y-38005364D01*
X131414896Y-38197737D01*
X131447342Y-38288475D01*
X131491773Y-38424033D01*
X131539348Y-38629243D01*
X131564046Y-38764725D01*
X131611469Y-39028227D01*
X131666778Y-39295852D01*
X131690256Y-39397000D01*
X131746333Y-39630464D01*
X131798794Y-39856181D01*
X131809786Y-39905000D01*
X131865585Y-40099603D01*
X131931928Y-40262272D01*
X131933883Y-40265950D01*
X131989771Y-40434602D01*
X132008500Y-40595577D01*
X132025473Y-40742181D01*
X132064985Y-40821413D01*
X132112820Y-40902890D01*
X132151848Y-41052899D01*
X132153521Y-41063286D01*
X132192570Y-41279321D01*
X132232039Y-41460750D01*
X132269217Y-41629449D01*
X132289384Y-41747616D01*
X132330285Y-41887310D01*
X132348158Y-41921478D01*
X132393508Y-42034076D01*
X132453227Y-42234095D01*
X132517516Y-42484280D01*
X132576577Y-42747373D01*
X132607493Y-42907496D01*
X132626922Y-43049717D01*
X132603859Y-43136456D01*
X132512978Y-43203716D01*
X132345151Y-43280451D01*
X131992569Y-43433395D01*
X131729756Y-43545996D01*
X131530375Y-43629368D01*
X131368085Y-43694627D01*
X131310000Y-43717242D01*
X131156733Y-43784358D01*
X131063204Y-43840068D01*
X131056000Y-43847670D01*
X130986368Y-43893420D01*
X130827289Y-43977232D01*
X130605643Y-44086203D01*
X130348308Y-44207431D01*
X130082165Y-44328015D01*
X129834092Y-44435054D01*
X129820303Y-44440791D01*
X129631198Y-44537306D01*
X129477667Y-44645727D01*
X129452704Y-44669826D01*
X129315913Y-44765241D01*
X129202815Y-44794499D01*
X129082872Y-44820722D01*
X128888158Y-44890038D01*
X128657330Y-44988421D01*
X128617914Y-45006729D01*
X128359960Y-45127429D01*
X128109646Y-45243491D01*
X127919324Y-45330646D01*
X127912750Y-45333616D01*
X127750422Y-45413454D01*
X127643870Y-45478042D01*
X127627000Y-45493694D01*
X127558461Y-45543489D01*
X127407941Y-45631829D01*
X127206963Y-45740287D01*
X127190932Y-45748616D01*
X126786613Y-45958118D01*
X127095259Y-46233559D01*
X127264868Y-46375535D01*
X127403761Y-46474986D01*
X127476909Y-46509000D01*
X127563658Y-46559225D01*
X127581035Y-46590102D01*
X127648725Y-46654593D01*
X127802117Y-46756086D01*
X128012602Y-46876247D01*
X128095829Y-46920022D01*
X128314880Y-47040057D01*
X128482209Y-47145737D01*
X128571503Y-47219864D01*
X128579500Y-47236168D01*
X128631943Y-47304011D01*
X128760693Y-47382867D01*
X128785875Y-47394470D01*
X128951033Y-47480049D01*
X129071312Y-47564075D01*
X129076161Y-47568721D01*
X129194159Y-47640784D01*
X129250786Y-47652000D01*
X129332337Y-47687770D01*
X129341500Y-47715500D01*
X129392933Y-47771835D01*
X129436750Y-47779000D01*
X129521254Y-47813288D01*
X129532000Y-47842500D01*
X129583570Y-47898511D01*
X129629243Y-47906000D01*
X129735505Y-47955142D01*
X129759984Y-47993292D01*
X129834809Y-48070147D01*
X129984284Y-48161833D01*
X130059616Y-48197914D01*
X130225851Y-48275257D01*
X130336964Y-48334486D01*
X130357500Y-48349341D01*
X130445282Y-48419053D01*
X130593069Y-48516859D01*
X130759987Y-48618023D01*
X130905162Y-48697803D01*
X130987721Y-48731461D01*
X130988905Y-48731500D01*
X131065003Y-48781085D01*
X131119500Y-48858500D01*
X131193565Y-48958777D01*
X131240020Y-48985500D01*
X131314330Y-49014669D01*
X131473236Y-49093399D01*
X131690907Y-49208523D01*
X131865764Y-49304467D01*
X132165362Y-49480927D01*
X132358728Y-49623453D01*
X132456942Y-49746759D01*
X132471084Y-49865558D01*
X132412234Y-49994566D01*
X132399511Y-50013267D01*
X132330094Y-50124162D01*
X132312006Y-50176428D01*
X132299913Y-50239055D01*
X132250760Y-50375031D01*
X132231476Y-50422308D01*
X132169213Y-50589824D01*
X132136810Y-50713121D01*
X132135500Y-50728921D01*
X132103068Y-50835490D01*
X132091329Y-50850004D01*
X132041324Y-50948679D01*
X132034600Y-50979736D01*
X131990427Y-51166322D01*
X131928560Y-51296915D01*
X131877221Y-51335000D01*
X131832695Y-51389367D01*
X131818000Y-51493750D01*
X131792674Y-51613024D01*
X131743917Y-51652500D01*
X131700047Y-51676912D01*
X131709649Y-51692315D01*
X131713297Y-51770812D01*
X131672180Y-51915059D01*
X131656733Y-51954070D01*
X131594620Y-52134793D01*
X131564527Y-52285337D01*
X131564000Y-52299790D01*
X131520764Y-52446586D01*
X131468750Y-52518821D01*
X131389204Y-52651984D01*
X131373500Y-52732788D01*
X131343280Y-52852453D01*
X131310000Y-52890750D01*
X131260397Y-52978501D01*
X131246500Y-53081250D01*
X131222531Y-53214219D01*
X131183000Y-53271750D01*
X131129656Y-53361314D01*
X131119500Y-53434247D01*
X131090595Y-53535354D01*
X131052253Y-53557500D01*
X131012998Y-53595769D01*
X131021539Y-53616612D01*
X131013576Y-53698167D01*
X130993536Y-53715609D01*
X130941969Y-53804476D01*
X130929000Y-53897797D01*
X130896799Y-54046006D01*
X130852800Y-54116300D01*
X130812546Y-54180174D01*
X130828354Y-54192500D01*
X130836931Y-54236938D01*
X130787361Y-54335375D01*
X130699993Y-54511076D01*
X130659492Y-54637000D01*
X130613253Y-54808072D01*
X130548973Y-55006636D01*
X130544939Y-55018000D01*
X130478742Y-55203772D01*
X130424313Y-55357406D01*
X130420848Y-55367250D01*
X130373903Y-55499688D01*
X130303999Y-55695778D01*
X130262533Y-55811750D01*
X130189256Y-56041455D01*
X130133440Y-56260748D01*
X130118516Y-56341839D01*
X130088155Y-56554428D01*
X130326602Y-56522295D01*
X130493601Y-56483291D01*
X130600876Y-56428129D01*
X130610482Y-56416648D01*
X130694528Y-56366473D01*
X130861861Y-56316230D01*
X130998833Y-56289578D01*
X131232848Y-56245687D01*
X131528387Y-56180191D01*
X131824919Y-56106578D01*
X131849750Y-56099972D01*
X132094537Y-56034958D01*
X132295882Y-55982480D01*
X132419174Y-55951528D01*
X132435288Y-55947882D01*
X132542339Y-55900078D01*
X132556996Y-55887671D01*
X132646057Y-55856718D01*
X132799380Y-55843506D01*
X132802742Y-55843500D01*
X132989435Y-55824587D01*
X133218311Y-55777098D01*
X133300158Y-55754464D01*
X133470366Y-55710248D01*
X133577316Y-55695947D01*
X133596000Y-55703664D01*
X133631396Y-55700519D01*
X133672201Y-55665699D01*
X133789211Y-55608729D01*
X133926201Y-55589500D01*
X134054374Y-55570684D01*
X134104000Y-55528548D01*
X134119176Y-55497244D01*
X134177553Y-55463740D01*
X134298411Y-55421459D01*
X134501025Y-55363822D01*
X134804675Y-55284250D01*
X134866000Y-55268511D01*
X135011785Y-55229780D01*
X135248116Y-55165458D01*
X135543256Y-55084242D01*
X135865465Y-54994824D01*
X135890704Y-54987788D01*
X136203276Y-54903484D01*
X136481588Y-54833697D01*
X136697642Y-54785087D01*
X136823440Y-54764309D01*
X136831865Y-54764000D01*
X136989510Y-54721596D01*
X137065822Y-54668750D01*
X137165281Y-54591163D01*
X137212944Y-54573500D01*
X137262024Y-54626649D01*
X137346703Y-54765974D01*
X137451699Y-54961285D01*
X137561730Y-55182395D01*
X137661515Y-55399117D01*
X137735771Y-55581263D01*
X137759421Y-55653000D01*
X137807176Y-55784399D01*
X137843853Y-55843500D01*
X137891655Y-55915846D01*
X137980601Y-56079496D01*
X138098973Y-56310274D01*
X138235056Y-56584007D01*
X138377134Y-56876522D01*
X138513489Y-57163644D01*
X138632406Y-57421199D01*
X138722168Y-57625014D01*
X138771060Y-57750915D01*
X138774844Y-57764375D01*
X138823368Y-57890613D01*
X138875377Y-57939000D01*
X138941750Y-57990786D01*
X138970209Y-58050125D01*
X139022791Y-58179964D01*
X139115865Y-58381937D01*
X139234441Y-58626328D01*
X139363530Y-58883423D01*
X139488141Y-59123508D01*
X139593283Y-59316868D01*
X139663966Y-59433789D01*
X139676125Y-59449425D01*
X139745200Y-59585729D01*
X139755500Y-59656104D01*
X139787870Y-59794845D01*
X139870724Y-59978935D01*
X139982679Y-60173541D01*
X140102353Y-60343830D01*
X140208362Y-60454969D01*
X140260642Y-60479000D01*
X140335676Y-60439752D01*
X140377800Y-60402800D01*
X140445343Y-60294466D01*
X140454000Y-60250843D01*
X140504972Y-60164267D01*
X140549250Y-60138536D01*
X140633653Y-60058019D01*
X140644500Y-60012518D01*
X140689383Y-59899424D01*
X140739750Y-59844000D01*
X140820978Y-59724819D01*
X140835000Y-59656952D01*
X140861394Y-59568238D01*
X140933089Y-59390406D01*
X140947595Y-59357166D01*
X140305834Y-59357166D01*
X140297117Y-59394917D01*
X140263500Y-59399500D01*
X140211233Y-59376266D01*
X140221167Y-59357166D01*
X140296527Y-59349566D01*
X140305834Y-59357166D01*
X140947595Y-59357166D01*
X141038852Y-59148059D01*
X141167454Y-58865802D01*
X141307664Y-58568241D01*
X141448249Y-58279980D01*
X141577979Y-58025624D01*
X141590188Y-58002500D01*
X141647829Y-57892656D01*
X141708870Y-57773324D01*
X141782704Y-57625443D01*
X141878723Y-57429954D01*
X142006320Y-57167794D01*
X142174888Y-56819904D01*
X142278610Y-56605500D01*
X142456033Y-56237420D01*
X142628284Y-55877897D01*
X142781981Y-55555014D01*
X142903745Y-55296857D01*
X142966857Y-55160875D01*
X143068173Y-54950036D01*
X143146196Y-54830827D01*
X143226030Y-54777456D01*
X143332779Y-54764137D01*
X143353201Y-54764000D01*
X143506476Y-54781909D01*
X143595721Y-54825234D01*
X143597250Y-54827500D01*
X143687178Y-54881609D01*
X143754602Y-54891000D01*
X143895295Y-54918941D01*
X144052479Y-54981456D01*
X144229537Y-55055025D01*
X144451642Y-55128055D01*
X144518000Y-55146395D01*
X144712441Y-55202054D01*
X144864736Y-55254274D01*
X144901085Y-55270114D01*
X145030209Y-55318069D01*
X145205159Y-55364757D01*
X145207000Y-55365163D01*
X145360270Y-55422643D01*
X145449454Y-55500061D01*
X145451878Y-55505562D01*
X145493701Y-55565360D01*
X145541865Y-55515449D01*
X145586868Y-55467082D01*
X145596528Y-55510125D01*
X145650418Y-55574578D01*
X145724500Y-55589500D01*
X145827751Y-55611697D01*
X145851500Y-55642416D01*
X145902243Y-55696138D01*
X145930875Y-55702195D01*
X146131348Y-55735956D01*
X146262139Y-55790026D01*
X146272996Y-55799328D01*
X146363442Y-55831876D01*
X146494929Y-55843500D01*
X146680104Y-55869312D01*
X146878548Y-55931510D01*
X146881221Y-55932647D01*
X147049188Y-55997483D01*
X147258417Y-56069162D01*
X147466623Y-56134322D01*
X147631523Y-56179599D01*
X147703584Y-56192526D01*
X147783370Y-56231022D01*
X147793542Y-56240375D01*
X147889367Y-56278368D01*
X147986179Y-56288000D01*
X148121959Y-56323674D01*
X148181970Y-56377670D01*
X148265191Y-56436441D01*
X148430724Y-56504749D01*
X148637364Y-56570661D01*
X148843905Y-56622241D01*
X149009143Y-56647557D01*
X149086247Y-56639569D01*
X149110666Y-56562471D01*
X149111575Y-56410084D01*
X149093283Y-56231038D01*
X149060101Y-56073957D01*
X149029745Y-56002250D01*
X148997949Y-55902045D01*
X148972918Y-55732753D01*
X148968899Y-55684750D01*
X148941925Y-55501995D01*
X148897447Y-55369063D01*
X148885804Y-55351375D01*
X148847438Y-55283322D01*
X148856735Y-55272000D01*
X148858843Y-55220909D01*
X148818292Y-55094429D01*
X148803528Y-55057815D01*
X148754695Y-54907699D01*
X148748962Y-54812014D01*
X148753852Y-54803815D01*
X148747639Y-54766071D01*
X148729247Y-54764000D01*
X148682339Y-54708755D01*
X148659477Y-54575762D01*
X148659435Y-54574347D01*
X148639512Y-54410119D01*
X148603984Y-54304472D01*
X148550493Y-54172676D01*
X148535634Y-54106722D01*
X148507359Y-53990791D01*
X148449917Y-53794949D01*
X148375178Y-53559468D01*
X148367187Y-53535222D01*
X148277981Y-53249879D01*
X148193536Y-52953757D01*
X148137200Y-52732000D01*
X148083251Y-52526118D01*
X148029319Y-52367714D01*
X147999957Y-52310059D01*
X147954745Y-52210843D01*
X147954854Y-52183059D01*
X147945083Y-52080863D01*
X147930046Y-52033500D01*
X147907655Y-51965517D01*
X147883077Y-51862620D01*
X147851044Y-51698890D01*
X147806286Y-51448410D01*
X147778221Y-51286786D01*
X147737950Y-51134530D01*
X147688943Y-51046986D01*
X147685985Y-51044913D01*
X147645037Y-50962338D01*
X147629500Y-50827000D01*
X147608122Y-50680732D01*
X147561671Y-50602074D01*
X147519456Y-50515224D01*
X147527148Y-50473360D01*
X147522771Y-50373994D01*
X147499727Y-50349036D01*
X147436553Y-50252306D01*
X147474319Y-50126999D01*
X147600796Y-50002167D01*
X147661250Y-49965309D01*
X147802013Y-49878336D01*
X147878747Y-49809205D01*
X147883500Y-49796559D01*
X147934764Y-49752300D01*
X147973459Y-49747500D01*
X148069870Y-49704991D01*
X148087195Y-49676166D01*
X148166811Y-49590503D01*
X148361020Y-49461313D01*
X148665984Y-49290933D01*
X149003197Y-49118555D01*
X149205604Y-49007238D01*
X149359206Y-48902525D01*
X149429830Y-48828402D01*
X149514264Y-48742899D01*
X149564258Y-48731500D01*
X149650033Y-48697824D01*
X149661500Y-48668000D01*
X149711032Y-48607963D01*
X149734882Y-48604500D01*
X149830371Y-48569413D01*
X149972850Y-48482750D01*
X150004757Y-48459954D01*
X150194834Y-48335117D01*
X150413564Y-48211221D01*
X150455250Y-48190079D01*
X150622335Y-48096063D01*
X150738991Y-48009455D01*
X150760031Y-47985375D01*
X150862168Y-47912554D01*
X150902906Y-47906000D01*
X150985365Y-47870693D01*
X150995000Y-47842500D01*
X151046433Y-47786164D01*
X151090250Y-47779000D01*
X151174754Y-47744711D01*
X151185500Y-47715500D01*
X151236602Y-47658414D01*
X151276215Y-47652000D01*
X151396696Y-47610332D01*
X151450840Y-47568721D01*
X151565536Y-47486312D01*
X151729819Y-47399521D01*
X151741125Y-47394470D01*
X151878372Y-47314742D01*
X151946014Y-47237735D01*
X151947500Y-47228028D01*
X152000169Y-47150215D01*
X152074500Y-47112250D01*
X152177124Y-47055240D01*
X152201500Y-47012720D01*
X152252405Y-46958915D01*
X152288752Y-46953500D01*
X152394248Y-46924298D01*
X152552380Y-46851285D01*
X152724503Y-46756348D01*
X152871970Y-46661374D01*
X152956137Y-46588250D01*
X152963500Y-46571350D01*
X153015522Y-46510298D01*
X153081463Y-46480118D01*
X153192157Y-46417588D01*
X153351318Y-46296600D01*
X153466543Y-46196076D01*
X153733660Y-45949475D01*
X153316830Y-45744270D01*
X153114556Y-45639308D01*
X152966403Y-45552169D01*
X152900946Y-45499839D01*
X152900000Y-45496503D01*
X152847098Y-45448541D01*
X152713057Y-45375695D01*
X152630125Y-45337998D01*
X152435305Y-45251631D01*
X152180039Y-45134952D01*
X151918350Y-45012664D01*
X151909087Y-45008278D01*
X151676158Y-44905726D01*
X151472803Y-44830039D01*
X151337595Y-44795315D01*
X151324186Y-44794500D01*
X151180468Y-44749852D01*
X151073640Y-44669121D01*
X150958274Y-44583041D01*
X150764542Y-44474431D01*
X150532834Y-44365776D01*
X150515541Y-44358457D01*
X150118595Y-44189518D01*
X149828017Y-44060066D01*
X149631625Y-43964042D01*
X149517234Y-43895389D01*
X149472663Y-43848048D01*
X149471000Y-43839028D01*
X149419464Y-43785448D01*
X149374889Y-43778500D01*
X149238428Y-43748880D01*
X149168514Y-43717940D01*
X149067244Y-43669353D01*
X148877739Y-43584326D01*
X148628843Y-43475635D01*
X148398651Y-43376957D01*
X148129603Y-43256902D01*
X147904284Y-43145732D01*
X147748639Y-43056931D01*
X147690382Y-43008891D01*
X147681797Y-42908485D01*
X147703477Y-42722865D01*
X147750767Y-42488921D01*
X147761521Y-42445000D01*
X147819847Y-42195193D01*
X147862805Y-41977061D01*
X147882083Y-41833387D01*
X147882415Y-41822721D01*
X147912617Y-41658257D01*
X147973761Y-41502148D01*
X148047928Y-41310130D01*
X148094944Y-41108426D01*
X148118388Y-40963113D01*
X148135794Y-40890983D01*
X148137500Y-40889250D01*
X148153020Y-40833790D01*
X148176073Y-40697483D01*
X148180158Y-40669189D01*
X148218167Y-40485628D01*
X148267476Y-40344043D01*
X148269591Y-40339988D01*
X148320310Y-40191781D01*
X148328000Y-40125146D01*
X148353172Y-39995964D01*
X148414129Y-39827862D01*
X148417914Y-39819346D01*
X148482513Y-39650672D01*
X148536782Y-39444365D01*
X148588587Y-39166731D01*
X148624054Y-38936226D01*
X148660470Y-38772596D01*
X148706163Y-38671303D01*
X148715708Y-38662604D01*
X148754442Y-38581032D01*
X148772355Y-38429678D01*
X148772500Y-38414294D01*
X148788474Y-38264102D01*
X148827431Y-38182421D01*
X148832428Y-38179916D01*
X148876122Y-38109721D01*
X148917082Y-37956899D01*
X148930855Y-37873000D01*
X148964291Y-37636427D01*
X148993662Y-37467050D01*
X149029703Y-37305931D01*
X149046529Y-37238000D01*
X149114073Y-36910701D01*
X149177875Y-36488547D01*
X149197287Y-36333125D01*
X149233159Y-36031500D01*
X149014966Y-36031500D01*
X148826496Y-36058387D01*
X148675547Y-36123213D01*
X148673512Y-36124730D01*
X148518732Y-36200595D01*
X148414169Y-36219980D01*
X148288934Y-36261054D01*
X148241537Y-36317249D01*
X148163338Y-36401612D01*
X148119671Y-36412500D01*
X148012994Y-36438680D01*
X147846918Y-36504395D01*
X147780022Y-36535380D01*
X147578885Y-36623451D01*
X147393904Y-36690177D01*
X147355345Y-36701014D01*
X147231094Y-36751375D01*
X147185000Y-36804131D01*
X147147419Y-36838849D01*
X147132823Y-36832247D01*
X147044225Y-36835031D01*
X146920540Y-36883062D01*
X146744740Y-36952743D01*
X146538188Y-37007772D01*
X146528218Y-37009690D01*
X146377833Y-37051400D01*
X146299291Y-37099530D01*
X146296000Y-37109598D01*
X146243126Y-37169674D01*
X146153125Y-37210254D01*
X146006779Y-37264620D01*
X145812211Y-37347446D01*
X145744627Y-37378278D01*
X145563773Y-37456346D01*
X145420935Y-37507355D01*
X145385908Y-37515653D01*
X145252570Y-37565365D01*
X145207031Y-37594470D01*
X145096422Y-37651566D01*
X144918005Y-37719234D01*
X144835500Y-37745603D01*
X144651996Y-37807718D01*
X144519349Y-37865064D01*
X144489426Y-37884041D01*
X144373191Y-37933921D01*
X144343895Y-37936499D01*
X144238472Y-37976826D01*
X144122372Y-38063499D01*
X143977391Y-38157574D01*
X143852703Y-38190499D01*
X143709548Y-38218853D01*
X143528079Y-38288721D01*
X143494386Y-38305194D01*
X143286269Y-38386084D01*
X143160841Y-38375536D01*
X143121000Y-38280458D01*
X143084970Y-38199407D01*
X143057500Y-38190500D01*
X142999535Y-38139815D01*
X142994000Y-38105006D01*
X142968202Y-37990025D01*
X142906658Y-37835131D01*
X142816955Y-37638707D01*
X142732407Y-37444374D01*
X142662490Y-37307302D01*
X142604021Y-37239546D01*
X142597499Y-37237999D01*
X142554706Y-37186438D01*
X142549500Y-37143983D01*
X142517139Y-37043316D01*
X142433066Y-36876872D01*
X142336973Y-36715358D01*
X142215375Y-36507156D01*
X142121004Y-36315244D01*
X142082878Y-36210565D01*
X142015810Y-36044654D01*
X141944275Y-35943346D01*
X141859834Y-35820758D01*
X141775730Y-35642567D01*
X141761901Y-35605531D01*
X141667132Y-35380051D01*
X141552054Y-35157237D01*
X141543341Y-35142500D01*
X141443824Y-34965371D01*
X141319865Y-34729715D01*
X141218533Y-34527569D01*
X141113925Y-34324838D01*
X141023719Y-34170566D01*
X140967416Y-34098096D01*
X140967356Y-34098059D01*
X140910871Y-34018273D01*
X140845692Y-33866763D01*
X140831111Y-33823990D01*
X140747828Y-33633553D01*
X140620133Y-33410133D01*
X140540728Y-33292492D01*
X140423095Y-33113480D01*
X140345467Y-32962651D01*
X140327000Y-32895617D01*
X140294874Y-32806488D01*
X140263500Y-32793000D01*
X140207141Y-32844421D01*
%TD*%
D11*
%TO.C,R4*%
X140840000Y-117800000D03*
D12*
X151000000Y-117800000D03*
%TD*%
D13*
%TO.C,SW1*%
X136600000Y-146600000D03*
X143330000Y-146600000D03*
%TD*%
D14*
%TO.C,D5*%
X116700000Y-123400000D03*
X115430000Y-123400000D03*
X114170000Y-123400000D03*
X112900000Y-123400000D03*
%TD*%
D15*
%TO.C,J1*%
X134840000Y-155600000D03*
X137380000Y-155600000D03*
X139920000Y-155600000D03*
X142460000Y-155600000D03*
D16*
X145000000Y-155600000D03*
%TD*%
D11*
%TO.C,R2*%
X127240000Y-86200000D03*
D12*
X137400000Y-86200000D03*
%TD*%
D11*
%TO.C,R3*%
X140360000Y-97800000D03*
D12*
X130200000Y-97800000D03*
%TD*%
D14*
%TO.C,D6*%
X170700000Y-143000000D03*
X169430000Y-143000000D03*
X168170000Y-143000000D03*
X166900000Y-143000000D03*
%TD*%
%TO.C,D4*%
X158500000Y-111000000D03*
X157230000Y-111000000D03*
X155970000Y-111000000D03*
X154700000Y-111000000D03*
%TD*%
%TO.C,D3*%
X125000000Y-95400000D03*
X123730000Y-95400000D03*
X122470000Y-95400000D03*
X121200000Y-95400000D03*
%TD*%
D12*
%TO.C,C6*%
X154700000Y-144800000D03*
X157200000Y-144800000D03*
%TD*%
D14*
%TO.C,D1*%
X141700000Y-47400000D03*
X140430000Y-47400000D03*
X139170000Y-47400000D03*
X137900000Y-47400000D03*
%TD*%
D12*
%TO.C,C3*%
X123500000Y-109200000D03*
X126000000Y-109200000D03*
%TD*%
%TO.C,C5*%
X123200000Y-131400000D03*
X120700000Y-131400000D03*
%TD*%
D14*
%TO.C,D2*%
X149700000Y-79200000D03*
X148430000Y-79200000D03*
X147170000Y-79200000D03*
X145900000Y-79200000D03*
%TD*%
D11*
%TO.C,R6*%
X110040000Y-142000000D03*
D12*
X120200000Y-142000000D03*
%TD*%
D11*
%TO.C,R1*%
X137440000Y-69000000D03*
D12*
X147600000Y-69000000D03*
%TD*%
D11*
%TO.C,R5*%
X146560000Y-137200000D03*
D12*
X136400000Y-137200000D03*
%TD*%
%TO.C,C1*%
X145400000Y-61000000D03*
X142900000Y-61000000D03*
%TD*%
%TO.C,C2*%
X128100000Y-74600000D03*
X125600000Y-74600000D03*
%TD*%
%TO.C,C4*%
X159900000Y-97200000D03*
X162400000Y-97200000D03*
%TD*%
M02*
