M48
; DRILL file {KiCad 5.99.0+really5.1.10+dfsg1-1} date Fri Dec 17 14:54:17 2021
; FORMAT={-:-/ absolute / inch / decimal}
; #@! TF.CreationDate,2021-12-17T14:54:17+01:00
; #@! TF.GenerationSoftware,Kicad,Pcbnew,5.99.0+really5.1.10+dfsg1-1
; #@! TF.FileFunction,Plated,1,2,PTH
FMAT,2
INCH
T1C0.0157
T2C0.0276
T3C0.0315
T4C0.0394
%
G90
G05
T1
X5.4016Y-5.7717
X5.6142Y-5.7717
T2
X4.4449Y-4.8583
X4.7717Y-3.7559
X5.4291Y-1.8661
X5.7441Y-3.1181
X6.0906Y-4.3701
X6.5709Y-5.6299
T3
X4.3323Y-5.5906
X4.4949Y-4.8583
X4.5445Y-4.8583
X4.5945Y-4.8583
X4.7323Y-5.5906
X4.752Y-5.1732
X4.8217Y-3.7559
X4.8504Y-5.1732
X4.8622Y-4.2992
X4.8713Y-3.7559
X4.9213Y-3.7559
X4.9449Y-2.937
X4.9606Y-4.2992
X5.0094Y-3.3937
X5.0433Y-2.937
X5.126Y-3.8504
X5.3701Y-5.4016
X5.4094Y-3.3937
X5.411Y-2.7165
X5.4791Y-1.8661
X5.526Y-3.8504
X5.5287Y-1.8661
X5.5449Y-4.6378
X5.5787Y-1.8661
X5.626Y-2.4016
X5.7244Y-2.4016
X5.7701Y-5.4016
X5.7941Y-3.1181
X5.811Y-2.7165
X5.8437Y-3.1181
X5.8937Y-3.1181
X5.9449Y-4.6378
X6.0906Y-5.7008
X6.1406Y-4.3701
X6.189Y-5.7008
X6.1902Y-4.3701
X6.2402Y-4.3701
X6.2953Y-3.8268
X6.3937Y-3.8268
X6.6209Y-5.6299
X6.6705Y-5.6299
X6.7205Y-5.6299
T4
X5.3087Y-6.126
X5.4087Y-6.126
X5.5087Y-6.126
X5.6087Y-6.126
X5.7087Y-6.126
T0
M30
